<svg width="710" height="355" viewBox="0 0 710 355" fill="none" xmlns="http://www.w3.org/2000/svg">
<mask id="mask0_408_2777" style="mask-type:alpha" maskUnits="userSpaceOnUse" x="0" y="0" width="710" height="355">
<rect width="710" height="355" fill="#000099"/>
</mask>
<g mask="url(#mask0_408_2777)">
<path d="M613.152 145.054L627.089 145.054C627.397 143.939 628.409 143.116 629.621 143.116C631.079 143.116 632.259 144.299 632.259 145.754C632.259 147.212 631.079 148.392 629.621 148.392C628.409 148.392 627.397 147.572 627.089 146.457L614.555 146.457L614.555 168.803L631.35 185.594L631.35 253.484L616.59 253.484L616.59 373.477L615.187 373.477L615.187 252.081L629.946 252.081L629.946 186.177L613.152 169.383L613.152 145.054Z" fill="#6CC6C7"/>
<path d="M624.227 189.056L607.433 172.262L607.433 136.92L616.799 136.92C617.108 135.805 618.12 134.985 619.331 134.985C620.786 134.985 621.97 136.166 621.97 137.624C621.97 139.082 620.786 140.259 619.331 140.259C618.117 140.259 617.105 139.439 616.799 138.324L608.836 138.324L608.836 171.679L625.631 188.473L625.631 247.814L610.871 247.814L610.871 376.353L609.468 376.353L609.468 246.407L624.227 246.407L624.227 189.056Z" fill="#6CC6C7"/>
<path d="M599.113 127.436C599.113 125.982 600.293 124.798 601.751 124.798C603.206 124.798 604.39 125.982 604.39 127.436C604.39 128.647 603.566 129.66 602.451 129.968L602.451 174.018L619.245 190.812L619.245 241.208L604.486 241.208L604.486 378.691L603.083 378.691L603.083 239.805L617.842 239.805L617.842 191.395L601.048 174.601L601.048 129.968C599.933 129.66 599.113 128.647 599.113 127.436Z" fill="#6CC6C7"/>
<path d="M610.85 233.837L596.087 233.837L596.087 353.829L594.684 353.829L594.684 232.434L609.443 232.434L609.443 203.141C608.332 202.832 607.508 201.82 607.508 200.609C607.508 199.154 608.689 197.97 610.147 197.97C611.605 197.97 612.785 199.154 612.785 200.609C612.785 201.82 611.965 202.832 610.85 203.141L610.85 233.837Z" fill="#6CC6C7"/>
<path d="M605.127 228.162L590.368 228.162L590.368 356.707L588.964 356.707L588.964 226.762L603.724 226.762L603.724 194.367C602.609 194.058 601.789 193.05 601.789 191.835C601.789 190.381 602.969 189.197 604.424 189.197C605.882 189.197 607.062 190.381 607.062 191.835C607.062 193.05 606.242 194.062 605.127 194.367L605.127 228.162Z" fill="#6CC6C7"/>
<path d="M595.401 185.522C595.401 184.064 596.581 182.883 598.039 182.883C599.497 182.883 600.681 184.064 600.681 185.522C600.681 186.733 599.854 187.742 598.743 188.054L598.743 221.56L583.983 221.56L583.983 359.043L582.58 359.043L582.58 220.157L597.339 220.157L597.339 188.054C596.224 187.745 595.401 186.733 595.401 185.522Z" fill="#6CC6C7"/>
<path d="M577.196 321.043L575.793 321.043L575.793 202.533L590.553 202.533L590.553 153.059L577.196 153.059L577.196 191.653L582.765 191.653L582.765 169.459C581.65 169.15 580.83 168.142 580.83 166.924C580.83 165.469 582.01 164.289 583.468 164.289C584.926 164.289 586.107 165.469 586.107 166.924C586.107 168.142 585.283 169.15 584.168 169.459L584.168 193.057L575.793 193.057L575.793 151.656L591.956 151.656L591.956 203.936L577.196 203.936L577.196 321.043Z" fill="#6CC6C7"/>
<path d="M676.864 89.505C676.864 88.0468 678.048 86.8666 679.502 86.8666C680.961 86.8666 682.144 88.0468 682.144 89.505C682.144 90.7161 681.321 91.7282 680.206 92.0335L680.206 160.768L697 177.562L697 245.453L682.24 245.453L682.24 365.445L680.837 365.445L680.837 244.046L695.597 244.046L695.597 178.146L678.803 161.351L678.803 92.0335C677.687 91.7282 676.864 90.7195 676.864 89.505Z" fill="#6CC6C7"/>
<path d="M671.145 104.943C671.145 103.485 672.325 102.301 673.783 102.301C675.241 102.301 676.422 103.485 676.422 104.943C676.422 106.154 675.598 107.163 674.487 107.472L674.487 163.646L691.277 180.44L691.277 239.777L676.521 239.777L676.521 368.319L675.118 368.319L675.118 238.374L689.874 238.374L689.874 181.02L673.083 164.229L673.083 107.472C671.968 107.163 671.145 106.154 671.145 104.943Z" fill="#6CC6C7"/>
<path d="M664.76 118.51C664.76 117.052 665.944 115.868 667.398 115.868C668.856 115.868 670.037 117.052 670.037 118.51C670.037 119.721 669.213 120.733 668.098 121.042L668.098 165.99L684.892 182.781L684.892 233.177L670.133 233.177L670.133 370.66L668.729 370.66L668.73 231.774L683.489 231.774L683.489 183.36L666.695 166.566L666.695 121.042C665.583 120.729 664.76 119.721 664.76 118.51Z" fill="#6CC6C7"/>
<path d="M456.851 68.0345C456.851 66.5798 458.034 65.3962 459.489 65.3962C460.947 65.3962 462.131 66.5798 462.131 68.0345C462.131 69.2456 461.304 70.2543 460.192 70.5631L460.192 118.012L476.987 134.807L476.987 228.426L518.7 228.426L518.7 405.841L517.3 405.841L517.3 229.829L475.584 229.829L475.584 135.387L458.789 118.596L458.789 70.5631C457.674 70.2577 456.851 69.2456 456.851 68.0345Z" fill="#6CC6C7"/>
<path d="M310.156 21.2779C310.156 19.8198 311.34 18.6396 312.798 18.6396C314.252 18.6396 315.433 19.8198 315.433 21.2779C315.433 22.5027 314.592 23.5217 313.46 23.8202L313.46 73.901L330.251 90.6919L330.251 156.668L317.433 156.668L317.433 245.837L331.029 258.47L331.029 299.428L316.136 299.428L316.136 361.616C317.247 361.928 318.071 362.941 318.071 364.148C318.071 365.606 316.891 366.79 315.433 366.79C313.978 366.79 312.798 365.606 312.798 364.148C312.798 362.937 313.618 361.925 314.733 361.616L314.733 298.021L329.626 298.021L329.626 259.08L316.033 246.451L316.033 155.265L328.847 155.265L328.847 91.2717L312.057 74.4774L312.057 23.7962C310.962 23.4737 310.156 22.4787 310.156 21.2779Z" fill="#6CC6C7"/>
<path d="M304.546 30.2906C304.546 28.8359 305.73 27.6557 307.185 27.6557C308.643 27.6557 309.823 28.8359 309.823 30.2906C309.823 31.56 308.931 32.6168 307.737 32.8672L307.737 74.0345L324.531 90.8288L324.531 150.166L309.772 150.166L309.772 249.47L324.531 264.381L324.531 292.566L309.751 292.566L309.751 384.757C310.863 385.07 311.686 386.078 311.686 387.293C311.686 388.748 310.502 389.928 309.048 389.928C307.59 389.928 306.409 388.748 306.409 387.293C306.409 386.078 307.233 385.07 308.344 384.757L308.344 291.162L323.128 291.162L323.128 264.957L308.368 250.047L308.368 148.76L323.128 148.76L323.128 91.4086L306.33 74.6144L306.33 32.7746C305.298 32.4178 304.546 31.4502 304.546 30.2906Z" fill="#6CC6C7"/>
<path d="M451.135 79.7888C451.135 78.3306 452.312 77.147 453.77 77.147C455.228 77.147 456.408 78.3306 456.408 79.7888C456.408 80.9999 455.585 82.012 454.473 82.3208L454.473 120.891L471.267 137.685L471.267 234.859L512.984 234.859L512.984 405.841L511.577 405.841L511.577 236.262L469.861 236.262L469.861 138.268L453.07 121.471L453.07 82.3208C451.955 82.012 451.135 80.9999 451.135 79.7888Z" fill="#6CC6C7"/>
<path d="M442.781 125.688C442.781 124.23 443.961 123.049 445.419 123.049C446.874 123.049 448.057 124.23 448.057 125.688C448.057 126.902 447.234 127.911 446.119 128.22L446.119 175.669L462.913 192.463L462.913 260.351L448.15 260.351L448.15 380.343L446.75 380.343L446.75 258.947L461.51 258.947L461.51 193.043L444.716 176.249L444.716 128.22C443.601 127.908 442.781 126.902 442.781 125.688Z" fill="#6CC6C7"/>
<path d="M437.058 137.441C437.058 135.986 438.242 134.806 439.696 134.806C441.155 134.806 442.335 135.986 442.335 137.441C442.335 138.655 441.511 139.668 440.396 139.976L440.396 178.546L457.191 195.341L457.191 254.678L442.434 254.678L442.434 383.217L441.028 383.217L441.028 253.275L455.787 253.275L455.787 195.921L438.997 179.126L438.997 139.976C437.881 139.668 437.058 138.655 437.058 137.441Z" fill="#6CC6C7"/>
<path d="M430.673 139.781C430.673 138.323 431.853 137.143 433.311 137.143C434.766 137.143 435.95 138.323 435.95 139.781C435.95 140.992 435.126 142.004 434.011 142.313L434.011 180.887L450.806 197.678L450.806 248.074L436.046 248.074L436.046 385.561L434.643 385.561L434.643 246.671L449.402 246.671L449.402 198.257L432.608 181.467L432.608 142.313C431.496 142.004 430.673 140.992 430.673 139.781Z" fill="#6CC6C7"/>
<path d="M507.879 261.352C507.879 262.81 506.695 263.991 505.237 263.991C504.026 263.991 503.014 263.167 502.708 262.052L490.175 262.052L490.175 284.398L506.966 301.192L506.966 369.079L492.21 369.079L492.21 489.071L490.806 489.071L490.806 367.676L505.566 367.676L505.566 301.775L488.772 284.977L488.772 260.649L502.708 260.649C503.017 259.537 504.026 258.714 505.237 258.714C506.695 258.714 507.879 259.898 507.879 261.352Z" fill="#6CC6C7"/>
<path d="M501.25 363.407L486.487 363.407L486.487 491.949L485.084 491.949L485.084 362.004L499.843 362.004L499.843 304.65L483.049 287.859L483.049 252.517L492.416 252.517C492.724 251.402 493.736 250.579 494.948 250.579C496.406 250.579 497.589 251.762 497.589 253.22C497.589 254.675 496.406 255.855 494.948 255.855C493.736 255.855 492.724 255.035 492.416 253.92L484.452 253.92L484.452 287.276L501.25 304.07L501.25 363.407Z" fill="#6CC6C7"/>
<path d="M494.862 356.803L480.102 356.803L480.102 494.289L478.699 494.289L478.699 355.399L493.459 355.399L493.459 306.989L476.664 290.195L476.664 245.563C475.549 245.257 474.729 244.249 474.729 243.034C474.729 241.576 475.91 240.396 477.368 240.396C478.822 240.396 480.006 241.576 480.006 243.034C480.006 244.245 479.183 245.257 478.068 245.563L478.068 289.615L494.862 306.41L494.862 356.803Z" fill="#6CC6C7"/>
<path d="M486.466 349.434L471.707 349.434L471.707 469.426L470.303 469.426L470.303 348.03L485.06 348.03L485.06 318.737C483.948 318.428 483.125 317.416 483.125 316.205C483.125 314.751 484.308 313.567 485.763 313.567C487.221 313.567 488.401 314.751 488.401 316.205C488.401 317.416 487.581 318.425 486.466 318.737L486.466 349.434Z" fill="#6CC6C7"/>
<path d="M480.744 343.76L465.984 343.76L465.984 472.302L464.581 472.302L464.581 342.356L479.34 342.356L479.34 309.965C478.225 309.657 477.405 308.648 477.405 307.437C477.405 305.979 478.586 304.795 480.044 304.795C481.498 304.795 482.682 305.979 482.682 307.437C482.682 308.648 481.859 309.657 480.744 309.965L480.744 343.76Z" fill="#6CC6C7"/>
<path d="M474.359 337.155L459.599 337.155L459.599 474.645L458.192 474.645L458.192 335.751L472.955 335.751L472.955 303.649C471.844 303.343 471.017 302.331 471.017 301.117C471.017 299.662 472.201 298.482 473.655 298.482C475.113 298.482 476.297 299.662 476.297 301.117C476.297 302.331 475.474 303.34 474.359 303.649L474.359 337.155Z" fill="#6CC6C7"/>
<path d="M467.572 319.53L452.816 319.53L452.816 436.641L451.409 436.641L451.409 318.127L466.169 318.127L466.169 268.657L452.816 268.657L452.816 307.251L458.384 307.251L458.384 285.053C457.269 284.744 456.446 283.732 456.446 282.525C456.446 281.067 457.63 279.886 459.084 279.886C460.539 279.886 461.723 281.067 461.723 282.525C461.723 283.736 460.899 284.744 459.784 285.053L459.784 308.654L451.409 308.654L451.409 267.254L467.572 267.254L467.572 319.53Z" fill="#6CC6C7"/>
<path d="M549.931 132.855L533.14 116.064L533.14 62.8609L534.543 62.8609L534.543 115.481L551.334 132.275L551.334 198.254L538.52 198.254L538.52 287.424L552.113 300.053L552.113 341.007L537.22 341.007L537.22 403.203C538.335 403.511 539.155 404.524 539.155 405.738C539.155 407.193 537.974 408.373 536.516 408.373C535.061 408.373 533.881 407.193 533.881 405.738C533.881 404.524 534.701 403.511 535.816 403.203L535.816 339.608L550.71 339.608L550.71 300.667L537.117 288.034L537.117 196.848L549.931 196.848L549.931 132.855Z" fill="#6CC6C7"/>
<path d="M544.212 132.995L527.418 116.2L527.418 71.8765L528.821 71.8765L528.821 115.617L545.615 132.415L545.615 191.752L530.855 191.752L530.855 291.056L545.615 305.97L545.615 334.148L530.831 334.148L530.831 426.343C531.946 426.652 532.77 427.661 532.77 428.875C532.77 430.333 531.589 431.514 530.131 431.514C528.673 431.514 527.493 430.333 527.493 428.875C527.493 427.664 528.316 426.652 529.428 426.343L529.428 332.745L544.212 332.745L544.212 306.543L529.452 291.632L529.452 190.349L544.212 190.349L544.212 132.995Z" fill="#6CC6C7"/>
<path d="M519.873 79.5177C519.873 78.0596 521.053 76.8794 522.511 76.8794C523.969 76.8794 525.15 78.0596 525.15 79.5177C525.15 80.7323 524.326 81.7409 523.215 82.0497L523.215 120.623L540.006 137.414L540.006 187.811L525.249 187.811L525.249 405.841L523.846 405.841L523.846 186.407L538.602 186.407L538.602 137.997L521.811 121.203L521.811 82.0497C520.696 81.7409 519.873 80.7323 519.873 79.5177Z" fill="#6CC6C7"/>
<path d="M552.484 205.099C552.484 203.644 553.664 202.46 555.122 202.46C556.58 202.46 557.76 203.644 557.76 205.099C557.76 206.31 556.937 207.322 555.822 207.631L555.822 276.365L572.616 293.16L572.616 361.047L557.856 361.047L557.856 481.039L556.453 481.039L556.453 359.644L571.213 359.644L571.213 293.739L554.419 276.945L554.419 207.631C553.307 207.322 552.484 206.31 552.484 205.099Z" fill="#6CC6C7"/>
<path d="M550.103 223.07L550.103 279.244L566.897 296.039L566.897 355.376L552.137 355.376L552.137 483.918L550.734 483.918L550.734 353.973L565.494 353.973L565.494 296.618L548.699 279.824L548.699 223.07C547.584 222.765 546.761 221.749 546.761 220.538C546.761 219.08 547.945 217.9 549.399 217.9C550.857 217.9 552.038 219.08 552.038 220.538C552.038 221.749 551.214 222.761 550.103 223.07Z" fill="#6CC6C7"/>
<path d="M560.509 348.771L545.749 348.771L545.749 486.258L544.346 486.258L544.346 347.365L559.105 347.365L559.105 298.962L542.311 282.164L542.311 236.636C541.199 236.327 540.376 235.318 540.376 234.107C540.376 232.646 541.56 231.466 543.014 231.466C544.469 231.466 545.653 232.646 545.653 234.107C545.653 235.318 544.829 236.327 543.714 236.636L543.714 281.584L560.509 298.375L560.509 348.771Z" fill="#6CC6C7"/>
<path d="M365.579 84.2708C365.579 82.8126 366.756 81.6324 368.214 81.6324C369.672 81.6324 370.852 82.8126 370.852 84.2708C370.852 85.4853 370.032 86.494 368.917 86.8028L368.917 134.252L385.708 151.046L385.708 218.937L370.948 218.937L370.948 338.926L369.545 338.926L369.545 217.53L384.305 217.53L384.305 151.623L367.514 134.832L367.514 86.8028C366.399 86.4906 365.579 85.4819 365.579 84.2708Z" fill="#6CC6C7"/>
<path d="M359.856 96.0244C359.856 94.5663 361.04 93.3895 362.494 93.3895C363.949 93.3895 365.129 94.5663 365.129 96.0244C365.129 97.239 364.309 98.2476 363.194 98.5598L363.194 137.13L379.988 153.921L379.988 213.258L365.229 213.258L365.229 341.804L363.825 341.804L363.825 211.858L378.585 211.858L378.585 154.504L361.791 137.71L361.791 98.5598C360.676 98.2476 359.856 97.239 359.856 96.0244Z" fill="#6CC6C7"/>
<path d="M353.468 98.3642C353.468 96.9061 354.651 95.7259 356.106 95.7259C357.564 95.7259 358.744 96.9061 358.744 98.3642C358.744 99.5753 357.921 100.587 356.809 100.896L356.809 139.47L373.604 156.261L373.604 206.657L358.844 206.657L358.844 344.144L357.441 344.144L357.441 205.254L372.197 205.254L372.197 156.844L355.406 140.05L355.406 100.896C354.291 100.587 353.468 99.5753 353.468 98.3642Z" fill="#6CC6C7"/>
<path d="M412.97 242.98L429.764 259.774L429.764 327.665L415.004 327.665L415.004 447.653L413.601 447.653L413.601 326.261L428.361 326.261L428.361 260.357L411.57 243.563L411.57 219.231L438.427 219.231C438.739 218.116 439.751 217.296 440.962 217.296C442.42 217.296 443.601 218.476 443.601 219.934C443.601 221.392 442.42 222.573 440.962 222.573C439.751 222.573 438.739 221.749 438.427 220.634L412.97 220.634L412.97 242.98Z" fill="#6CC6C7"/>
<path d="M422.641 263.233L405.847 246.438L405.847 211.1L428.141 211.1C428.45 209.988 429.459 209.165 430.673 209.165C432.131 209.165 433.311 210.345 433.311 211.8C433.311 213.258 432.131 214.438 430.673 214.438C429.459 214.438 428.45 213.618 428.141 212.503L407.25 212.503L407.25 245.862L424.045 262.653L424.045 321.99L409.285 321.99L409.285 450.532L407.878 450.532L407.878 320.587L422.641 320.587L422.641 263.233Z" fill="#6CC6C7"/>
<path d="M397.524 184.294C397.524 182.836 398.704 181.656 400.162 181.656C401.62 181.656 402.8 182.836 402.8 184.294C402.8 185.505 401.977 186.514 400.865 186.822L400.865 248.201L417.656 264.992L417.656 315.385L402.897 315.385L402.897 452.875L401.497 452.875L401.497 313.982L416.253 313.982L416.253 265.572L399.459 248.778L399.459 186.822C398.347 186.514 397.524 185.502 397.524 184.294Z" fill="#6CC6C7"/>
<path d="M409.261 308.012L394.501 308.012L394.501 428.008L393.098 428.008L393.098 306.612L407.858 306.612L407.858 277.319C406.743 277.011 405.923 276.002 405.923 274.787C405.923 273.333 407.103 272.149 408.558 272.149C410.016 272.149 411.196 273.333 411.196 274.787C411.196 276.002 410.376 277.011 409.261 277.319L409.261 308.012Z" fill="#6CC6C7"/>
<path d="M403.542 302.344L388.782 302.344L388.782 430.883L387.379 430.883L387.379 300.941L402.138 300.941L402.138 268.546C401.023 268.238 400.2 267.229 400.2 266.018C400.2 264.556 401.38 263.379 402.838 263.379C404.296 263.379 405.477 264.556 405.477 266.018C405.477 267.229 404.653 268.238 403.542 268.546L403.542 302.344Z" fill="#6CC6C7"/>
<path d="M393.815 259.699C393.815 258.244 394.995 257.064 396.453 257.064C397.908 257.064 399.088 258.244 399.088 259.699C399.088 260.914 398.268 261.926 397.153 262.234L397.153 295.741L382.393 295.741L382.393 433.224L380.99 433.224L380.99 294.337L395.753 294.337L395.753 262.234C394.638 261.926 393.815 260.914 393.815 259.699Z" fill="#6CC6C7"/>
<path d="M374.207 225.836L390.367 225.836L390.367 278.112L375.611 278.112L375.611 395.223L374.207 395.223L374.207 276.709L388.964 276.709L388.964 227.239L375.611 227.239L375.611 265.837L381.179 265.837L381.179 243.639C380.067 243.326 379.244 242.314 379.244 241.107C379.244 239.649 380.424 238.468 381.882 238.468C383.337 238.468 384.521 239.649 384.521 241.107C384.521 242.318 383.697 243.33 382.582 243.639L382.582 267.24L374.207 267.24L374.207 225.836Z" fill="#6CC6C7"/>
<path d="M235.767 26.449C235.767 24.9943 236.951 23.8107 238.406 23.8107C239.864 23.8107 241.047 24.9943 241.047 26.449C241.047 27.6636 240.221 28.6723 239.109 28.981L239.109 76.4303L255.903 93.2246L255.903 186.84L297.62 186.84L297.62 364.259L296.216 364.259L296.216 188.243L254.497 188.243L254.497 93.8044L237.706 77.0102L237.706 28.981C236.591 28.6723 235.767 27.6636 235.767 26.449Z" fill="#6CC6C7"/>
<path d="M230.051 38.2033C230.051 36.7452 231.228 35.5683 232.686 35.5683C234.144 35.5683 235.325 36.7452 235.325 38.2033C235.325 39.4178 234.501 40.4265 233.386 40.7353L233.386 79.3089L250.184 96.0997L250.184 193.277L291.9 193.277L291.9 364.259L290.497 364.259L290.497 194.68L248.777 194.68L248.777 96.683L231.983 79.8887L231.983 40.7353C230.871 40.4265 230.051 39.4178 230.051 38.2033Z" fill="#6CC6C7"/>
<path d="M286.795 219.766C286.795 221.224 285.611 222.404 284.153 222.404C282.942 222.404 281.93 221.584 281.621 220.469L269.091 220.469L269.091 242.815L285.882 259.609L285.882 327.496L271.122 327.496L271.122 447.488L269.719 447.488L269.719 326.093L284.479 326.093L284.479 260.189L267.685 243.394L267.685 219.066L281.621 219.066C281.93 217.951 282.942 217.127 284.153 217.127C285.611 217.127 286.795 218.311 286.795 219.766Z" fill="#6CC6C7"/>
<path d="M280.16 321.825L265.403 321.825L265.403 450.363L264 450.363L264 320.418L278.76 320.418L278.76 263.067L261.965 246.273L261.966 210.931L271.332 210.931C271.641 209.82 272.653 208.996 273.864 208.996C275.322 208.996 276.502 210.176 276.502 211.635C276.502 213.093 275.322 214.269 273.864 214.269C272.649 214.269 271.637 213.449 271.332 212.338L263.369 212.338L263.369 245.69L280.16 262.484L280.16 321.825Z" fill="#6CC6C7"/>
<path d="M273.778 315.221L259.018 315.221L259.018 452.707L257.615 452.707L257.615 313.817L272.375 313.817L272.375 265.407L255.581 248.613L255.581 203.981C254.466 203.672 253.646 202.66 253.646 201.449C253.646 199.994 254.822 198.814 256.284 198.814C257.739 198.814 258.922 199.994 258.922 201.449C258.922 202.66 258.099 203.672 256.984 203.981L256.984 248.03L273.778 264.824L273.778 315.221Z" fill="#6CC6C7"/>
<path d="M265.383 307.848L250.62 307.848L250.62 427.84L249.22 427.84L249.22 306.444L263.976 306.444L263.976 277.151C262.864 276.843 262.041 275.834 262.041 274.619C262.041 273.161 263.225 271.981 264.679 271.981C266.138 271.981 267.318 273.161 267.318 274.619C267.318 275.834 266.494 276.843 265.383 277.151L265.383 307.848Z" fill="#6CC6C7"/>
<path d="M259.66 302.176L244.9 302.176L244.9 430.718L243.497 430.718L243.497 300.772L258.257 300.772L258.257 268.378C257.142 268.069 256.322 267.06 256.322 265.846C256.322 264.391 257.502 263.208 258.96 263.208C260.415 263.208 261.598 264.391 261.598 265.846C261.598 267.06 260.775 268.073 259.66 268.378L259.66 302.176Z" fill="#6CC6C7"/>
<path d="M253.275 295.572L238.515 295.572L238.515 433.055L237.109 433.055L237.109 294.168L251.872 294.168L251.872 262.066C250.757 261.757 249.937 260.745 249.937 259.534C249.937 258.075 251.114 256.895 252.572 256.895C254.03 256.895 255.214 258.075 255.214 259.534C255.214 260.745 254.387 261.753 253.275 262.066L253.275 295.572Z" fill="#6CC6C7"/>
<path d="M246.489 277.948L231.729 277.948L231.729 395.055L230.326 395.055L230.326 276.545L245.082 276.545L245.082 227.074L231.729 227.074L231.729 265.665L237.297 265.665L237.297 243.471C236.186 243.162 235.362 242.15 235.362 240.935C235.362 239.481 236.542 238.304 238.001 238.304C239.459 238.304 240.639 239.481 240.639 240.935C240.639 242.153 239.816 243.165 238.701 243.471L238.701 267.072L230.326 267.072L230.326 225.668L246.489 225.668L246.489 277.948Z" fill="#6CC6C7"/>
<path d="M298.789 37.9357C298.789 36.4776 299.97 35.2974 301.428 35.2974C302.886 35.2974 304.066 36.4776 304.066 37.9357C304.066 39.1468 303.243 40.1589 302.131 40.4677L302.131 79.0413L318.922 95.8321L318.922 146.229L304.166 146.229L304.166 364.259L302.759 364.259L302.759 144.825L317.519 144.825L317.519 96.412L300.724 79.6211L300.724 40.4677C299.613 40.1589 298.789 39.1468 298.789 37.9357Z" fill="#6CC6C7"/>
<path d="M331.397 163.516C331.397 162.058 332.58 160.881 334.035 160.881C335.493 160.881 336.677 162.058 336.677 163.516C336.677 164.727 335.853 165.739 334.738 166.048L334.738 234.782L351.532 251.573L351.532 319.464L336.773 319.464L336.773 439.456L335.37 439.456L335.37 318.057L350.129 318.057L350.129 252.156L333.335 235.362L333.335 166.048C332.22 165.739 331.397 164.73 331.397 163.516Z" fill="#6CC6C7"/>
<path d="M329.019 181.484L329.019 237.661L345.81 254.452L345.81 313.793L331.054 313.793L331.053 442.335L329.65 442.335L329.65 312.39L344.407 312.39L344.407 255.035L327.616 238.241L327.616 181.484C326.501 181.178 325.677 180.166 325.677 178.955C325.677 177.497 326.861 176.313 328.316 176.313C329.77 176.313 330.954 177.497 330.954 178.955C330.954 180.166 330.131 181.175 329.019 181.484Z" fill="#6CC6C7"/>
<path d="M339.425 307.189L324.665 307.189L324.665 444.672L323.262 444.672L323.262 305.786L338.022 305.786L338.022 257.376L321.227 240.581L321.227 195.053C320.116 194.741 319.292 193.733 319.292 192.521C319.292 191.063 320.476 189.883 321.931 189.883C323.389 189.883 324.569 191.063 324.569 192.521C324.569 193.733 323.746 194.745 322.631 195.053L322.631 239.998L339.425 256.796L339.425 307.189Z" fill="#6CC6C7"/>
<path d="M111.387 142.046C111.387 140.588 112.567 139.408 114.022 139.408C115.48 139.408 116.664 140.588 116.664 142.046C116.664 143.257 115.84 144.266 114.725 144.578L114.725 192.024L131.519 208.818L131.519 302.437L173.232 302.437L173.232 479.853L171.832 479.853L171.832 303.841L130.116 303.841L130.116 209.398L113.322 192.607L113.322 144.578C112.207 144.269 111.387 143.257 111.387 142.046Z" fill="#6CC6C7"/>
<path d="M105.668 153.8C105.668 152.346 106.844 151.162 108.306 151.162C109.761 151.162 110.941 152.346 110.941 153.8C110.941 155.012 110.121 156.024 109.006 156.332L109.006 194.903L125.8 211.697L125.8 308.87L167.516 308.87L167.516 479.853L166.11 479.853L166.11 310.273L124.397 310.273L124.397 212.277L107.606 195.482L107.606 156.332C106.488 156.024 105.668 155.012 105.668 153.8Z" fill="#6CC6C7"/>
<path d="M97.3135 199.697C97.3135 198.239 98.4937 197.059 99.9518 197.059C101.41 197.059 102.59 198.239 102.59 199.697C102.59 200.912 101.767 201.921 100.652 202.229L100.652 249.679L117.446 266.473L117.446 334.36L102.686 334.36L102.686 454.353L101.283 454.353L101.283 332.957L116.043 332.957L116.043 267.053L99.2485 250.259L99.2485 202.229C98.1334 201.921 97.3135 200.909 97.3135 199.697Z" fill="#6CC6C7"/>
<path d="M91.5941 211.453C91.5941 209.998 92.7743 208.814 94.229 208.814C95.6871 208.814 96.8673 209.998 96.8673 211.453C96.8673 212.667 96.0439 213.679 94.9289 213.988L94.9289 252.558L111.727 269.353L111.727 328.69L96.9668 328.69L96.9668 457.229L95.5602 457.229L95.5602 327.287L110.32 327.287L110.32 269.932L93.5291 253.138L93.5291 213.988C92.414 213.679 91.5941 212.667 91.5941 211.453Z" fill="#6CC6C7"/>
<path d="M85.2056 213.793C85.2056 212.338 86.3893 211.155 87.844 211.155C89.2987 211.155 90.4823 212.338 90.4823 213.793C90.4823 215.004 89.6589 216.016 88.5439 216.325L88.5439 254.899L105.338 271.693L105.338 322.086L90.5784 322.086L90.5784 459.572L89.1751 459.572L89.1751 320.683L103.935 320.683L103.935 272.273L87.1441 255.482L87.1441 216.325C86.0256 216.016 85.2056 215.004 85.2056 213.793Z" fill="#6CC6C7"/>
<path d="M162.411 335.362C162.411 336.821 161.227 338.001 159.769 338.001C158.558 338.001 157.546 337.177 157.237 336.062L144.708 336.062L144.708 358.408L161.499 375.202L161.499 443.089L146.742 443.089L146.742 563.085L145.339 563.085L145.339 441.686L160.099 441.686L160.099 375.785L143.304 358.988L143.304 334.659L157.237 334.659C157.55 333.548 158.558 332.724 159.769 332.724C161.227 332.724 162.411 333.908 162.411 335.362Z" fill="#6CC6C7"/>
<path d="M155.783 437.419L141.019 437.419L141.019 565.961L139.616 565.961L139.616 436.016L154.376 436.016L154.376 378.661L137.582 361.87L137.582 326.529L146.948 326.529C147.257 325.417 148.269 324.594 149.48 324.594C150.938 324.594 152.118 325.777 152.118 327.232C152.118 328.687 150.938 329.87 149.48 329.87C148.269 329.87 147.257 329.047 146.948 327.932L138.985 327.932L138.985 361.287L155.783 378.081L155.783 437.419Z" fill="#6CC6C7"/>
<path d="M149.394 430.818L134.634 430.818L134.634 568.301L133.235 568.301L133.235 429.411L147.991 429.411L147.991 381.001L131.197 364.21L131.197 319.578C130.082 319.269 129.262 318.26 129.262 317.046C129.262 315.591 130.442 314.407 131.9 314.407C133.355 314.407 134.538 315.591 134.538 317.046C134.538 318.257 133.715 319.269 132.6 319.578L132.6 363.627L149.394 380.425L149.394 430.818Z" fill="#6CC6C7"/>
<path d="M105.942 341.265L122.105 341.265L122.105 393.545L107.345 393.545L107.345 510.648L105.942 510.648L105.942 392.138L120.702 392.138L120.702 342.668L107.345 342.668L107.345 381.266L112.917 381.266L112.917 359.068C111.802 358.756 110.979 357.747 110.979 356.536C110.979 355.078 112.162 353.898 113.617 353.898C115.072 353.898 116.255 355.078 116.255 356.536C116.255 357.747 115.432 358.759 114.32 359.068L114.32 382.666L105.942 382.666L105.942 341.265Z" fill="#6CC6C7"/>
<path d="M204.464 206.865L187.673 190.075L187.673 136.872L189.076 136.872L189.076 189.491L205.867 206.286L205.867 272.265L193.053 272.265L193.053 361.438L206.646 374.067L206.646 415.022L191.752 415.022L191.752 477.213C192.867 477.522 193.687 478.538 193.687 479.749C193.687 481.204 192.507 482.384 191.049 482.384C189.594 482.384 188.414 481.204 188.414 479.749C188.414 478.534 189.234 477.522 190.349 477.213L190.349 413.618L205.243 413.618L205.243 374.678L191.649 362.045L191.649 270.859L204.464 270.859L204.464 206.865Z" fill="#6CC6C7"/>
<path d="M198.744 207.006L181.95 190.215L181.95 145.888L183.353 145.888L183.353 189.632L200.147 206.426L200.147 265.764L185.388 265.764L185.388 365.068L200.147 379.982L200.147 408.163L185.364 408.163L185.364 500.355C186.479 500.664 187.302 501.672 187.302 502.884C187.302 504.345 186.122 505.525 184.664 505.525C183.206 505.525 182.025 504.345 182.025 502.884C182.025 501.676 182.849 500.664 183.96 500.355L183.96 406.757L198.744 406.757L198.744 380.555L183.985 365.648L183.985 264.357L198.744 264.357L198.744 207.006Z" fill="#6CC6C7"/>
<path d="M174.405 153.529C174.405 152.071 175.586 150.895 177.044 150.895C178.502 150.895 179.682 152.071 179.682 153.529C179.682 154.744 178.862 155.753 177.747 156.061L177.747 194.635L194.538 211.426L194.538 261.822L179.782 261.822L179.782 479.853L178.375 479.853L178.375 260.419L193.135 260.419L193.135 212.009L176.344 195.215L176.344 156.061C175.229 155.753 174.405 154.744 174.405 153.529Z" fill="#6CC6C7"/>
<path d="M207.02 279.11C207.02 277.655 208.197 276.475 209.655 276.475C211.109 276.475 212.293 277.655 212.293 279.11C212.293 280.324 211.47 281.333 210.355 281.645L210.355 350.377L213.559 353.581L213.559 205.085L228.319 205.085L228.319 156.675L211.525 139.884L211.525 100.727C210.409 100.422 209.589 99.4097 209.589 98.1986C209.589 96.7405 210.77 95.5602 212.228 95.5602C213.683 95.5602 214.866 96.7405 214.866 98.1986C214.866 99.4097 214.043 100.418 212.928 100.727L212.928 139.301L229.722 156.095L229.722 206.492L214.962 206.492L214.962 354.984L219.944 359.969L219.944 211.689L234.704 211.689L234.704 154.338L217.913 137.541L217.913 98.3873C216.798 98.082 215.974 97.0698 215.974 95.8587C215.974 94.4006 217.158 93.217 218.613 93.217C220.071 93.217 221.248 94.4006 221.248 95.8587C221.248 97.0698 220.428 98.082 219.313 98.3873L219.313 136.961L236.107 153.755L236.107 213.093L221.351 213.093L221.351 361.373L225.667 365.692L225.667 217.361L240.426 217.361L240.426 151.456L223.632 134.666L223.632 86.6331C222.517 86.3243 221.694 85.3156 221.694 84.1045C221.694 82.6464 222.877 81.4627 224.335 81.4627C225.79 81.4627 226.97 82.6464 226.97 84.1045C226.97 85.3156 226.15 86.3243 225.035 86.6331L225.035 134.082L241.826 150.877L241.826 218.767L227.066 218.767L227.066 367.092L227.149 367.171L227.149 435.058L212.389 435.058L212.389 555.054L210.986 555.054L210.986 433.655L225.746 433.655L225.746 367.751L208.951 350.956L208.951 281.645C207.84 281.333 207.02 280.321 207.02 279.11Z" fill="#6CC6C7"/>
<path d="M204.635 297.084L204.635 353.255L221.43 370.049L221.43 429.387L206.67 429.387L206.67 557.929L205.267 557.929L205.267 427.983L220.026 427.983L220.026 370.629L203.232 353.838L203.232 297.084C202.117 296.776 201.294 295.763 201.294 294.549C201.294 293.091 202.477 291.911 203.932 291.911C205.39 291.911 206.574 293.091 206.574 294.549C206.574 295.76 205.747 296.772 204.635 297.084Z" fill="#6CC6C7"/>
<path d="M215.041 422.782L200.281 422.782L200.281 560.269L198.878 560.269L198.878 421.379L213.638 421.379L213.638 372.972L196.844 356.178L196.844 310.647C195.732 310.338 194.909 309.329 194.909 308.118C194.909 306.66 196.092 305.476 197.55 305.476C199.002 305.476 200.185 306.66 200.185 308.118C200.185 309.329 199.362 310.338 198.247 310.647L198.247 355.595L215.041 372.389L215.041 422.782Z" fill="#6CC6C7"/>
<path d="M20.1112 158.284C20.1112 156.822 21.288 155.642 22.7461 155.642C24.2042 155.642 25.3845 156.822 25.3845 158.284C25.3845 159.495 24.5645 160.507 23.4495 160.813L23.4495 208.262L33.1178 217.934L33.1178 176.804C32.0027 176.495 31.1793 175.483 31.1793 174.272C31.1793 172.814 32.3595 171.634 33.8211 171.634C35.2758 171.634 36.456 172.814 36.456 174.272C36.456 175.483 35.636 176.495 34.521 176.804L34.521 219.337L38.837 223.653L38.837 198.909C37.7254 198.6 36.902 197.592 36.902 196.377C36.902 194.923 38.0823 193.739 39.5404 193.739C40.9951 193.739 42.1787 194.923 42.1787 196.377C42.1787 197.592 41.3519 198.6 40.2403 198.909L40.2403 225.056L40.2403 244.142L40.2403 292.947L25.4806 292.947L25.4806 412.936L24.0773 412.936L24.0773 291.54L38.837 291.54L38.837 244.142L38.837 225.636L22.0428 208.842L22.0428 160.813C20.9312 160.504 20.1112 159.492 20.1112 158.284Z" fill="#6CC6C7"/>
<path d="M14.3885 170.038C14.3885 168.579 15.5687 167.399 17.0269 167.399C18.4816 167.399 19.6652 168.579 19.6652 170.038C19.6652 171.249 18.8418 172.257 17.7267 172.57L17.7267 211.14L34.521 227.934L34.521 287.271L19.7613 287.271L19.7613 415.813L18.358 415.813L18.358 285.868L33.1178 285.868L33.1178 228.517L16.3235 211.72L16.3235 172.57C15.2119 172.257 14.3885 171.249 14.3885 170.038Z" fill="#6CC6C7"/>
<path d="M8.00004 172.375C8.00004 170.92 9.18372 169.737 10.6419 169.737C12.0966 169.737 13.2802 170.92 13.2802 172.375C13.2802 173.586 12.4568 174.598 11.3417 174.91L11.3417 213.481L28.136 230.275L28.136 280.668L13.3763 280.668L13.3763 418.154L11.9696 418.154L11.9696 279.265L26.7293 279.265L26.7293 230.855L9.9385 214.064L9.93851 174.91C8.82346 174.602 8.00004 173.586 8.00004 172.375Z" fill="#6CC6C7"/>
<path d="M67.5057 316.992L84.2965 333.786L84.2965 401.677L69.5367 401.677L69.5367 521.669L68.1335 521.669L68.1335 400.273L82.8932 400.273L82.8932 334.369L66.099 317.575L66.099 293.247L92.9629 293.247C93.2717 292.132 94.2873 291.308 95.4949 291.308C96.9531 291.308 98.1333 292.488 98.1333 293.95C98.1333 295.405 96.9531 296.585 95.4949 296.585C94.2838 296.585 93.2717 295.761 92.9629 294.65L67.5057 294.65L67.5057 316.992Z" fill="#6CC6C7"/>
<path d="M77.1738 337.248L60.3796 320.454L60.3796 285.112L82.6735 285.112C82.9823 284 83.9944 283.177 85.2056 283.177C86.6637 283.177 87.8439 284.357 87.8439 285.815C87.8439 287.273 86.6637 288.45 85.2056 288.45C83.9944 288.45 82.9823 287.63 82.6735 286.515L61.7828 286.515L61.7828 319.874L78.5771 336.665L78.5771 396.002L63.8173 396.002L63.8173 524.544L62.414 524.544L62.4141 394.599L77.1738 394.599L77.1738 337.248Z" fill="#6CC6C7"/>
<path d="M52.0562 258.305C52.0562 256.847 53.2364 255.667 54.6946 255.667C56.1527 255.667 57.3364 256.847 57.3364 258.305C57.3364 259.52 56.5095 260.525 55.3979 260.834L55.3979 322.213L72.1887 339.003L72.1887 389.4L57.429 389.4L57.429 526.883L56.0292 526.883L56.0292 387.993L70.7855 387.993L70.7855 339.583L53.9912 322.792L53.9912 260.834C52.8796 260.525 52.0562 259.516 52.0562 258.305Z" fill="#6CC6C7"/>
<path d="M63.7934 382.027L49.0336 382.027L49.0336 502.02L47.6304 502.02L47.6304 380.624L62.3901 380.624L62.3901 351.331C61.2751 351.026 60.4551 350.014 60.4551 348.799C60.4551 347.344 61.6354 346.161 63.0901 346.161C64.5482 346.161 65.7284 347.344 65.7284 348.799C65.7284 350.014 64.9084 351.022 63.7934 351.331L63.7934 382.027Z" fill="#6CC6C7"/>
<path d="M58.0741 376.357L43.3144 376.357L43.3144 504.896L41.9112 504.896L41.9112 374.954L56.6709 374.954L56.6709 342.559C55.5558 342.254 54.7324 341.242 54.7324 340.031C54.7324 338.572 55.9161 337.392 57.3708 337.392C58.8289 337.392 60.0092 338.572 60.0092 340.031C60.0092 341.242 59.1892 342.254 58.0741 342.559L58.0741 376.357Z" fill="#6CC6C7"/>
<path d="M48.3474 333.713C48.3474 332.255 49.5277 331.078 50.9858 331.078C52.444 331.078 53.6242 332.255 53.6242 333.713C53.6242 334.924 52.8008 335.936 51.6857 336.245L51.6857 369.751L36.926 369.751L36.926 507.234L35.5227 507.234L35.5227 368.348L50.2859 368.348L50.2859 336.245C49.1709 335.936 48.3474 334.924 48.3474 333.713Z" fill="#6CC6C7"/>
<path d="M28.7365 299.846L44.8994 299.846L44.8994 352.126L30.1397 352.126L30.1397 469.232L28.7365 469.232L28.7365 350.719L43.4962 350.719L43.4962 301.252L30.1397 301.252L30.1397 339.846L35.7115 339.846L35.7115 317.648C34.5999 317.34 33.773 316.328 33.773 315.116C33.773 313.658 34.9601 312.478 36.4148 312.478C37.8695 312.478 39.0532 313.658 39.0532 315.116C39.0532 316.331 38.2263 317.34 37.1147 317.648L37.1147 341.25L28.7365 341.25L28.7365 299.846Z" fill="#6CC6C7"/>
</g>
</svg>
