<svg width="736" height="450" viewBox="0 0 736 450" fill="none" xmlns="http://www.w3.org/2000/svg">
<g style="mix-blend-mode:multiply" opacity="0.541">
<g style="mix-blend-mode:multiply" opacity="0.541">
<g style="mix-blend-mode:multiply" opacity="0.541">
<path d="M649.263 234.291C648.253 235.671 646.333 236.051 644.883 235.111C643.383 234.151 642.943 232.141 643.913 230.631C651.463 218.861 655.273 202.921 653.393 190.961C651.433 178.521 645.033 168.751 633.243 160.161C631.793 159.111 631.483 157.091 632.533 155.621C633.583 154.181 635.613 153.871 637.063 154.911C650.333 164.581 657.563 175.721 659.793 189.961C661.943 203.581 657.853 220.931 649.373 234.141C649.333 234.191 649.303 234.241 649.263 234.291Z" fill="#D1CBB9"/>
</g>
</g>
<g style="mix-blend-mode:multiply" opacity="0.541">
<g style="mix-blend-mode:multiply" opacity="0.541">
<path d="M661.073 242.902C660.073 244.262 658.183 244.642 656.733 243.742C655.203 242.782 654.743 240.782 655.693 239.262C686.263 190.162 655.713 160.222 641.173 149.622C635.503 145.502 629.983 147.752 627.033 151.812C624.343 155.502 623.863 160.862 628.843 164.482C655.593 183.962 650.683 210.652 638.333 227.592C637.283 229.042 635.253 229.372 633.803 228.312C632.363 227.252 632.033 225.222 633.083 223.762C636.923 218.512 654.533 191.212 625.033 169.732C616.843 163.772 617.193 154.282 621.783 148.002C626.623 141.332 636.163 137.962 644.993 144.382C657.493 153.482 695.583 187.452 661.203 242.702C661.163 242.762 661.113 242.832 661.073 242.902Z" fill="#D1CBB9"/>
</g>
</g>
<g style="mix-blend-mode:multiply" opacity="0.541">
<g style="mix-blend-mode:multiply" opacity="0.541">
<path d="M714.043 147.751C713.943 147.881 713.833 148.001 713.713 148.131C690.953 170.831 672.823 157.061 655.293 143.731C652.663 141.741 649.983 139.701 647.233 137.731C635.393 129.251 621.983 134.761 614.823 144.611C614.783 144.641 614.773 144.671 614.753 144.701C608.343 153.571 606.953 166.231 618.303 174.491C646.003 194.671 633.163 212.301 627.683 219.821C626.623 221.271 624.593 221.601 623.143 220.551C621.693 219.491 621.373 217.461 622.443 216.011C628.213 208.081 636.943 196.091 614.473 179.741C599.593 168.911 601.463 152.011 609.493 140.891C609.513 140.861 609.543 140.821 609.563 140.781C618.623 128.341 635.733 121.501 651.003 132.461C653.813 134.461 656.533 136.531 659.213 138.571C677.313 152.311 690.373 162.231 709.123 143.541C710.403 142.271 712.443 142.271 713.723 143.541C714.853 144.691 714.963 146.481 714.043 147.751Z" fill="#D1CBB9"/>
</g>
</g>
<g style="mix-blend-mode:multiply" opacity="0.541">
<g style="mix-blend-mode:multiply" opacity="0.541">
<path d="M702.403 139.271C694.203 150.521 683.983 147.781 679.723 144.751L651.823 124.431C642.843 117.901 618.143 117.181 604.713 135.631C592.883 151.861 594.603 174.111 608.463 184.211C624.703 196.031 621.993 204.451 616.643 211.801C615.593 213.251 613.563 213.571 612.113 212.511C610.663 211.461 610.343 209.421 611.403 207.981C614.593 203.611 617.873 199.081 604.633 189.451C587.933 177.291 585.573 150.881 599.463 131.801C614.773 110.771 643.423 110.281 655.643 119.191L683.513 139.481C684.663 140.271 690.973 143.941 697.153 135.441C698.203 134.001 700.243 133.691 701.693 134.731C703.133 135.791 703.463 137.811 702.403 139.271Z" fill="#D1CBB9"/>
</g>
</g>
<g style="mix-blend-mode:multiply" opacity="0.541">
<g style="mix-blend-mode:multiply" opacity="0.541">
<path d="M691.333 131.211C690.283 132.661 688.243 132.981 686.813 131.921L662.623 114.321C662.413 114.161 646.103 102.071 626.713 104.941C614.253 106.801 603.113 114.391 593.553 127.501C563.783 168.411 603.143 197.951 604.833 199.181C606.283 200.241 606.593 202.271 605.543 203.711C605.543 203.721 605.543 203.721 605.543 203.721C604.483 205.161 602.463 205.481 601.013 204.421C600.553 204.091 554.683 169.871 588.313 123.681C598.953 109.081 611.563 100.621 625.823 98.5115C647.953 95.2615 665.743 108.541 666.493 109.101L690.623 126.681C692.073 127.741 692.393 129.761 691.333 131.211Z" fill="#D1CBB9"/>
</g>
</g>
<g style="mix-blend-mode:multiply" opacity="0.541">
<g style="mix-blend-mode:multiply" opacity="0.541">
<path d="M722.743 158.281C715.253 168.561 703.573 172.121 697.093 173.341C688.113 175.031 679.313 174.141 675.183 171.131C673.733 170.081 673.413 168.041 674.473 166.601C675.533 165.161 677.563 164.831 679.003 165.891C680.933 167.291 687.453 168.561 695.873 166.971C701.683 165.891 712.333 162.621 718.393 153.151C719.423 151.621 721.363 151.211 722.873 152.171C724.383 153.141 724.823 155.151 723.843 156.651C723.493 157.221 723.123 157.761 722.743 158.281Z" fill="#D1CBB9"/>
</g>
</g>
<g style="mix-blend-mode:multiply" opacity="0.541">
<g style="mix-blend-mode:multiply" opacity="0.541">
<path d="M729.653 170.412C724.053 178.112 713.483 181.252 704.163 184.042C696.753 186.262 689.753 188.352 687.043 192.062C684.923 194.972 684.713 201.432 684.493 208.282C684.143 219.532 683.703 233.512 675.333 244.992C674.283 246.442 672.253 246.772 670.803 245.722C669.353 244.662 669.033 242.622 670.093 241.182C677.283 231.312 677.673 218.962 678.013 208.072C678.273 199.862 678.493 192.782 681.793 188.232C685.793 182.762 693.813 180.362 702.303 177.822C711.053 175.212 720.083 172.512 724.413 166.582C725.473 165.132 727.493 164.812 728.943 165.872C730.393 166.932 730.703 168.952 729.653 170.412Z" fill="#D1CBB9"/>
</g>
</g>
<g style="mix-blend-mode:multiply" opacity="0.541">
<g style="mix-blend-mode:multiply" opacity="0.541">
<path d="M734.593 184.282C732.043 187.792 726.073 189.742 718.483 192.192C711.363 194.502 702.473 197.392 699.543 201.422C696.703 205.312 695.883 214.832 695.153 223.232C694.343 232.522 693.643 240.542 690.553 244.792C689.493 246.242 687.463 246.562 686.013 245.492C684.563 244.442 684.243 242.412 685.303 240.962C687.333 238.172 688.053 229.932 688.683 222.662C689.533 212.972 690.403 202.952 694.293 197.602C698.463 191.872 708.043 188.772 716.483 186.022C721.633 184.342 728.023 182.272 729.353 180.472C730.413 179.022 732.433 178.702 733.883 179.752C735.333 180.822 735.653 182.832 734.593 184.282Z" fill="#D1CBB9"/>
</g>
</g>
<g style="mix-blend-mode:multiply" opacity="0.541">
<g style="mix-blend-mode:multiply" opacity="0.541">
<path d="M733.743 200.971C731.353 204.251 726.353 205.411 721.063 206.641C717.083 207.571 712.133 208.721 710.653 210.621C710.633 210.651 710.633 210.671 710.603 210.681C709.113 212.731 709.123 218.631 709.123 223.371C709.143 229.471 709.143 234.751 706.883 237.861C705.823 239.311 703.793 239.631 702.353 238.571C700.893 237.511 700.583 235.491 701.623 234.041C702.653 232.641 702.643 227.291 702.643 223.391C702.623 217.101 702.633 210.621 705.373 206.851C705.423 206.781 705.473 206.721 705.523 206.651C708.413 202.931 714.093 201.601 719.593 200.321C722.933 199.541 727.523 198.481 728.493 197.151C729.543 195.701 731.563 195.381 733.033 196.441C734.473 197.491 734.793 199.521 733.743 200.971Z" fill="#D1CBB9"/>
</g>
</g>
<g style="mix-blend-mode:multiply" opacity="0.541">
<g style="mix-blend-mode:multiply" opacity="0.541">
<path d="M730.343 216.312C728.673 218.612 725.933 218.532 724.113 218.482C723.493 218.462 722.433 218.432 722.123 218.582C722.063 218.912 722.443 220.662 722.643 221.522C723.063 223.452 723.553 225.652 722.223 227.472C721.173 228.912 719.133 229.232 717.693 228.182C716.473 227.282 716.063 225.702 716.583 224.362C716.543 223.982 716.393 223.362 716.293 222.922C715.783 220.552 715.063 217.322 717.013 214.642C719.043 211.852 722.333 211.942 724.293 211.992C724.673 212.012 725.203 212.022 725.553 212.002C726.663 210.992 728.363 210.862 729.633 211.782C731.073 212.842 731.393 214.862 730.343 216.312Z" fill="#D1CBB9"/>
</g>
</g>
</g>
<path style="mix-blend-mode:multiply" opacity="0.788" fill-rule="evenodd" clip-rule="evenodd" d="M567.194 221.31V226.71C562.964 226.65 557.654 225.63 553.004 223.44C547.844 221.07 541.874 218.49 535.904 216.93C534.224 220.05 530.534 222.21 526.214 222.21C521.924 222.21 518.204 220.05 516.524 216.93C510.554 218.49 504.584 221.07 499.454 223.44C498.944 223.68 498.434 223.89 497.924 224.1C497.474 224.28 496.994 224.46 496.514 224.61C495.434 225.03 494.324 225.36 493.214 225.63C492.734 225.75 492.224 225.87 491.744 225.99C490.244 226.29 488.804 226.5 487.394 226.62C486.794 226.68 486.224 226.71 485.684 226.71C484.514 226.77 483.434 226.74 482.444 226.65C478.664 226.35 474.884 225.3 471.104 223.8L479.804 237.9L480.704 239.37L490.034 254.49L492.374 258.3C492.434 258.42 492.494 258.54 492.494 258.66H495.014V262.23H491.624C490.124 265.56 487.724 268.47 484.634 270.72C480.194 274.05 474.374 276.03 468.014 276.03C457.214 276.03 448.004 270.33 444.344 262.23H440.954V258.66H443.504C443.504 258.54 443.534 258.42 443.594 258.3L466.244 221.64C465.884 221.49 465.584 221.31 465.254 221.16C464.594 221.46 463.814 221.61 463.034 221.61C460.274 221.61 458.054 219.72 458.054 217.41C458.054 216.69 458.264 216 458.654 215.4C459.464 214.08 461.114 213.18 463.034 213.18C465.764 213.18 468.014 215.04 468.014 217.41C468.014 217.68 467.954 217.95 467.894 218.22C472.304 220.14 476.594 221.25 481.874 221.46H482.084C484.484 221.55 486.734 221.22 488.864 220.62C489.554 220.44 490.214 220.23 490.844 219.99C491.144 219.9 491.444 219.78 491.744 219.69C492.254 219.48 492.734 219.3 493.214 219.09C493.334 219.03 493.424 219 493.544 218.94C493.994 218.76 494.444 218.55 494.894 218.34C496.424 217.62 497.924 216.81 499.454 216.03C504.464 213.39 510.464 210.93 516.434 209.46C517.394 207.57 519.104 206.04 521.204 205.08V197.22L452.084 204.9L450.044 205.14C449.294 205.23 448.574 205.26 447.824 205.26C447.314 205.26 446.744 205.23 446.204 205.17C444.554 204.99 442.934 204.63 441.314 204.03L439.034 203.16L434.774 201.57L415.814 194.55L388.544 184.44L380.204 181.35V181.44L385.784 193.74L386.354 195.03L385.814 198.45L384.194 208.74L383.234 215.04L380.234 234.06L380.204 234.3L376.514 244.32L372.764 254.49L372.644 254.82H372.614L367.934 257.58V268.74L382.664 297.27L390.014 368.91L373.814 450H264.614L264.434 449.16L263.954 446.64L259.544 423.18L257.624 412.92L254.204 394.71L254.174 394.68L205.754 336.63L178.694 304.17L166.514 311.31L163.274 313.2L158.954 307.86L162.734 305.64L176.204 297.78L170.144 290.28C165.914 291.15 161.354 290.64 157.424 288.72C156.374 288.21 155.384 287.58 154.454 286.86C153.524 286.11 152.684 285.3 151.994 284.43V284.4C149.984 281.91 148.934 279.03 148.934 276.12C148.934 274.41 149.294 272.73 150.014 271.11L150.074 271.02C150.524 269.91 151.184 268.83 152.024 267.81L145.544 259.77L157.604 252.72L161.954 258.15L162.074 258.3L209.174 214.8C209.654 214.35 210.074 214.02 210.584 213.69L210.614 213.66L210.764 213.48L248.924 159.51L248.834 158.85V158.82L248.444 156.27L247.724 151.62C251.024 148.65 254.444 145.8 258.374 143.43C258.704 143.19 259.064 143.01 259.394 142.8C259.814 143.13 260.234 143.46 260.684 143.79C261.404 144.36 262.124 144.9 262.814 145.44C263.504 145.05 264.374 144.66 265.454 144.33H265.544C268.124 143.4 271.844 142.68 276.914 142.68C281.024 142.68 284.384 141.9 287.174 140.64C287.534 140.46 287.864 140.28 288.194 140.1C288.494 139.95 288.764 139.8 289.004 139.62C289.394 139.41 289.784 139.14 290.174 138.87C290.504 138.63 290.804 138.39 291.134 138.12C291.494 137.82 291.914 137.46 292.244 137.13C292.574 136.8 292.934 136.44 293.234 136.05C293.264 136.05 293.264 136.05 293.264 136.02C293.384 135.9 293.504 135.75 293.624 135.6C294.104 135.09 294.494 134.55 294.824 134.01C295.154 133.53 295.484 133.08 295.754 132.6C295.784 132.51 295.844 132.42 295.874 132.33C296.204 131.76 296.474 131.19 296.744 130.59C297.014 129.99 297.284 129.42 297.464 128.85C297.644 128.4 297.794 127.95 297.944 127.5C297.944 127.47 297.974 127.44 297.974 127.41C297.434 127.38 296.894 127.11 296.654 126.69H293.054L286.094 124.05L277.424 120.75L276.704 119.73L275.774 118.41L275.384 117.87C275.364 117.85 275.354 117.84 275.354 117.84L274.124 116.07L274.094 116.01L271.544 112.41L269.294 109.23L270.734 90.7803L271.934 75.7503V75.7203L272.114 73.3803L272.144 72.9003L273.254 71.7903H273.284L282.164 63.0003L288.164 57.0903L290.114 55.1703L290.144 55.1403L295.274 50.0703L304.214 48.8703L306.584 48.5703L316.844 52.5003H316.874L327.134 48.5703L338.444 50.0703H338.474L361.604 72.9003L364.394 109.23L364.334 108.99L364.364 109.23L356.324 120.75L340.634 126.69H335.594C335.594 126.57 335.564 126.45 335.564 126.33C335.504 126.36 335.474 126.39 335.414 126.42C335.444 126.63 335.504 126.81 335.564 126.99C335.774 127.8 336.044 128.55 336.374 129.33C336.584 129.9 336.824 130.47 337.124 131.04C338.264 133.53 339.914 135.87 342.164 137.82C342.464 138.06 342.764 138.33 343.124 138.57C343.274 138.72 343.454 138.84 343.634 138.96C343.814 139.08 343.964 139.2 344.144 139.29C344.684 139.65 345.224 139.98 345.794 140.25C345.794 140.27 345.804 140.28 345.824 140.28C346.394 140.58 346.994 140.85 347.624 141.09C348.044 141.24 348.494 141.42 348.944 141.57C349.394 141.72 349.844 141.81 350.324 141.93C351.764 142.29 353.324 142.53 355.034 142.62C355.604 142.65 356.174 142.68 356.774 142.68C361.064 142.68 364.364 143.19 366.854 143.88C368.444 142.38 369.914 140.73 371.054 139.08C372.194 139.65 373.484 140.04 374.534 140.46C377.534 141.72 380.474 142.98 383.474 144.27C383.594 144.3 383.774 144.36 383.894 144.42L385.994 145.32L385.034 151.35L419.324 164.07H419.354L437.114 170.64L445.814 173.85L450.644 175.65H450.674L459.044 174.72L521.204 167.85V163.35H531.224V167.16C538.874 167.88 545.264 172.95 546.314 179.73C547.574 187.74 540.944 195.06 531.554 196.08L531.224 196.11V205.08C533.324 206.04 535.004 207.57 535.964 209.43C541.994 210.93 547.994 213.39 553.004 216.03C557.534 218.43 562.004 220.74 567.194 221.31ZM567.194 250.62L562.244 258.66H567.194V269.85C564.644 267.75 562.604 265.14 561.314 262.23H557.954V258.66H560.444C560.444 258.54 560.504 258.42 560.534 258.3L567.194 247.5V250.62ZM277.394 270.48L278.414 268.74V257.61L270.884 253.41L269.084 252.42L266.564 251.01V236.4L256.274 205.65L238.904 230.16C237.854 231.69 236.474 232.98 234.944 234.03C234.764 234.21 234.614 234.39 234.404 234.57L219.074 248.7L181.994 282.96L188.264 290.7L206.264 280.17L210.584 285.51L194.444 294.96L207.824 311.94L252.014 368.1L258.374 302.85L277.394 270.48ZM467.144 223.23L445.304 258.66H467.144V223.23ZM468.824 223.23V258.66H490.694L488.114 254.49L479.804 241.05L478.904 239.58L468.824 223.23Z" fill="url(#paint0_linear_401_537)"/>
<g style="mix-blend-mode:multiply" opacity="0.651">
<g style="mix-blend-mode:multiply" opacity="0.651">
<path fill-rule="evenodd" clip-rule="evenodd" d="M151.244 74.5697L148.464 76.7897C148.074 76.0997 147.594 75.4397 147.054 74.7797C145.264 72.6597 143.014 71.1597 140.674 70.4197C140.474 71.6997 140.044 72.9297 139.394 74.0897C137.144 78.0697 132.844 80.3197 127.994 80.4697C128.264 83.0697 129.374 85.7297 131.284 88.0297C131.704 88.5397 132.154 89.0197 132.634 89.4097L129.844 91.6297C129.404 91.2097 128.984 90.7597 128.594 90.3097C126.024 87.2297 124.524 83.6697 124.194 80.1997C122.164 79.8397 120.064 79.0897 118.094 77.9797C114.324 75.8597 111.574 72.7497 110.104 69.3597C108.874 69.6397 107.594 69.7897 106.274 69.8097C105.354 69.8497 104.424 69.7897 103.554 69.6697C102.444 71.7897 100.834 73.7897 98.7639 75.4697C97.5339 76.4597 96.2439 77.2997 94.9139 77.9197C94.7839 80.6197 93.9139 83.4297 92.3339 85.9997L88.7739 84.9197C89.9639 83.1597 90.6839 81.2097 90.9339 79.3297C85.6339 80.5597 80.3039 79.2097 77.1339 75.3197C76.0239 73.9497 75.2539 72.3897 74.8339 70.7397C74.0239 71.2197 73.2739 71.8197 72.5239 72.4797C70.5639 74.2997 69.2039 76.5197 68.5439 78.7897L64.9939 77.7097C65.9439 74.9097 67.6539 72.1797 70.1339 69.9097C71.4839 68.6497 72.9439 67.6297 74.4739 66.8197H74.5039C74.6539 62.3097 77.0539 57.5197 81.2639 54.0497C84.3139 51.5697 87.8139 50.1597 91.2239 49.8297C93.9139 45.3697 99.4239 42.2897 105.854 42.1697C113.214 42.0497 119.524 45.9397 121.804 51.4197C125.004 51.2897 128.444 52.0997 131.644 53.8997C136.854 56.7997 140.144 61.6497 140.774 66.5197C144.034 67.4797 147.234 69.5097 149.744 72.5097C150.314 73.1697 150.814 73.8497 151.244 74.5697ZM90.7439 75.6197C90.3839 74.1197 89.6939 72.7797 88.6239 71.6097C86.1739 68.9797 82.4039 68.1697 78.6639 69.1297V69.1597C78.9939 70.4197 79.5639 71.6097 80.3939 72.6297C82.7939 75.5597 86.7739 76.5497 90.7439 75.6197ZM99.8439 68.8597C93.8039 66.8497 89.4839 61.9797 89.4039 56.2597C89.4039 55.4197 89.4539 54.6197 89.6439 53.8397C87.5139 54.2597 85.3939 55.2497 83.5039 56.7997C80.6339 59.1297 78.8939 62.2797 78.5139 65.3597C83.4839 64.1297 88.5039 65.2397 91.7639 68.7397C93.1739 70.2597 94.1039 72.0897 94.5439 74.0597C95.2339 73.7097 95.9239 73.2297 96.5539 72.7097C97.9239 71.5797 99.0339 70.2597 99.8439 68.8597ZM99.6339 56.8897C98.1939 55.1197 96.1939 54.0797 93.9539 53.7197C93.7439 54.5297 93.6439 55.3397 93.6439 56.1697C93.7139 60.3897 96.8139 63.9797 101.244 65.5097C102.084 62.4197 101.574 59.2497 99.6339 56.8897ZM117.584 52.1397C115.754 48.2997 111.214 45.6097 105.914 45.6997C101.784 45.7597 98.1639 47.4997 95.9539 50.0697C98.6739 50.6397 101.134 52.0397 102.924 54.1897C105.624 57.5197 106.214 61.9497 104.994 66.2297C105.414 66.2897 105.794 66.2897 106.214 66.2897C107.204 66.2497 108.154 66.1597 109.064 65.9597C108.554 63.1397 108.934 60.2697 110.344 57.7597C111.924 54.9797 114.504 53.0597 117.584 52.1397ZM118.484 55.9897C116.594 56.7397 115.044 58.0597 114.024 59.8497C113.214 61.2897 112.864 62.8997 112.944 64.5497C116.264 62.6997 118.484 59.5497 118.484 55.9897ZM136.524 69.8497C134.584 69.9397 132.694 70.6197 131.164 71.9097C129.674 73.1697 128.684 74.8397 128.264 76.6997C131.414 76.3097 134.184 74.6897 135.684 72.0297C136.074 71.3397 136.344 70.5897 136.524 69.8497ZM136.614 65.8697C136.014 62.4197 133.624 59.0397 129.914 56.9497C127.574 55.6297 125.034 55.0397 122.674 55.1197C122.734 55.3097 122.734 55.5097 122.734 55.7297C122.824 61.1097 119.174 65.8397 113.784 68.1997C114.804 70.8297 116.924 73.2597 119.824 74.9097C121.264 75.7097 122.764 76.2797 124.254 76.5497C124.674 73.4297 126.054 70.6497 128.444 68.6497C130.744 66.6997 133.624 65.8097 136.614 65.8697Z" fill="#D1CBB9"/>
</g>
<g style="mix-blend-mode:multiply" opacity="0.651">
<path d="M32.0139 182.13C28.5739 183.96 26.2139 187.61 26.2139 191.76C26.2139 192.39 26.2739 193.05 26.3939 193.65C5.5339 181.29 -5.0161 155.86 2.3339 131.6C7.2739 115.35 19.1539 103.12 33.7439 97.1602L33.0639 99.5002C31.8139 103.56 34.1439 107.9 38.2139 109.13L38.2739 109.16C27.2539 113.71 18.2839 122.98 14.5739 135.31C9.10389 153.5 16.7039 172.49 32.0139 182.13Z" fill="#D1CBB9"/>
</g>
<g style="mix-blend-mode:multiply" opacity="0.651">
<path fill-rule="evenodd" clip-rule="evenodd" d="M105.824 162.92C97.1839 191.53 66.9939 207.65 38.3939 199.01C37.3139 198.68 36.2339 198.32 35.2139 197.9C32.5839 197.09 30.7039 194.64 30.7039 191.76C30.7039 188.24 33.5739 185.33 37.1339 185.33C37.6439 185.33 38.1539 185.39 38.6239 185.54C39.1339 185.72 39.6139 185.9 40.1239 186.11C40.1439 186.11 40.1639 186.12 40.1839 186.14C40.8139 186.35 41.4739 186.56 42.1039 186.77C63.9039 193.35 86.9439 181.05 93.5639 159.24C98.1339 144.13 93.6439 128.52 83.2739 118.07H83.2339C78.5939 113.44 72.7639 109.82 66.0039 107.78C59.2739 105.75 52.4239 105.51 45.9839 106.79L39.5239 104.85C37.7939 104.34 36.8339 102.52 37.3439 100.78L43.8339 79.39C44.3339 77.68 46.1739 76.7 47.8739 77.23L98.0739 92.43C99.7839 92.94 100.744 94.77 100.234 96.47L95.4139 112.42C106.814 125.91 111.304 144.76 105.824 162.92ZM41.2639 191.71C41.2639 189.55 39.5239 187.82 37.3639 187.82C35.2439 187.82 33.5139 189.55 33.5139 191.71C33.5139 193.83 35.2439 195.56 37.3639 195.56C39.5239 195.56 41.2639 193.83 41.2639 191.71ZM83.6639 111.28C84.8239 111.61 86.0839 110.99 86.4439 109.79L87.7839 105.36C89.6739 105.06 91.2839 103.72 91.8939 101.8C92.3139 100.42 92.1239 99.05 91.4939 97.88C90.8639 96.75 89.8139 95.81 88.4739 95.4C87.0939 94.98 85.7239 95.18 84.5839 95.78C83.4139 96.41 82.4939 97.46 82.1039 98.81C81.6839 100.18 81.8639 101.56 82.4639 102.73C82.7339 103.2 83.0839 103.68 83.5039 104.07L82.1639 108.5C81.8039 109.67 82.4939 110.93 83.6639 111.28Z" fill="#D1CBB9"/>
</g>
<g style="mix-blend-mode:multiply" opacity="0.651">
<path d="M206.144 187.01C184.124 197.12 157.224 191.41 141.434 171.57C130.844 158.28 127.514 141.56 130.934 126.18L132.424 128.07C133.894 129.92 136.104 130.97 138.504 130.97C140.234 130.97 141.934 130.37 143.314 129.29C140.834 140.93 143.404 153.56 151.394 163.61C163.274 178.45 183.254 182.97 199.894 175.82C199.734 176.89 199.774 178 199.984 179.08C200.484 181.92 202.104 184.43 204.494 186.08C205.004 186.44 205.574 186.74 206.144 187.01Z" fill="#D1CBB9"/>
</g>
<g style="mix-blend-mode:multiply" opacity="0.651">
<path fill-rule="evenodd" clip-rule="evenodd" d="M217.364 180.16C216.494 180.84 215.604 181.53 214.684 182.16C212.514 183.87 209.404 184.02 207.034 182.37C204.144 180.37 203.394 176.35 205.424 173.46C205.694 173.04 206.024 172.65 206.404 172.35C206.864 172.02 207.314 171.72 207.764 171.39C207.764 171.39 207.784 171.38 207.824 171.36C208.334 171 208.864 170.58 209.404 170.13C227.214 155.95 230.144 129.98 215.964 112.15C206.114 99.8199 190.704 94.6499 176.254 97.2799H176.224C169.764 98.4799 163.484 101.23 157.974 105.63C152.444 109.99 148.364 115.53 145.774 121.58L140.504 125.76C139.094 126.9 137.064 126.66 135.924 125.25L122.014 107.78C120.874 106.37 121.114 104.31 122.524 103.2L163.514 70.5299C164.914 69.3999 166.984 69.6399 168.084 71.0399L178.494 84.0599C196.064 82.3499 214.134 89.3499 225.954 104.16C244.594 127.53 240.734 161.55 217.364 180.16ZM171.224 89.9499L168.324 86.3299C169.134 84.6299 168.984 82.4999 167.724 80.9499C166.834 79.8399 165.574 79.1799 164.284 79.0299C163.004 78.8799 161.634 79.2399 160.524 80.1099C159.414 81.0099 158.784 82.2299 158.624 83.5499C158.484 84.8299 158.844 86.2099 159.714 87.3199C160.604 88.4299 161.844 89.0499 163.154 89.1999C163.684 89.2599 164.284 89.2299 164.854 89.1099L167.724 92.7299C168.504 93.6899 169.884 93.8399 170.874 93.0899C171.834 92.3199 171.984 90.9099 171.224 89.9499ZM212.964 173.66C211.234 172.44 208.814 172.89 207.584 174.65C206.384 176.42 206.834 178.81 208.564 180.04C210.324 181.24 212.754 180.81 213.954 179.05C215.184 177.28 214.734 174.86 212.964 173.66Z" fill="#D1CBB9"/>
</g>
</g>
<path opacity="0.839" fill-rule="evenodd" clip-rule="evenodd" d="M515.954 254.49V258.12H513.014C509.864 266.37 501.854 272.19 492.494 272.19C489.734 272.19 487.064 271.68 484.634 270.72C478.994 268.62 474.464 264.21 472.184 258.66C472.094 258.48 472.004 258.3 471.944 258.12H469.034V254.49H471.194C471.194 254.34 471.254 254.22 471.284 254.13L478.904 239.58L479.804 237.9L485.684 226.71L488.864 220.62L489.914 218.61C487.244 219.9 484.574 220.89 481.874 221.46C481.094 221.61 480.284 221.73 479.504 221.82C475.604 222.21 469.724 221.28 464.714 218.55C462.824 217.5 460.784 216.42 458.654 215.4C455.834 214.02 452.834 212.76 449.894 211.86C448.454 215.04 445.214 217.26 441.464 217.26C437.744 217.26 434.504 215.04 433.034 211.86C427.874 213.45 422.684 216.09 418.214 218.55C413.234 221.28 407.354 222.21 403.454 221.82C400.154 221.49 396.884 220.41 393.614 218.88L412.064 254.13C412.124 254.22 412.184 254.34 412.184 254.49H414.374V258.12H411.434C408.254 266.37 400.274 272.19 390.914 272.19C381.554 272.19 373.544 266.37 370.364 258.12H367.424V254.49H369.644C369.644 254.34 369.674 254.22 369.704 254.13L380.234 234.06L389.354 216.69C389.084 216.54 388.814 216.36 388.514 216.21C387.944 216.48 387.284 216.66 386.594 216.66C385.214 216.66 384.014 216.03 383.234 215.04C382.634 214.32 382.274 213.36 382.274 212.34C382.274 210.84 383.024 209.52 384.194 208.74C384.884 208.32 385.694 208.05 386.594 208.05C388.964 208.05 390.914 209.97 390.914 212.34C390.914 212.64 390.854 212.91 390.824 213.18C394.694 215.19 398.474 216.33 403.124 216.51C408.854 216.72 413.474 213.87 418.214 210.96C422.564 208.29 427.784 205.74 432.974 204.24C433.424 203.22 434.024 202.32 434.774 201.57C435.464 200.85 436.244 200.25 437.114 199.8V157.2H445.814V199.8C447.644 200.76 449.114 202.32 449.954 204.21C450.674 204.42 451.364 204.66 452.084 204.9C456.584 206.43 460.964 208.65 464.714 210.96C469.484 213.87 474.104 216.72 479.804 216.51C484.634 216.33 488.504 215.1 492.524 213C492.494 212.79 492.494 212.58 492.494 212.34C492.494 209.97 494.414 208.05 496.784 208.05C499.184 208.05 501.074 209.97 501.074 212.34C501.074 214.74 499.184 216.66 496.784 216.66C496.004 216.66 495.254 216.45 494.624 216.09C494.384 216.21 494.174 216.36 493.934 216.48L494.894 218.34L497.924 224.1L513.674 254.13C513.734 254.22 513.764 254.34 513.764 254.49H515.954ZM390.164 218.31L376.514 244.32L371.174 254.49H390.164V218.31ZM391.634 218.31V254.49H410.624L391.634 218.31ZM472.754 254.49H491.744V218.31L490.844 219.99L487.394 226.62L480.704 239.37L479.804 241.05L472.754 254.49ZM512.204 254.49L496.514 224.61L493.544 218.94L493.214 218.31V254.49H512.204Z" fill="#F2F2F2"/>
<path d="M387.334 191.01C384.044 198.56 375.274 201.99 367.734 198.7L302.294 170.16C294.754 166.88 291.304 158.1 294.594 150.57C297.874 143.03 306.664 139.59 314.184 142.87L379.644 171.42C387.174 174.7 390.614 183.47 387.334 191.01Z" fill="#E5E5E5"/>
<path d="M458.934 173.91C459.994 182.07 454.264 189.53 446.104 190.59L375.304 199.82C367.154 200.89 359.684 195.14 358.614 186.98C357.554 178.84 363.304 171.37 371.454 170.3L442.264 161.08C450.414 160.02 457.874 165.76 458.934 173.91Z" fill="#E5E5E5"/>
<path d="M223.684 143.77C230.734 148 232.994 157.15 228.754 164.19L191.934 225.37C187.694 232.41 178.564 234.68 171.514 230.45C164.464 226.21 162.194 217.07 166.434 210.02L203.254 148.84C207.494 141.8 216.634 139.52 223.684 143.77Z" fill="#F5F5F5"/>
<path d="M303.994 265.59H226.244V252.42H303.994V265.59Z" fill="#F2F2F2"/>
<path d="M323.174 367.02L309.074 450H214.274L209.864 422.49L208.154 411.96L205.184 393.39V393.33L202.454 376.26L203.294 366.24L205.754 336.63L207.824 311.94L208.844 299.58L226.244 264.78H304.004L316.784 293.88L323.174 367.02Z" fill="#DBDBDB"/>
<path d="M235.874 414.93L246.844 442.14L225.654 422.17L139.274 300.45L152.954 291.02L235.874 414.93Z" fill="#F0F0F0"/>
<path d="M167.294 281.899L126.214 310.169L122.474 304.729L163.554 276.449L167.294 281.899Z" fill="#E5E5E5"/>
<path d="M147.954 287.2L137.474 294.41L110.804 255.64L121.274 248.43L147.954 287.2Z" fill="#C9C9C9"/>
<path d="M187.134 208.85C193.174 214.42 193.574 223.83 187.994 229.87L139.604 282.39C134.044 288.44 124.624 288.81 118.574 283.24C112.524 277.67 112.154 268.27 117.714 262.21L166.104 209.7C171.674 203.66 181.094 203.28 187.134 208.85Z" fill="#F5F5F5"/>
<path d="M319.974 189.51L314.654 229.62L308.094 250.56L303.994 253.41H226.244L215.944 246.66V231.75L206.404 198.24L199.584 145.21C202.684 141.9 205.934 138.75 209.704 136.19C210.684 137.11 211.684 138 212.684 138.91C228.614 153.04 249.024 164.06 269.734 158.24C280.194 155.41 290.854 149.89 298.504 142.09C299.914 140.67 301.534 139.05 303.044 137.3C304.424 135.77 305.704 134.11 306.684 132.42C307.684 132.98 308.824 133.38 309.724 133.81C313.054 135.47 316.344 137.11 319.674 138.75L314.654 175.65L319.974 189.51Z" fill="#DBDBDB"/>
<path opacity="0.502" d="M323.174 367.02L309.074 450H285.584L302.264 365.91V349.89L288.764 376.29L264.434 449.16L264.164 450H263.444L263.954 446.64L276.434 366.57L302.264 317.19V302.61L285.704 272.25L277.394 270.48L254.534 265.59L250.754 264.78H304.004L316.784 293.88L323.174 367.02Z" fill="#8C9B9F"/>
<g opacity="0.502">
<path opacity="0.839" d="M319.984 189.51L314.634 229.61L308.044 250.56L303.974 253.41H289.814L279.014 246.79L296.914 241.84L297.454 241.69L296.944 241.53L269.534 231.8L300.514 224.01L307.654 222.22L311.164 194.5L307.904 187.21L303.824 177.99L317.494 137.67C317.594 137.73 317.744 137.78 317.854 137.83L319.674 138.75L314.634 175.64L319.984 189.51Z" fill="#8C9B9F"/>
</g>
<path d="M303.044 137.3C301.534 139.05 299.914 140.67 298.504 142.09C290.854 149.89 280.194 155.41 269.734 158.24C249.024 164.06 228.614 153.04 212.684 138.91C214.814 137.56 218.624 136.06 224.914 136.06C238.994 136.06 243.174 123.9 244.344 114.74C244.464 113.72 244.554 112.72 244.624 111.81C244.634 111.27 244.674 110.76 244.674 110.27C248.974 113.82 254.104 115.89 259.614 115.89C265.144 115.89 270.254 113.82 274.514 110.29C274.844 119.28 277.724 136.06 294.304 136.06C298.034 136.06 300.894 136.59 303.044 137.3Z" fill="#E5E5E5"/>
<path d="M288.314 85.1698C288.314 88.5498 287.934 91.8498 287.234 94.9398C287.174 95.2398 287.094 95.5298 287.034 95.7998C286.894 96.3698 286.734 96.9398 286.574 97.4898C286.254 98.5698 285.904 99.6498 285.484 100.69C284.904 102.25 284.184 103.76 283.414 105.19C283.164 105.67 282.894 106.12 282.614 106.6C282.064 107.5 281.484 108.39 280.864 109.23C280.554 109.67 280.234 110.07 279.914 110.49C279.604 110.9 279.254 111.28 278.914 111.66C278.574 112.06 278.234 112.44 277.874 112.8C277.534 113.17 277.184 113.5 276.774 113.85C276.414 114.21 276.044 114.54 275.674 114.84C275.614 114.89 275.564 114.94 275.494 114.99C270.964 118.76 265.514 120.96 259.614 120.96C253.734 120.96 248.264 118.76 243.694 114.96C241.594 113.21 239.684 111.14 238.024 108.78C237.754 108.39 237.494 107.99 237.234 107.6C236.144 105.91 235.194 104.12 234.344 102.23C233.974 101.35 233.624 100.44 233.304 99.5298C233.144 99.0498 232.984 98.5398 232.824 98.0498C232.674 97.5498 232.524 97.0598 232.394 96.5498C232.254 96.0498 232.114 95.5498 232.004 95.0298V94.9998C231.274 91.8898 230.894 88.5698 230.894 85.1698C230.894 65.7298 243.334 49.8898 258.804 49.3598C259.074 49.3398 259.344 49.3398 259.614 49.3398C259.894 49.3398 260.164 49.3398 260.434 49.3598C275.894 49.8898 288.314 65.7298 288.314 85.1698Z" fill="#E5E5E5"/>
<path opacity="0.839" d="M290.854 90.7699H229.074V73.3799H290.854V90.7699Z" fill="#94A2A8"/>
<path d="M284.994 77.5L275.494 74.09L259.604 57.62L259.614 49.34L259.604 44L268.514 40L278.364 41.52L298.464 64.83L300.914 101.94L293.894 113.69L280.274 119.74H275.914C275.704 118.01 275.594 116.39 275.534 114.96C281.144 110.3 285.344 103.28 287.234 95.03V95L284.994 77.5Z" fill="#E5E5E5"/>
<path d="M232.004 95V95.03C232.114 95.55 232.254 96.05 232.394 96.55C232.524 97.06 232.674 97.55 232.824 98.05C232.984 98.54 233.144 99.05 233.304 99.53C233.624 100.44 233.974 101.35 234.344 102.23C235.194 104.12 236.144 105.91 237.234 107.6C237.494 107.99 237.754 108.39 238.024 108.78C239.684 111.14 241.594 113.21 243.694 114.96C243.674 115.48 243.644 116.02 243.614 116.6C243.564 117.58 243.454 118.64 243.334 119.74H238.964L225.344 113.69L218.314 101.94L220.774 64.83L240.864 41.52L250.714 40L259.604 44L259.614 49.34V57.62L243.744 74.09L234.234 77.5L232.004 95Z" fill="#F5F5F5"/>
<g style="mix-blend-mode:multiply" opacity="0.588">
<path d="M303.044 137.3C301.774 138.79 300.494 140.11 299.314 141.28C289.334 144.18 277.044 144.64 271.024 144.64C258.604 144.33 244.384 141.48 233.824 133.99C240.714 130.21 243.314 122.07 244.224 115.38C248.664 118.91 253.964 120.99 259.614 120.99C265.224 120.99 270.524 118.91 274.954 115.38C276.184 124.46 280.524 136.07 294.274 136.07C298.034 136.07 300.914 136.59 303.044 137.3Z" fill="#C5CDCD"/>
</g>
<g style="mix-blend-mode:multiply" opacity="0.439">
<path d="M287.214 94.9704V95.0604C287.184 95.1504 287.184 95.2304 287.154 95.3204C287.064 95.7604 286.944 96.2204 286.804 96.6504C286.684 97.0904 286.544 97.5204 286.424 97.9604C286.134 98.8904 285.814 99.8204 285.474 100.71C285.264 101.29 285.034 101.84 284.774 102.4C284.654 102.69 284.514 102.98 284.394 103.27C284.164 103.73 283.964 104.19 283.704 104.63C283.524 104.98 283.354 105.35 283.124 105.7V79.8904L272.214 75.9804L269.404 73.4004L259.954 64.7304L251.664 73.4004L247.574 77.6604L236.844 79.8904L234.984 90.8004L233.824 97.5804L236.754 106.86C235.854 105.41 235.074 103.85 234.324 102.25C233.964 101.38 233.624 100.45 233.304 99.5504C233.134 99.0904 232.984 98.5704 232.814 98.0804C232.664 97.5804 232.524 97.0904 232.374 96.5704C232.234 96.0704 232.114 95.5804 232.004 95.0604V95.0304L232.554 90.8004L234.234 77.5204L243.714 74.1204L244.414 73.4004L259.604 57.6504L274.804 73.4004L275.494 74.1204L284.974 77.5204L286.654 90.8004L287.214 94.9704Z" fill="#8C9B9F"/>
</g>
<g style="mix-blend-mode:multiply" opacity="0.161">
<path d="M300.924 101.93L294.544 64.6902L278.594 45.6702L271.344 43.8502L259.814 45.6702C259.754 45.6702 259.694 45.6502 259.634 45.6502V43.9902L268.534 39.9902L278.394 41.5202L298.484 64.8102L300.924 101.93Z" fill="#8C9B9F"/>
</g>
<path d="M248.644 40.3105L246.724 53.1805C242.084 56.0505 238.174 60.4605 235.414 65.8805L229.094 69.0405L225.324 97.3205L227.304 111.321L232.894 117.031L225.354 113.671L218.334 101.931L220.804 64.8105L240.864 41.5205L248.644 40.3105Z" fill="white"/>
<g style="mix-blend-mode:multiply" opacity="0.329">
<path d="M243.344 450.001H237.914L216.704 433.681L209.864 422.491L209.834 422.431L208.154 411.961L205.184 393.391L223.124 418.621L225.434 421.861L225.644 422.161L232.394 428.491L232.424 428.551L243.344 450.001Z" fill="#8C9B9F"/>
</g>
<g style="mix-blend-mode:multiply" opacity="0.569">
<path d="M270.244 158.041C270.074 158.101 269.894 158.131 269.724 158.191C255.954 162.071 242.294 158.471 229.994 151.491C225.034 148.641 220.314 145.251 215.874 141.571C214.804 140.671 213.734 139.771 212.684 138.841C213.844 138.121 215.504 137.341 217.764 136.811L223.674 143.711L224.724 144.411L234.814 151.141L253.104 158.041H270.244Z" fill="#C5CDCD"/>
</g>
<g style="mix-blend-mode:multiply" opacity="0.722">
<g style="mix-blend-mode:multiply" opacity="0.722">
<path d="M643.3 447.52H435.04V441.44H643.3V447.52Z" fill="#D1CBB9"/>
</g>
<g style="mix-blend-mode:multiply" opacity="0.722">
<path d="M648.1 361.43H431V356.2H648.1V361.43Z" fill="#D1CBB9"/>
</g>
<g style="mix-blend-mode:multiply" opacity="0.722">
<path fill-rule="evenodd" clip-rule="evenodd" d="M637.02 366.67V436.36H442.06V366.67H637.02ZM507.79 372.34H448.15V431.97H507.79V372.34ZM569.75 372.34H510.12V431.97H569.75V372.34ZM631.72 372.34H572.11V431.97H631.72V372.34Z" fill="#D1CBB9"/>
</g>
<g style="mix-blend-mode:multiply" opacity="0.722">
<path fill-rule="evenodd" clip-rule="evenodd" d="M503.54 376.58V427.72H452.41V376.58H503.54ZM480.3 402.07L498.81 381.46L477.97 399.46L457.14 381.46L475.68 402.07L457.14 422.64L477.97 404.62L498.81 422.64L480.3 402.07Z" fill="#D1CBB9"/>
</g>
<g style="mix-blend-mode:multiply" opacity="0.722">
<path fill-rule="evenodd" clip-rule="evenodd" d="M565.12 376.58V427.72H513.98V376.58H565.12ZM541.88 402.07L560.38 381.46L539.55 399.46L518.72 381.46L537.25 402.07L518.72 422.64L539.55 404.62L560.38 422.64L541.88 402.07Z" fill="#D1CBB9"/>
</g>
<g style="mix-blend-mode:multiply" opacity="0.722">
<path fill-rule="evenodd" clip-rule="evenodd" d="M627.46 376.58V427.72H576.36V376.58H627.46ZM604.25 402.07L622.76 381.46L601.92 399.46L581.06 381.46L599.6 402.07L581.06 422.64L601.92 404.62L622.76 422.64L604.25 402.07Z" fill="#D1CBB9"/>
</g>
<g style="mix-blend-mode:multiply" opacity="0.722">
<path d="M620.15 353.05H580.24C580.24 341.09 575.34 334.31 571 330.66L574.94 329.13C575 329.33 575.08 329.52 575.17 329.72L576.7 329.15V329.13L578.45 325.5H579.19V322.95C576.3 320.57 574.18 316.82 573.27 312.4C573.27 312.34 573.24 312.32 573.24 312.26C572.33 311.58 571.57 310.14 571.31 308.32C570.95 305.86 571.6 303.67 572.84 303.19C572.84 302.03 572.98 301.24 573.13 300.33C573.55 297.84 574.43 295.53 575.82 293.52C577.12 291.63 578.32 290.66 580.33 289.76C582.31 288.85 585.09 288.88 586.62 289.98C588.18 288.88 590.95 288.85 592.94 289.76C594.96 290.66 596.15 291.63 597.44 293.52C598.84 295.53 599.68 297.84 600.11 300.33C600.25 301.2 600.39 301.97 600.42 303.08C600.48 303.08 600.54 303.08 600.59 303.11H600.62C602.01 303.42 602.81 305.71 602.4 308.32C602.07 310.53 601.02 312.23 599.86 312.6C599.8 312.6 599.74 312.63 599.68 312.63C598.81 316.8 596.79 320.34 594.13 322.69C594.1 322.72 594.1 322.72 594.07 322.75V325.5H594.58L596.37 329.13L598.46 329.89C598.58 329.67 598.64 329.47 598.72 329.24L608.53 332.89V332.95C616.28 335.39 620.15 342.09 620.15 353.05Z" fill="#D1CBB9"/>
</g>
<g style="mix-blend-mode:multiply" opacity="0.722">
<path d="M505.04 331.54L506.01 331.87C502.04 335.73 498.1 342.31 498.1 353.05V353.16H458.98C458.98 348.74 457.88 337.54 467.88 333.92H467.91L467.97 333.88C467.97 333.87 467.98 333.86 468 333.86L469.33 333.38L474.43 331.48L477.75 330.26C477.8 330.43 477.89 330.63 477.97 330.8L482.48 329.21V324.99C482.62 324.96 482.74 324.88 482.88 324.79C482.74 324.68 482.62 324.59 482.48 324.45V324.99C475.73 328.62 471.71 318.35 472.7 311.18C473.21 307.3 475.37 302.62 477.83 299.34C480.75 296.42 482.42 293.49 489.08 293.49C493.87 293.49 497.9 295.03 501.19 299.31C503.31 302.11 504.36 303.53 505.84 307.81C506.91 312.34 507 315.26 505.84 318.38C504.7 321.39 501.5 327.03 496.74 324.76V324.45C496.68 324.51 496.6 324.59 496.51 324.65C496.6 324.68 496.65 324.73 496.74 324.76V329.21L501.38 331.08C501.5 330.85 501.61 330.6 501.7 330.34L505.04 331.54Z" fill="#D1CBB9"/>
</g>
<g style="mix-blend-mode:multiply" opacity="0.722">
<path d="M575.99 353.05H502.35C502.35 340.94 506.63 333.53 515.19 330.83L515.25 330.8C515.28 330.8 515.28 330.8 515.28 330.77L516.75 330.2L525.99 326.6C526.08 326.84 526.16 327.05 526.24 327.29L527.95 326.63V326.6L529.91 322.58H530.69V319.77C527.52 317.14 525.14 313 524.18 308.12C524.18 308.06 524.15 308.04 524.15 307.98C523.15 307.24 522.28 305.6 521.97 303.61C521.54 300.7 522.45 298.12 524.01 297.84C523.95 297.66 524.11 296.93 524.06 296.62C523.83 295.51 523.66 295.45 523.41 294.83C523.02 293.86 522.08 292.71 522.08 291.6C521.99 290.52 522.96 289.53 523.47 288.67C526.76 283.46 532.22 280 538.09 280C542.86 280 549.43 281.84 549.03 288.57C550.02 287.63 551.55 287.6 552.66 288.37C554.19 289.7 554.31 290.58 554.62 292C555.04 294.49 554.82 296.14 554.22 297.84C554.25 297.8 554.31 297.84 554.34 297.84C554.35 297.84 554.37 297.84 554.39 297.84C555.92 298.17 556.8 300.72 556.35 303.61C556 306.02 554.82 307.92 553.54 308.32C553.48 308.35 553.4 308.35 553.34 308.35C552.38 312.97 550.17 316.88 547.19 319.49C547.16 319.51 547.16 319.51 547.14 319.55V322.58H547.73L549.69 326.6L551.98 327.42C552.1 327.2 552.18 326.94 552.27 326.72L563.15 330.77V330.83C571.71 333.53 575.99 340.94 575.99 353.05Z" fill="#D1CBB9"/>
</g>
</g>
<g style="mix-blend-mode:multiply" opacity="0.588">
<path fill-rule="evenodd" clip-rule="evenodd" d="M1 366.65V450H129.754C128.799 445.9 125.168 442.846 120.854 442.846C119.161 442.846 117.578 443.286 116.24 444.056L96.3372 409.357L116.24 374.63C117.578 375.401 119.161 375.868 120.854 375.868C125.877 375.868 130 371.768 130 366.65C130 361.532 125.877 357.377 120.854 357.377C115.749 357.377 111.681 361.532 111.681 366.65H71.8476L52.1905 332.336C54.9206 330.74 56.8317 327.741 56.8317 324.273C56.8317 319.238 52.7092 315 47.6311 315C42.553 315 38.4305 319.238 38.4305 324.273C38.4305 327.741 40.287 330.657 43.0717 332.336L23.3327 366.65H1ZM8.94475 409.357C8.94475 387.811 26.254 370.365 47.6311 370.365C69.0082 370.365 86.3175 387.811 86.3175 409.357C86.3175 430.875 69.0082 448.349 47.6311 448.349C26.254 448.349 8.94475 430.875 8.94475 409.357Z" fill="#D1CBB9"/>
</g>
<g opacity="0.859">
<g style="mix-blend-mode:multiply" opacity="0.741">
<path d="M543.184 58.3001L550.034 73.6801L538.484 69.7101L521.424 63.8401C523.254 62.9601 524.914 61.8201 526.264 60.8701L526.594 60.6501L530.334 57.0901L530.484 56.9401L530.704 56.6501C531.884 55.1801 532.804 53.6001 533.714 51.4401C533.934 50.8501 534.114 50.3401 534.264 49.8201L541.894 44.8301L558.004 50.3401L543.184 58.3001Z" fill="#D1CBB9"/>
</g>
<g style="mix-blend-mode:multiply" opacity="0.741">
<path d="M544.504 79.0303L527.914 76.1003L523.764 92.3903L511.294 72.9803L517.894 65.8203L541.234 73.9703L544.504 79.0303Z" fill="#D1CBB9"/>
</g>
<g style="mix-blend-mode:multiply" opacity="0.741">
<path d="M567.194 0V21.69L529.454 46.35C529.274 47.37 528.944 48.42 528.554 49.53C527.954 50.94 527.294 52.11 526.424 53.19L523.094 56.37C520.934 57.87 518.324 59.67 515.744 60.03V60C517.244 54.09 514.964 49.14 511.544 45.3C508.544 41.94 504.284 39.3 499.694 37.53C497.924 36.87 496.124 36.39 494.324 36.06C505.124 39.69 512.474 50.22 512.684 63.3L462.314 118.14C462.254 118.26 462.224 118.32 462.164 118.41C458.114 122.67 455.324 126.45 449.414 128.4C444.314 130.08 438.584 131.01 433.304 129.75C426.884 128.19 420.644 124.77 417.764 118.53C415.964 114.54 413.024 108.39 415.244 103.98C415.964 102.63 416.924 101.61 418.094 100.8L417.914 100.89L427.394 93.45L432.104 89.76C437.714 87.87 451.484 95.37 452.774 99.57L445.724 106.35L439.184 112.62L439.154 112.65V112.68C438.494 113.67 434.804 113.85 435.044 113.55C441.284 104.4 420.914 95.73 419.084 103.92C417.434 111.24 422.564 121.26 428.804 124.89C433.904 127.92 440.234 129.6 446.174 128.1C453.644 126.18 458.474 120.57 462.074 113.55C462.254 112.38 462.374 111.21 462.374 110.07C462.374 92.4 439.454 80.64 421.604 81.48C421.604 81.48 421.594 81.48 421.574 81.48C408.554 84.09 403.214 97.65 405.674 104.43C406.244 106.02 401.324 106.35 401.324 104.7C401.264 96.9 403.184 90 408.644 85.14L413.504 81.87L477.164 38.85C476.984 38.97 476.804 39.06 476.624 39.18L487.994 27.03L489.104 25.98L489.164 25.89C491.684 23.85 495.104 22.74 498.884 22.44C508.364 21.69 520.064 26.01 525.974 33.39C520.784 25.65 512.084 19.32 502.874 18.24L519.944 0H567.194Z" fill="#D1CBB9"/>
</g>
</g>
<defs>
<linearGradient id="paint0_linear_401_537" x1="145.545" y1="42.5703" x2="567.194" y2="42.5703" gradientUnits="userSpaceOnUse">
<stop stop-color="#9AA4A7"/>
<stop offset="1" stop-color="#DBDBDB"/>
</linearGradient>
</defs>
</svg>
