<svg width="701" height="374" viewBox="0 0 701 374" fill="none" xmlns="http://www.w3.org/2000/svg">
<path d="M590.72 234.82C590.72 244.97 581.952 253.19 571.125 253.19H514.528C506.037 253.19 499.125 246.72 499.125 238.76C499.125 230.78 506.037 224.31 514.528 224.31C516.459 224.31 518.283 224.64 519.968 225.25C522.987 216.9 531.403 210.9 541.323 210.9C548.96 210.9 555.691 214.45 559.765 219.87C562.976 217.72 566.891 216.46 571.125 216.46C581.952 216.46 590.72 224.68 590.72 234.82Z" fill="#EAF1F2"/>
<path d="M215.563 9.77C222.997 9.77 229.877 11.98 235.499 15.77C242.667 6.24 254.496 0 267.904 0C285.333 0 300.128 10.54 305.408 25.2C308.384 24.14 311.595 23.57 314.976 23.57C329.899 23.57 342.027 34.92 342.027 48.94C342.027 62.93 329.899 74.3 314.976 74.3H215.563C196.544 74.3 181.131 59.85 181.131 42.02C181.131 24.21 196.544 9.77 215.563 9.77Z" fill="white"/>
<path d="M72.6935 230.959C76.3201 230.959 79.6801 232.039 82.4215 233.889C85.9308 229.229 91.7015 226.189 98.2508 226.189C106.752 226.189 113.984 231.339 116.555 238.489C118.005 237.969 119.573 237.689 121.227 237.689C128.512 237.689 134.432 243.239 134.432 250.079C134.432 256.909 128.512 262.459 121.227 262.459H72.6935C63.4028 262.459 55.8828 255.409 55.8828 246.709C55.8828 238.009 63.4028 230.959 72.6935 230.959Z" fill="#F2F2F2"/>
<path d="M198.176 111.81C201.813 111.81 205.163 112.89 207.915 114.74C211.413 110.08 217.195 107.04 223.733 107.04C232.245 107.04 239.467 112.19 242.048 119.34C243.499 118.82 245.067 118.54 246.72 118.54C254.005 118.54 259.925 124.09 259.925 130.93C259.925 137.76 254.005 143.31 246.72 143.31H198.176C188.896 143.31 181.365 136.26 181.365 127.55C181.365 118.86 188.896 111.81 198.176 111.81Z" fill="#F2F2F2"/>
<path d="M374.336 202.1C366.507 221.29 346.656 234.9 323.371 234.9C300.128 234.9 280.277 221.29 272.405 202.1H374.336Z" fill="#50474C"/>
<path d="M374.336 195.34C373.675 195.34 373.045 195 372.715 194.41L323.371 106.19L274.037 194.41C273.568 195.26 272.448 195.58 271.552 195.15C270.645 194.7 270.304 193.66 270.773 192.81L321.749 101.67C322.379 100.53 324.363 100.53 325.003 101.67L375.968 192.81C376.448 193.66 376.096 194.7 375.2 195.15C374.923 195.27 374.624 195.34 374.336 195.34Z" fill="#E5E5E5"/>
<path d="M323.371 199.58C322.346 199.58 321.525 198.81 321.525 197.85V102.48C321.525 101.52 322.346 100.75 323.371 100.75C324.384 100.75 325.216 101.52 325.216 102.48V197.85C325.216 198.81 324.384 199.58 323.371 199.58Z" fill="#E5E5E5"/>
<path d="M381.6 202.1H265.141V193.61H381.6V202.1Z" fill="#FBCF15"/>
<g style="mix-blend-mode:multiply">
<path d="M381.6 193.61V202.1H374.336C366.507 221.3 346.656 234.91 323.371 234.91V193.61H381.6Z" fill="#E5DAC4"/>
</g>
<path d="M626.453 202.1C618.613 221.29 598.773 234.9 575.488 234.9C552.245 234.9 532.384 221.29 524.523 202.1H626.453Z" fill="#74506B"/>
<path d="M626.453 195.34C625.792 195.34 625.152 195 624.821 194.41L575.488 106.19L526.144 194.41C525.675 195.26 524.554 195.58 523.658 195.15C522.752 194.7 522.41 193.66 522.89 192.81L573.856 101.67C574.496 100.53 576.48 100.53 577.12 101.67L628.085 192.81C628.555 193.66 628.213 194.7 627.307 195.15C627.04 195.27 626.741 195.34 626.453 195.34Z" fill="#E5E5E5"/>
<path d="M575.488 199.58C574.464 199.58 573.653 198.81 573.653 197.85V102.48C573.653 101.52 574.464 100.75 575.488 100.75C576.512 100.75 577.323 101.52 577.323 102.48V197.85C577.323 198.81 576.512 199.58 575.488 199.58Z" fill="#E5E5E5"/>
<path d="M633.728 202.1H517.259V193.61H633.728V202.1Z" fill="#FBCF15"/>
<g style="mix-blend-mode:multiply">
<path d="M633.717 193.61V202.1H626.453C618.613 221.3 598.773 234.91 575.488 234.91V193.61H633.717Z" fill="#E5DAC4"/>
</g>
<path d="M448.896 73.4102V91.0202C429.867 91.3702 408.32 101.13 391.157 109.99C378.805 116.39 364.203 118.53 354.539 117.63C340.299 116.31 326.144 109.76 312.181 101.52V91.6802C326.144 99.9102 337.877 104.74 353.749 105.28C367.904 105.75 379.413 99.1902 391.157 92.3902C407.979 82.7202 429.867 73.7602 448.896 73.4102Z" fill="#74506B"/>
<path d="M323.371 95.6201C323.371 101.17 318.581 105.66 312.672 105.66C306.752 105.66 301.973 101.17 301.973 95.6201C301.973 90.0801 306.752 85.5801 312.672 85.5801C318.581 85.5801 323.371 90.0801 323.371 95.6201Z" fill="#F4C215"/>
<path d="M506.624 92.3902C518.357 99.1902 529.877 105.75 544.032 105.28C559.904 104.74 571.648 99.9102 585.6 91.6802V101.52C571.648 109.76 557.493 116.31 543.253 117.63C533.579 118.53 518.987 116.39 506.624 109.99C489.472 101.13 467.915 91.3702 448.896 91.0202V73.4102C467.915 73.7602 489.813 82.7202 506.624 92.3902Z" fill="#74506B"/>
<path d="M586.187 85.5801C592.085 85.5801 596.896 90.0801 596.896 95.6201C596.896 101.17 592.085 105.66 586.187 105.66C580.288 105.66 575.488 101.17 575.488 95.6201C575.488 90.0801 580.288 85.5801 586.187 85.5801Z" fill="#F4C215"/>
<path d="M462.475 303.71H435.307V42.8604H462.475V303.71Z" fill="#593E52"/>
<path d="M471.936 85.4398C471.936 97.3699 461.611 107.04 448.896 107.04C436.171 107.04 425.856 97.3699 425.856 85.4398C425.856 73.5098 436.171 63.8398 448.896 63.8398C461.611 63.8398 471.936 73.5098 471.936 85.4398Z" fill="#F4C215"/>
<path d="M466.475 27.6902C466.475 36.7902 458.603 44.1702 448.896 44.1702C439.179 44.1702 431.307 36.7902 431.307 27.6902C431.307 18.5802 439.179 11.2002 448.896 11.2002C458.603 11.2002 466.475 18.5802 466.475 27.6902Z" fill="#F4D916"/>
<path d="M459.68 85.4401C459.68 91.0301 454.859 95.5601 448.896 95.5601C442.944 95.5601 438.112 91.0301 438.112 85.4401C438.112 79.8601 442.944 75.3301 448.896 75.3301C454.859 75.3301 459.68 79.8601 459.68 85.4401Z" fill="#F4D916"/>
<path d="M523.467 342.67H374.304V303.71H523.467V342.67Z" fill="#50474C"/>
<path d="M584.192 371.63H313.589V342.67H584.192V371.63Z" fill="#74506B"/>
<path d="M523.467 320.69H374.304V311.2H523.467V320.69Z" fill="#F4C215"/>
<path d="M469.333 44.1704C469.333 48.0504 465.984 51.1904 461.856 51.1904H435.936C431.797 51.1904 428.448 48.0504 428.448 44.1704C428.448 40.3004 431.797 37.1504 435.936 37.1504H461.856C465.984 37.1504 469.333 40.3004 469.333 44.1704Z" fill="#F4C215"/>
<path d="M523.467 342.67H448.896V303.71H523.467V342.67Z" fill="#74506B"/>
<path d="M469.643 354.71V371.68H128.576V354.71H469.643Z" fill="#BEBEBE"/>
<path d="M484.32 169.53V243.68H113.333V169.53H484.32Z" fill="#D47105"/>
<path d="M477.291 243.68V354.74H120.939V243.68H477.291Z" fill="#DBDBDB"/>
<g style="mix-blend-mode:multiply">
<path d="M218.987 243.68V253.19H120.949V243.68H218.987Z" fill="#B8D0D0"/>
</g>
<g style="mix-blend-mode:multiply" opacity="0.71">
<path d="M386.571 235.41V239.67H209.867V235.41H386.571Z" fill="#B3B3B3"/>
</g>
<path d="M417.771 294.35H393.472V263.14H417.771V294.35Z" fill="#F0F0F0"/>
<path d="M396.587 291.429V266.069H414.656V291.429H396.587Z" fill="#74AABE"/>
<path d="M461.579 294.35H437.28V263.14H461.579V294.35Z" fill="#F0F0F0"/>
<path d="M440.395 291.429V266.069H458.464V291.429H440.395Z" fill="#74AABE"/>
<path d="M417.771 343.83H393.472V312.62H417.771V343.83Z" fill="#F0F0F0"/>
<path d="M396.587 340.9V315.55H414.656V340.9H396.587Z" fill="#74AABE"/>
<path d="M461.579 343.83H437.28V312.62H461.579V343.83Z" fill="#F0F0F0"/>
<path d="M440.395 340.9V315.55H458.464V340.9H440.395Z" fill="#74AABE"/>
<g style="mix-blend-mode:multiply">
<path d="M291.733 315.97V354.64H258.272V315.97C258.272 307.31 265.749 300.29 275.008 300.29C279.637 300.29 283.808 302.05 286.827 304.88C289.856 307.72 291.733 311.63 291.733 315.97Z" fill="#BEC7C7"/>
</g>
<g style="mix-blend-mode:multiply">
<path d="M338.187 315.97V354.64H304.725V315.97C304.725 307.31 312.203 300.29 321.451 300.29C326.091 300.29 330.251 302.05 333.28 304.88C336.299 307.72 338.187 311.63 338.187 315.97Z" fill="#BEC7C7"/>
</g>
<g style="mix-blend-mode:multiply">
<path d="M461.579 263.14V269.74H444.96V294.35H437.28V263.14H461.579Z" fill="#BEC7C7"/>
</g>
<g style="mix-blend-mode:multiply">
<path d="M417.781 263.14V269.74H401.141V294.35H393.472V263.14H417.781Z" fill="#BEC7C7"/>
</g>
<g style="mix-blend-mode:multiply">
<path d="M461.579 312.62V319.22H444.96V343.83H437.28V312.62H461.579Z" fill="#BEC7C7"/>
</g>
<g style="mix-blend-mode:multiply">
<path d="M417.781 312.62V319.22H401.141V343.83H393.472V312.62H417.781Z" fill="#BEC7C7"/>
</g>
<path d="M160.555 294.35H136.256V263.14H160.555V294.35Z" fill="#F0F0F0"/>
<path d="M139.36 291.429V266.069H157.44V291.429H139.36Z" fill="#74AABE"/>
<path d="M204.373 294.35H180.064V263.14H204.373V294.35Z" fill="#F0F0F0"/>
<path d="M183.189 291.429V266.069H201.248V291.429H183.189Z" fill="#74AABE"/>
<path d="M160.555 343.83H136.256V312.62H160.555V343.83Z" fill="#F0F0F0"/>
<path d="M139.36 340.9V315.55H157.44V340.9H139.36Z" fill="#74AABE"/>
<g style="mix-blend-mode:multiply">
<path d="M477.28 253.19H426.357L458.464 283.33L461.579 286.25L477.28 300.97V354.75H469.643V371.69H398.56V360.38H392.309V354.75H334.869V354.71H384.981V347.55H380.981V342.61H377.451V243.68H379.755V239.63H386.571V235.39H392.619L397.109 230.05L399.307 231.68L401.109 229.52L416.213 243.68H477.28V253.19Z" fill="#B8D0D0"/>
</g>
<path d="M204.373 343.83H180.064V312.62H204.373V343.83Z" fill="#F0F0F0"/>
<path d="M183.189 340.9V315.55H201.248V340.9H183.189Z" fill="#74AABE"/>
<g style="mix-blend-mode:multiply">
<path d="M204.373 263.14V269.74H187.744V294.35H180.064V263.14H204.373Z" fill="#BEC7C7"/>
</g>
<g style="mix-blend-mode:multiply">
<path d="M160.555 263.14V269.74H143.936V294.35H136.256V263.14H160.555Z" fill="#BEC7C7"/>
</g>
<g style="mix-blend-mode:multiply">
<path d="M204.373 312.62V319.22H187.744V343.83H180.064V312.62H204.373Z" fill="#BEC7C7"/>
</g>
<g style="mix-blend-mode:multiply">
<path d="M160.555 312.62V319.22H143.936V343.83H136.256V312.62H160.555Z" fill="#BEC7C7"/>
</g>
<g style="mix-blend-mode:multiply">
<path d="M342.368 243.7V342.63H338.88V347.56H334.859V354.73H261.589V347.56H257.6V342.63H254.123V243.7H342.368Z" fill="#B8D0D0"/>
</g>
<g style="mix-blend-mode:multiply">
<path d="M295.403 371.69H261.589V354.76H264.736L270.773 360.39H277.163L283.2 366.06H289.387L295.403 371.69Z" fill="#B8D0D0"/>
</g>
<path d="M377.472 243.7V342.61H342.357V243.7H377.472Z" fill="white"/>
<path d="M401.077 229.55L399.307 231.67L397.099 230.05L298.475 161.1L199.627 230.22L197.387 231.8L195.616 229.71L298.475 157.8L401.077 229.55Z" fill="#E5AD2A"/>
<path d="M397.099 230.05L392.619 235.41H203.968L199.627 230.22L298.475 161.1L397.099 230.05Z" fill="#F2F2F2"/>
<path d="M226.965 224.659L298.475 174.649L369.995 224.659H226.965Z" fill="#E5E5E5"/>
<path d="M386.571 235.41V239.67H379.765V243.7H217.408V239.67H209.867V235.41H386.571Z" fill="#E5E5E5"/>
<path d="M261.579 347.559V354.719H211.488V347.559H215.509V342.609H257.589V347.559H261.579Z" fill="#F2F2F2"/>
<path d="M384.96 347.559V354.719H334.88V347.559H338.88V342.609H380.97V347.559H384.96Z" fill="#F2F2F2"/>
<path d="M254.101 243.7V342.61H218.987V243.7H254.101Z" fill="white"/>
<g opacity="0.278">
<path opacity="0.278" d="M362.965 336.559C362.965 338.389 361.611 339.869 359.925 339.869C358.24 339.869 356.875 338.389 356.875 336.559V250.489C356.875 248.669 358.24 247.189 359.925 247.189C361.611 247.189 362.965 248.669 362.965 250.489V336.559Z" fill="#BABABA"/>
<path opacity="0.278" d="M371.755 336.559C371.755 338.389 370.731 339.869 369.461 339.869C368.181 339.869 367.157 338.389 367.157 336.559V250.489C367.157 248.669 368.181 247.189 369.461 247.189C370.731 247.189 371.755 248.669 371.755 250.489V336.559Z" fill="#BABABA"/>
<path opacity="0.278" d="M376.715 336.559C376.715 338.389 376.203 339.869 375.584 339.869C374.955 339.869 374.453 338.389 374.453 336.559V250.489C374.453 248.669 374.955 247.189 375.584 247.189C376.203 247.189 376.715 248.669 376.715 250.489V336.559Z" fill="#BABABA"/>
<path opacity="0.278" d="M345.162 336.559C345.162 338.389 344.65 339.869 344.021 339.869C343.392 339.869 342.88 338.389 342.88 336.559V250.489C342.88 248.669 343.392 247.189 344.021 247.189C344.65 247.189 345.162 248.669 345.162 250.489V336.559Z" fill="#BABABA"/>
<path opacity="0.278" d="M352.203 336.559C352.203 338.389 351.232 339.869 350.027 339.869C348.811 339.869 347.84 338.389 347.84 336.559V250.489C347.84 248.669 348.811 247.189 350.027 247.189C351.232 247.189 352.203 248.669 352.203 250.489V336.559Z" fill="#BABABA"/>
<path opacity="0.278" d="M239.595 336.559C239.595 338.389 238.24 339.869 236.544 339.869C234.869 339.869 233.493 338.389 233.493 336.559V250.489C233.493 248.669 234.869 247.189 236.544 247.189C238.24 247.189 239.595 248.669 239.595 250.489V336.559Z" fill="#BABABA"/>
<path opacity="0.278" d="M248.384 336.559C248.384 338.389 247.349 339.869 246.091 339.869C244.811 339.869 243.787 338.389 243.787 336.559V250.489C243.787 248.669 244.811 247.189 246.091 247.189C247.349 247.189 248.384 248.669 248.384 250.489V336.559Z" fill="#BABABA"/>
<path opacity="0.278" d="M253.344 336.559C253.344 338.389 252.832 339.869 252.213 339.869C251.573 339.869 251.083 338.389 251.083 336.559V250.489C251.083 248.669 251.573 247.189 252.213 247.189C252.832 247.189 253.344 248.669 253.344 250.489V336.559Z" fill="#BABABA"/>
<path opacity="0.278" d="M221.792 336.559C221.792 338.389 221.28 339.869 220.64 339.869C220.011 339.869 219.509 338.389 219.509 336.559V250.489C219.509 248.669 220.011 247.189 220.64 247.189C221.28 247.189 221.792 248.669 221.792 250.489V336.559Z" fill="#BABABA"/>
<path opacity="0.278" d="M228.843 336.559C228.843 338.389 227.851 339.869 226.645 339.869C225.44 339.869 224.459 338.389 224.459 336.559V250.489C224.459 248.669 225.44 247.189 226.645 247.189C227.851 247.189 228.843 248.669 228.843 250.489V336.559Z" fill="#BABABA"/>
</g>
<path d="M392.32 360.389H204.373V354.729H392.32V360.389Z" fill="white"/>
<path d="M398.56 371.7H198.123V360.39H398.56V371.7Z" fill="#D3D2D1"/>
<g style="mix-blend-mode:multiply" opacity="0.71">
<path d="M302.4 163.849L202.357 233.499L199.627 230.219L298.475 161.109L302.4 163.849Z" fill="#B3B3B3"/>
</g>
<g style="mix-blend-mode:multiply" opacity="0.71">
<path d="M302.005 177.119L235.104 224.669H226.965L298.475 174.649L302.005 177.119Z" fill="#B3B3B3"/>
</g>
<path d="M334.88 360.39H261.579V354.72H334.88V360.39Z" fill="white"/>
<path d="M334.88 366.05H261.579V360.39H334.88V366.05Z" fill="#F2F2F2"/>
<path d="M323.275 347.6V354.76H273.184V347.6H277.184V342.65H319.285V347.6H323.275Z" fill="#F2F2F2"/>
<path d="M315.797 243.74V342.65H280.672V243.74H315.797Z" fill="white"/>
<path opacity="0.388" d="M301.28 336.601C301.28 338.431 299.925 339.911 298.24 339.911C296.555 339.911 295.2 338.431 295.2 336.601V250.531C295.2 248.711 296.555 247.221 298.24 247.221C299.925 247.221 301.28 248.711 301.28 250.531V336.601Z" fill="#BABABA"/>
<path opacity="0.388" d="M310.069 336.601C310.069 338.431 309.045 339.911 307.776 339.911C306.496 339.911 305.472 338.431 305.472 336.601V250.531C305.472 248.711 306.496 247.221 307.776 247.221C309.045 247.221 310.069 248.711 310.069 250.531V336.601Z" fill="#BABABA"/>
<path opacity="0.388" d="M315.029 336.601C315.029 338.431 314.517 339.911 313.899 339.911C313.269 339.911 312.779 338.431 312.779 336.601V250.531C312.779 248.711 313.269 247.221 313.899 247.221C314.517 247.221 315.029 248.711 315.029 250.531V336.601Z" fill="#BABABA"/>
<path opacity="0.388" d="M283.477 336.601C283.477 338.431 282.965 339.911 282.336 339.911C281.696 339.911 281.195 338.431 281.195 336.601V250.531C281.195 248.711 281.696 247.221 282.336 247.221C282.965 247.221 283.477 248.711 283.477 250.531V336.601Z" fill="#BABABA"/>
<path opacity="0.388" d="M290.528 336.601C290.528 338.431 289.547 339.911 288.331 339.911C287.136 339.911 286.155 338.431 286.155 336.601V250.531C286.155 248.711 287.136 247.221 288.331 247.221C289.547 247.221 290.528 248.711 290.528 250.531V336.601Z" fill="#BABABA"/>
<g style="mix-blend-mode:multiply">
<path d="M315.797 243.74V252.98C310.571 251.32 304.693 250.39 298.517 250.39C292.096 250.39 286.016 251.39 280.661 253.18V243.74H315.797Z" fill="#C5CECD"/>
</g>
<g style="mix-blend-mode:multiply">
<path d="M254.112 243.74V252.98C248.885 251.32 243.008 250.39 236.832 250.39C230.421 250.39 224.341 251.39 218.987 253.18V243.74H254.112Z" fill="#C5CECD"/>
</g>
<g style="mix-blend-mode:multiply">
<path d="M377.483 243.74V252.98C372.256 251.32 366.389 250.39 360.202 250.39C353.792 250.39 347.712 251.39 342.346 253.18V243.74H377.483Z" fill="#C5CECD"/>
</g>
<g style="mix-blend-mode:multiply" opacity="0.4">
<path d="M386.571 239.67H209.867V235.41H386.571V239.67Z" fill="#C5CECD"/>
</g>
<g style="mix-blend-mode:multiply">
<path d="M204.373 360.39H128.576V354.71H204.373V360.39Z" fill="#B8D0D0"/>
</g>
<path d="M137.024 128.97C137.024 142.84 125.045 154.07 110.251 154.07H32.9067C21.3014 154.07 11.872 145.23 11.872 134.35C11.872 123.45 21.3014 114.61 32.9067 114.61C35.552 114.61 38.0374 115.06 40.352 115.88C44.4587 104.47 55.9681 96.2803 69.5254 96.2803C79.9574 96.2803 89.152 101.13 94.7307 108.54C99.1147 105.6 104.459 103.88 110.251 103.88C125.045 103.88 137.024 115.11 137.024 128.97Z" fill="#F7FCFD"/>
<path opacity="0.82" d="M700.629 109.51V151.24H645.429C634.965 151.24 626.453 143.26 626.453 133.45C626.453 123.61 634.965 115.66 645.429 115.66C647.797 115.66 650.037 116.05 652.117 116.8C655.829 106.51 666.197 99.1299 678.421 99.1299C687.509 99.1299 695.573 103.18 700.629 109.51Z" fill="#EAF1F2"/>
<path d="M157.163 332.67C157.163 346.12 149.195 357.03 139.36 357.03C129.536 357.03 121.557 346.12 121.557 332.67C121.557 319.22 129.536 308.31 139.36 308.31C149.195 308.31 157.163 319.22 157.163 332.67Z" fill="#F2A900"/>
<path d="M147.275 337.889L139.349 344.499V371.009H135.861L137.355 332.329L139.349 332.659V342.929L146.752 337.489L147.275 337.889Z" fill="#974332"/>
<path d="M503.04 324.49C503.04 340.82 493.365 354.05 481.429 354.05C469.504 354.05 459.84 340.82 459.84 324.49C459.84 308.17 469.504 294.93 481.429 294.93C493.365 294.93 503.04 308.17 503.04 324.49Z" fill="#F2A900"/>
<path d="M491.04 330.83L481.419 338.84V371.01H477.184L478.997 324.08L481.419 324.48V336.94L490.4 330.34L491.04 330.83Z" fill="#974332"/>
<path d="M31.3174 339.68C31.3174 351.51 24.3094 361.11 15.6587 361.11C7.00806 361.11 0 351.51 0 339.68C0 327.84 7.00806 318.25 15.6587 318.25C24.3094 318.25 31.3174 327.84 31.3174 339.68Z" fill="#EDA600"/>
<path d="M22.6134 344.27L15.6374 350.08V373.4H12.5761L13.8988 339.38L15.6374 339.67V348.7L22.1547 343.92L22.6134 344.27Z" fill="#974332"/>
<path d="M111.435 314.38C120.267 314.38 127.424 324.18 127.424 336.26C127.424 348.34 120.267 358.14 111.435 358.14C102.603 358.14 95.4453 348.34 95.4453 336.26C95.4453 324.18 102.603 314.38 111.435 314.38Z" fill="#ABD51C"/>
<path d="M104.8 340.6L111.445 345.47V336.25L113.237 335.95L114.581 370.69H111.445V346.88L104.331 340.95L104.8 340.6Z" fill="#974332"/>
<path d="M515.925 314.38C524.757 314.38 531.915 324.18 531.915 336.26C531.915 348.34 524.757 358.14 515.925 358.14C507.093 358.14 499.936 348.34 499.936 336.26C499.936 324.18 507.093 314.38 515.925 314.38Z" fill="#ABD51C"/>
<path d="M509.301 340.6L515.936 345.47V336.25L517.728 335.95L519.072 370.69H515.936V346.88L508.821 340.95L509.301 340.6Z" fill="#974332"/>
<path d="M591.979 331.22C591.979 345.06 580.011 356.29 565.248 356.29C550.475 356.29 538.507 345.06 538.507 331.22C538.507 317.37 550.475 306.15 565.248 306.15C580.011 306.15 591.979 317.37 591.979 331.22Z" fill="#F5E112"/>
<path d="M564.608 371.26L565.877 340.25L555.029 331.98L555.637 331.22L566.048 337.14L566.496 326.32H568.075V371.26H564.608Z" fill="#974332"/>
<path d="M100.405 327.66C100.405 342.68 87.4133 354.87 71.3813 354.87C55.3494 354.87 42.3467 342.68 42.3467 327.66C42.3467 312.62 55.3494 300.43 71.3813 300.43C87.4133 300.43 100.405 312.62 100.405 327.66Z" fill="#F5E112"/>
<path d="M70.6881 371.12L72.064 337.47L60.2881 328.48L60.9601 327.66L72.2561 334.08L72.736 322.33H74.4427V371.12H70.6881Z" fill="#974332"/>
<path d="M626.645 326.36C626.645 342.6 617.024 355.76 605.163 355.76C593.301 355.76 583.68 342.6 583.68 326.36C583.68 310.13 593.301 296.97 605.163 296.97C617.024 296.97 626.645 310.13 626.645 326.36Z" fill="#EDA600"/>
<path d="M614.709 332.67L605.141 340.64V372.62H600.939L602.741 325.96L605.141 326.36V338.74L614.069 332.19L614.709 332.67Z" fill="#974332"/>
</svg>
