<svg width="705" height="450" viewBox="0 0 705 450" fill="none" xmlns="http://www.w3.org/2000/svg">
<g opacity="0.239">
<path opacity="0.239" fill-rule="evenodd" clip-rule="evenodd" d="M704.01 327.75V351.69H703.26C688.05 391.56 649.44 419.82 604.14 419.82C558.81 419.82 520.26 391.56 504.9 351.69H490.77V334.11H501.24C501.24 333.6 501.36 332.97 501.69 332.43L591.54 161.01C574.92 169.02 558.21 174.75 541.38 176.37C522.54 178.14 494.07 173.76 470.1 160.5C452.22 150.72 432.03 140.31 411.42 132.75C414.48 125.67 416.25 117.81 416.25 109.44C416.25 105.09 415.74 100.83 414.9 96.8096C434.43 104.07 453.54 113.73 470.1 123.93C492.93 138.03 515.25 151.68 542.91 150.72C566.22 149.88 584.91 143.97 604.29 133.68C604.23 132.75 604.14 131.73 604.14 130.65C604.14 119.13 613.44 109.8 624.87 109.8C636.45 109.8 645.78 119.13 645.78 130.65C645.78 142.11 636.45 151.44 624.87 151.44C621.06 151.44 617.52 150.39 614.4 148.53C613.26 149.28 612.21 149.88 611.04 150.51L704.01 327.75ZM600.45 159.54L508.86 334.11H600.45V159.54ZM699.27 334.11L607.65 159.36V334.11H699.27Z" fill="white"/>
<path opacity="0.239" fill-rule="evenodd" clip-rule="evenodd" d="M174.06 176.37C158.16 174.81 142.35 169.62 126.54 162.24L215.73 332.43C216.03 332.97 216.12 333.6 216.12 334.11H226.74V351.69H212.64C197.34 391.56 158.7 419.82 113.37 419.82C68.19 419.82 29.49 391.56 14.16 351.69H0V334.11H10.65C10.65 333.6 10.74 332.97 11.01 332.43L105.99 151.44C104.61 150.72 103.38 149.97 102.06 149.16C99.27 150.63 96.03 151.44 92.61 151.44C81.06 151.44 71.73 142.11 71.73 130.65C71.73 119.13 81.06 109.8 92.61 109.8C104.04 109.8 113.37 119.13 113.37 130.65C113.37 132.03 113.28 133.35 112.98 134.61C131.7 144.3 149.94 149.88 172.53 150.72C200.01 151.68 222.45 138.03 245.37 123.93C261.87 113.73 280.95 104.07 300.54 96.8096C299.7 100.83 299.13 105.09 299.13 109.44C299.13 117.81 300.93 125.67 303.93 132.75C283.35 140.31 263.13 150.72 245.37 160.5C221.25 173.76 192.84 178.14 174.06 176.37ZM109.86 159.36L18.21 334.11H109.86V159.36ZM117.03 159.54V334.11H208.56L117.03 159.54Z" fill="white"/>
<path opacity="0.239" fill-rule="evenodd" clip-rule="evenodd" d="M400.65 109.44C400.65 123.27 394.23 135.57 384.15 143.43V450H331.29V143.43C321.21 135.57 314.76 123.27 314.76 109.44C314.76 95.73 321.21 83.52 331.29 75.57V38.28C323.7 37.65 317.85 31.44 317.85 23.88C317.85 16.68 323.04 10.68 329.91 9.51C327.84 6.69 326.19 3.48 325.11 0H390.3C389.19 3.48 387.54 6.69 385.41 9.51C392.37 10.68 397.47 16.59 397.47 23.88C397.47 31.44 391.62 37.65 384.15 38.28V75.57C394.23 83.52 400.65 95.73 400.65 109.44ZM378.63 109.44C378.63 97.95 369.27 88.47 357.63 88.47C346.14 88.47 336.66 97.95 336.66 109.44C336.66 121.11 346.14 130.47 357.63 130.47C369.27 130.47 378.63 121.11 378.63 109.44Z" fill="white"/>
</g>
<path d="M178.26 85.1505V164.72H176.36V85.1505C176.36 78.6705 171.09 73.3905 164.61 73.3905C158.12 73.3905 152.85 78.6705 152.85 85.1505H150.95C150.95 77.6005 157.07 71.4805 164.61 71.4805C168.37 71.4805 171.79 73.0105 174.26 75.4805C176.73 77.9505 178.26 81.3705 178.26 85.1505Z" fill="#C9C9C9"/>
<path d="M176.36 85.1506H152.85C152.85 78.6706 158.12 73.3906 164.61 73.3906C171.09 73.3906 176.36 78.6706 176.36 85.1506Z" fill="#DEDEDE"/>
<path d="M243.33 85.1405V164.72H201.76C201.76 171.19 196.49 176.47 190.02 176.47C183.52 176.47 178.25 171.19 178.25 164.72H178.26V85.1405C178.26 81.3805 176.72 77.9505 174.26 75.4805C171.8 73.0205 168.37 71.4805 164.61 71.4805H229.68C233.45 71.4805 236.86 73.0205 239.33 75.4805C241.8 77.9505 243.33 81.3805 243.33 85.1405Z" fill="#F2F2F2"/>
<path d="M199.66 174.371C197.2 176.841 193.77 178.371 190.02 178.371C182.48 178.371 176.36 172.261 176.36 164.721H178.25C178.25 171.191 183.53 176.471 190.02 176.471C196.49 176.471 201.77 171.191 201.77 164.721H203.66C203.66 168.481 202.14 171.911 199.66 174.371Z" fill="#C9C9C9"/>
<path d="M264.73 174.371C262.27 176.841 258.85 178.371 255.08 178.371H190.02C193.77 178.371 197.2 176.841 199.66 174.371C202.14 171.911 203.66 168.481 203.66 164.721H268.73C268.73 168.481 267.21 171.911 264.73 174.371Z" fill="white"/>
<path d="M237.81 89.7601H183.54V86.1201H237.81V89.7601Z" fill="#CCCCCC"/>
<path d="M237.81 96.4808H183.54V92.8408H237.81V96.4808Z" fill="#CCCCCC"/>
<path d="M237.81 103.201H183.54V99.5605H237.81V103.201Z" fill="#CCCCCC"/>
<path d="M237.81 109.92H183.54V106.29H237.81V109.92Z" fill="#CCCCCC"/>
<path d="M237.81 116.651H183.54V113.011H237.81V116.651Z" fill="#CCCCCC"/>
<path d="M237.81 123.37H183.54V119.73H237.81V123.37Z" fill="#CCCCCC"/>
<path d="M237.81 130.1H183.54V126.45H237.81V130.1Z" fill="#CCCCCC"/>
<path d="M237.81 136.811H183.54V133.171H237.81V136.811Z" fill="#CCCCCC"/>
<path d="M200.48 151.67H183.54V147.74H200.48V151.67Z" fill="#CCCCCC"/>
<path opacity="0.302" d="M178.29 142.46V85.1405C178.29 81.3805 176.75 77.9505 174.29 75.4805C171.82 73.0205 168.4 71.4805 164.64 71.4805H229.71C233.47 71.4805 236.89 73.0205 239.35 75.4805C240.36 76.4805 241.2 77.6305 241.85 78.9005L178.29 142.46Z" fill="white"/>
<path fill-rule="evenodd" clip-rule="evenodd" d="M236.86 150.91C236.86 156.48 232.34 160.99 226.78 160.99C224.45 160.99 222.29 160.2 220.59 158.87C218.62 157.34 217.23 155.09 216.81 152.51C216.74 152 216.69 151.46 216.69 150.91C216.69 145.34 221.21 140.83 226.78 140.83C227.87 140.83 228.91 140.99 229.89 141.33C232.33 142.12 234.37 143.82 235.59 146.04C236.4 147.49 236.86 149.14 236.86 150.91ZM234.34 150.91C234.34 149.77 234.09 148.69 233.63 147.73C232.52 145.34 230.22 143.64 227.48 143.4C227.25 143.36 227.01 143.35 226.78 143.35C222.75 143.35 219.47 146.48 219.23 150.44C219.21 150.6 219.21 150.76 219.21 150.91C219.21 153.53 220.54 155.83 222.57 157.19C223.76 158 225.22 158.48 226.78 158.48C230.94 158.48 234.34 155.09 234.34 150.91Z" fill="#FBCF15"/>
<path d="M233.16 150.911C233.16 154.441 230.31 157.311 226.78 157.311C225.58 157.311 224.46 156.981 223.5 156.391C221.64 155.291 220.38 153.241 220.38 150.911C220.38 150.341 220.46 149.791 220.6 149.281C221.27 146.731 223.45 144.821 226.13 144.551C226.34 144.531 226.55 144.521 226.78 144.521C229.47 144.521 231.75 146.171 232.69 148.531C233 149.271 233.16 150.071 233.16 150.911Z" fill="#FBCF15"/>
<path d="M222.57 157.19L220.59 158.87C218.62 157.34 217.23 155.09 216.81 152.51L219.23 150.44C219.21 150.6 219.21 150.76 219.21 150.91C219.21 153.53 220.54 155.83 222.57 157.19Z" fill="#F3E318"/>
<path d="M232.69 148.531L223.5 156.391C221.64 155.291 220.38 153.241 220.38 150.911C220.38 150.341 220.46 149.791 220.6 149.281L226.13 144.551C226.34 144.531 226.55 144.521 226.78 144.521C229.47 144.521 231.75 146.171 232.69 148.531Z" fill="#F3E318"/>
<path d="M235.59 146.04L233.63 147.73C232.52 145.34 230.22 143.64 227.48 143.4L229.89 141.33C232.33 142.12 234.37 143.82 235.59 146.04Z" fill="#F3E318"/>
<path d="M161.62 162.441L159.05 169.921L159.04 169.951V169.921L159.05 163.591C159.04 163.301 158.83 163.061 158.55 163.061C158.28 163.061 158.05 163.301 158.05 163.591L158.04 169.921L155.47 162.441C156.59 161.991 156.83 160.341 156.86 159.131H160.24C160.26 160.341 160.49 161.991 161.62 162.441Z" fill="#F1D915"/>
<path d="M162.59 135.9H154.5V102.96H162.59V135.9Z" fill="#63586E"/>
<path d="M161.42 161.06H155.61L154.5 138.4H162.59L161.42 161.06Z" fill="#63586E"/>
<path d="M162.59 138.4H154.5V135.9H162.59V138.4Z" fill="#F0B814"/>
<path d="M162.59 100.45V102.96H154.5V100.45H162.59Z" fill="#F0B814"/>
<path d="M159.05 163.551L159.04 169.471H158.04L158.05 163.551C158.05 163.281 158.28 163.061 158.55 163.061C158.83 163.061 159.04 163.281 159.05 163.551Z" fill="#D1B91D"/>
<path d="M162.59 100.45H154.5C154.5 98.2204 156.31 96.4004 158.55 96.4004C160.78 96.4004 162.59 98.2204 162.59 100.45Z" fill="#63586E"/>
<path d="M158.22 121.211C158.22 121.951 157.61 122.561 156.86 122.561C156.11 122.561 155.51 121.951 155.51 121.211V103.231C155.51 102.491 156.11 101.891 156.86 101.891C157.61 101.891 158.22 102.491 158.22 103.231V121.211Z" fill="#FBCF15"/>
<g style="mix-blend-mode:multiply">
<path d="M161.42 161.06H160.5C160.7 161.68 161.04 162.21 161.61 162.44L159.05 169.92L159.04 169.95V169.47H158.54V96.4004C160.78 96.4004 162.58 98.2204 162.58 100.45V138.4L161.42 161.06Z" fill="#D4C9B9"/>
</g>
<path d="M541.55 100.801V186.001L473.37 185.991V100.801H541.55Z" fill="#52567B"/>
<path d="M468.34 94.5503C468.34 94.9703 468.39 95.3803 468.5 95.7503C469.03 97.9503 471.01 99.5703 473.37 99.5903H541.55V100.8H473.37C471.45 100.78 469.75 99.9403 468.63 98.6003C467.69 97.5003 467.13 96.1003 467.13 94.5503C467.13 91.1103 469.93 88.3203 473.38 88.3203H541.54L541.55 89.5303H473.38C470.6 89.5203 468.34 91.7803 468.34 94.5503Z" fill="#6B7A9B"/>
<path d="M541.55 89.5303V99.5903H473.37C470.6 99.5703 468.34 97.3203 468.34 94.5503C468.34 91.7803 470.6 89.5203 473.38 89.5303H541.55Z" fill="#52567B"/>
<path d="M539.02 92.1104V99.5903H473.37C471.01 99.5703 469.03 97.9504 468.5 95.7504C469.04 93.6704 470.95 92.1104 473.22 92.1104H539.02Z" fill="#F2F2F2"/>
<path d="M473.37 100.801V185.991C469.91 185.981 467.13 183.201 467.13 179.741V94.5508C467.13 98.0008 469.91 100.781 473.37 100.801Z" fill="#52567B"/>
<g style="mix-blend-mode:multiply" opacity="0.741">
<path d="M476.08 185.991H473.37V100.801H476.08V185.991Z" fill="#D3BFAE"/>
</g>
<path d="M499.49 98.1802H483.33V91.6602H499.49V98.1802Z" fill="#F88011"/>
<path d="M499.5 185.99V195.66L493.48 191.38L491.42 189.92L489.36 191.38L483.33 195.66V186L499.5 185.99Z" fill="#F88011"/>
<g style="mix-blend-mode:multiply" opacity="0.741">
<path d="M499.5 185.99V191.38H493.48L491.42 189.92L489.36 191.38H483.33V186L499.5 185.99Z" fill="#D3BFAE"/>
</g>
<path d="M500.85 137.001L495.55 137.011V124.111L497.49 124.101V135.071H500.85V137.001Z" fill="#FAD114"/>
<path fill-rule="evenodd" clip-rule="evenodd" d="M504.69 134.04L504.21 137H502.19L504.38 124.11H507.06L509.22 137H507.17L506.72 134.04H504.69ZM505.71 127.06L504.99 132.14L506.43 132.15L505.71 127.06Z" fill="#FAD114"/>
<path d="M516.85 124.111H518.88L516.86 137.001H515.01L513.9 129.911L512.86 137.001L511 137.011L508.84 124.101L510.88 124.111L511.9 131.011L512.84 124.111H514.87L515.89 131.011L516.85 124.111Z" fill="#FAD114"/>
<path d="M528.1 122.45L528.11 139.07C527.24 139.07 526.42 139.27 525.69 139.6V121.92C526.42 122.26 527.24 122.45 528.1 122.45ZM522.36 144.81C522.36 145.05 522.38 145.28 522.41 145.51H492.5C492.54 145.28 492.55 145.05 492.55 144.81C492.55 144.22 492.45 143.64 492.3 143.09H522.62C522.46 143.64 522.36 144.22 522.36 144.81ZM486.81 122.45C487.68 122.45 488.5 122.26 489.23 121.92V139.59C488.5 139.27 487.68 139.07 486.81 139.07V122.45ZM522.89 119.14H492.02C492.36 118.39 492.55 117.57 492.55 116.71H522.36C522.36 117.57 522.56 118.39 522.89 119.14Z" fill="#FAD114"/>
<path d="M528.1 122.45V124.87C527.26 124.87 526.45 124.74 525.69 124.5C523.13 123.71 521.11 121.69 520.31 119.14C520.08 118.37 519.95 117.55 519.95 116.71H522.36C522.36 117.57 522.56 118.39 522.89 119.14C523.47 120.36 524.46 121.35 525.69 121.92C526.42 122.26 527.24 122.45 528.1 122.45Z" fill="#FAD114"/>
<path d="M528.1 136.65L528.11 139.07C527.24 139.07 526.42 139.27 525.69 139.6C524.24 140.27 523.11 141.55 522.62 143.09C522.46 143.64 522.36 144.22 522.36 144.81C522.36 145.05 522.38 145.28 522.41 145.51H519.98C519.96 145.28 519.95 145.05 519.95 144.81C519.95 144.22 520.01 143.65 520.14 143.09C520.74 140.22 522.89 137.88 525.69 137.01C526.45 136.78 527.26 136.66 528.1 136.65Z" fill="#FAD114"/>
<path d="M494.97 116.71C494.97 117.55 494.85 118.37 494.61 119.14C493.81 121.69 491.8 123.71 489.23 124.5C488.47 124.74 487.66 124.87 486.81 124.87V122.45C487.68 122.45 488.5 122.26 489.23 121.92C490.46 121.35 491.45 120.36 492.02 119.14C492.36 118.39 492.55 117.57 492.55 116.71H494.97Z" fill="#FAD114"/>
<path d="M494.97 144.81C494.97 145.05 494.96 145.28 494.93 145.51H492.5C492.54 145.28 492.55 145.05 492.55 144.81C492.55 144.22 492.45 143.64 492.3 143.09C491.8 141.55 490.69 140.27 489.23 139.59C488.5 139.27 487.68 139.07 486.81 139.07V136.65C487.66 136.65 488.47 136.78 489.23 137.01C492.02 137.88 494.17 140.22 494.79 143.1C494.91 143.65 494.97 144.22 494.97 144.81Z" fill="#FAD114"/>
<path opacity="0.071" d="M541.55 100.801L476.08 166.251V100.801H541.55Z" fill="#F2F2F2"/>
<path d="M349.46 395.07V400.53L311.63 382.68L301.76 378.02L278.05 366.83V361.37L284.91 364.61L316.84 379.68L349.46 395.07Z" fill="#7277A0"/>
<path d="M420.85 361.37L413.99 364.61L384.08 378.74L349.46 395.07L316.84 379.68L284.91 364.61L278.05 361.37L349.46 338.25L420.85 361.37Z" fill="#52567B"/>
<path opacity="0.102" d="M349.46 338.25V395.07L316.84 379.67L284.92 364.61L278.05 361.38L349.46 338.25Z" fill="white"/>
<path d="M401.2 376.1V397.78C401.2 411.75 378.93 423.05 351.49 423.05C324.02 423.05 301.76 411.75 301.76 397.78V378.02L311.63 382.68L349.46 400.53L389.62 381.58L401.2 376.1Z" fill="#52567B"/>
<g style="mix-blend-mode:multiply">
<path d="M401.2 376.1V387.75C388.8 388.37 374.32 395.19 362.31 407.23C357.35 412.18 353.28 417.55 350.16 423.02C349.5 423.03 348.85 423.01 348.2 422.98C345.09 417.53 341.03 412.16 336.08 407.23C325.49 396.64 313.03 390.11 301.76 388.24V378.01L311.65 382.68L349.46 400.53L389.63 381.59L401.2 376.1Z" fill="#C7C5CC"/>
</g>
<path d="M420.85 361.37V366.83L401.2 376.1L389.62 381.58L349.46 400.53V395.07L384.08 378.74L413.99 364.61L420.85 361.37Z" fill="#7277A0"/>
<path d="M313.75 409.87C311.95 409.87 310.49 408.41 310.49 406.6V378.22C310.49 376.86 311.33 375.64 312.59 375.16L348.31 361.74C350 361.11 351.88 361.96 352.51 363.65C353.15 365.34 352.29 367.22 350.6 367.86L317.02 380.48V406.6C317.02 408.41 315.56 409.87 313.75 409.87Z" fill="#E7EBEA"/>
<path d="M314.5 400.27C314.41 400.23 314.32 400.23 314.23 400.21C314.3 400.21 314.38 400.23 314.44 400.25C314.47 400.25 314.48 400.26 314.5 400.27Z" fill="#F2F2F2"/>
<path d="M325.74 429.59C324.53 430.09 323.16 429.53 322.65 428.33L318.4 418.3L320.08 430.95C320.25 432.23 319.34 433.42 318.04 433.59C317.94 433.6 317.84 433.61 317.74 433.61C316.57 433.61 315.56 432.75 315.4 431.56L313.76 419.19L312.11 431.56C311.95 432.75 310.94 433.61 309.77 433.61C309.67 433.61 309.57 433.6 309.46 433.59C308.16 433.42 307.26 432.23 307.43 430.95L309.11 418.3L304.85 428.33C304.36 429.53 302.97 430.09 301.77 429.59C300.56 429.08 300 427.7 300.52 426.49L311.58 400.33C311.6 400.27 311.63 400.21 311.67 400.16C311.73 400.04 311.8 399.93 311.87 399.84C311.94 399.73 312.04 399.63 312.13 399.55C312.21 399.47 312.3 399.39 312.4 399.33C312.6 399.18 312.83 399.07 313.08 399C313.15 398.96 313.24 398.95 313.32 398.94C313.62 398.88 313.9 398.88 314.18 398.94C314.27 398.95 314.35 398.96 314.43 399C314.68 399.07 314.91 399.18 315.12 399.34C315.21 399.4 315.3 399.47 315.39 399.55C315.47 399.63 315.56 399.73 315.63 399.84C315.72 399.93 315.77 400.04 315.84 400.16C315.87 400.21 315.91 400.27 315.93 400.33L326.99 426.49C327.5 427.7 326.95 429.08 325.74 429.59Z" fill="#E1E3E3"/>
<path d="M313.13 398.979C313.2 398.949 313.27 398.939 313.32 398.939C313.24 398.949 313.15 398.959 313.08 398.999C313.1 398.989 313.11 398.979 313.13 398.979Z" fill="#F2F2F2"/>
<path d="M321.76 406.9C321.76 411.32 318.18 414.91 313.75 414.91C309.33 414.91 305.75 411.32 305.75 406.9C305.75 402.47 309.33 398.9 313.75 398.9C318.18 398.9 321.76 402.47 321.76 406.9Z" fill="#E1E6E5"/>
<path d="M386.17 75.3096L376.03 77.2496L377.23 87.4996L355.18 71.3297L364.12 59.1396L386.17 75.3096Z" fill="#EBC016"/>
<path d="M373 89.6393L363.84 84.8793L358.43 93.6693L351.15 67.2993L365.72 63.2793L373 89.6393Z" fill="#F4D916"/>
<path d="M415.64 52.7697C414.04 54.7397 412 55.9497 409.83 56.5097L409.53 56.5997L368.06 68.3497L317.71 97.5097C317.67 97.5597 317.62 97.6097 317.57 97.6397C314.42 99.3897 312.09 101.08 308.29 101.14C305 101.2 301.48 100.69 298.6 98.9897C295.11 96.9097 292.09 93.7597 291.54 89.5597C291.21 86.9097 290.61 82.7697 292.74 80.5897C298.07 75.0997 311.51 85.0297 305.15 90.0597C304.57 90.5297 302.41 89.9597 302.59 89.8197C307.91 85.5997 297.56 76.7997 294.99 81.2597C292.68 85.2397 293.85 92.0497 296.84 95.3397C299.28 98.0297 302.69 100.17 306.43 100.38C311.17 100.64 315.02 98.2397 318.41 94.7797L318.42 94.7697C323.9 83.8997 311.86 71.5297 300.58 68.5797C300.58 68.5597 300.58 68.5597 300.56 68.5697C292.44 67.7097 286.86 74.6697 287.06 79.0997C287.09 80.1297 284.15 79.4397 284.46 78.4497C285.85 73.8997 288.24 70.1997 292.32 68.3397C292.33 68.3397 292.33 68.3397 292.33 68.3397L295.75 67.3097L353.14 50.1297L391.68 28.2997L392.28 27.9697C403.04 22.0997 426.16 39.6597 415.64 52.7697Z" fill="#FCFDFD"/>
<path d="M369.04 69.4395C368.47 70.1395 367.84 70.7095 367.15 71.1895L364.63 72.4495C363.09 72.9295 361.23 73.4895 359.64 73.2295C361.59 70.0495 361.19 66.7095 359.87 63.8395C358.74 61.3295 356.73 58.9895 354.35 57.1195C351.83 55.1395 348.82 53.8895 345.99 53.2895C343.96 52.8695 342.64 53.3095 340.53 53.8495L349.42 48.8495L350.26 48.4195L350.32 48.3995C359.59 44.6895 377.57 58.8095 369.04 69.4395Z" fill="#F4D916"/>
<g style="mix-blend-mode:multiply">
<path d="M377.22 87.4998L371.18 83.0698L373 89.6398L363.84 84.8798L358.43 93.6698L353.72 76.6498L358.59 73.8398L359.63 73.2198L359.64 73.2299C361.23 73.4899 363.07 72.9298 364.62 72.4498L367.14 71.1998C367.37 71.0298 367.57 70.8898 367.78 70.7098C368.23 70.3398 368.64 69.9198 369.04 69.4398C369.48 68.8898 369.87 68.3298 370.16 67.7498L374.27 66.5898L386.17 75.3098L376.02 77.2498L377.22 87.4998Z" fill="#E5DAC4"/>
</g>
<path d="M286.86 79.4598C286.99 79.3898 287.06 79.2698 287.06 79.0998C286.86 74.6698 292.45 67.7098 300.56 68.5698C300.58 68.5598 300.58 68.5598 300.59 68.5798C303.16 69.2498 305.76 70.4198 308.19 71.9298L286.86 79.4598Z" fill="#B7BFC0"/>
<path d="M305.16 90.0494C310.84 85.5594 300.67 77.1394 294.67 79.3394L310.33 73.3994C313.93 76.0894 316.96 79.5794 318.56 83.3594L305.16 90.0494Z" fill="#D0D7D6"/>
<path d="M318.42 94.7493C318.42 94.7693 318.42 94.7693 318.4 94.7793C315.01 98.2193 311.14 100.629 306.43 100.379C302.69 100.169 299.28 98.0093 296.84 95.3393C293.86 92.0393 292.68 85.2393 294.98 81.2493C297.56 76.7893 307.92 85.5993 302.59 89.8193C302.41 89.9593 304.58 90.5093 305.16 90.0493L318.56 83.3593C320.12 87.0393 320.32 90.9893 318.42 94.7493Z" fill="#B7BFC0"/>
<path d="M361.92 271.23C361.92 275.91 358.12 279.71 353.44 279.71H283.73C279.05 279.71 275.26 275.91 275.26 271.23C275.26 266.55 279.05 262.75 283.73 262.75H353.44C358.12 262.75 361.92 266.55 361.92 271.23Z" fill="#8A6159"/>
<path d="M366.94 284.58H270.24V271.23H366.94V284.58Z" fill="#A7756C"/>
<path d="M366.94 277.35H270.24V275.16H366.94V277.35Z" fill="#F2E018"/>
<path d="M237.24 327.04H132.01V249.4H237.24V327.04Z" fill="#78544E"/>
<path d="M240.76 246.26V299.43C228.5 303.73 207.87 306.54 184.46 306.54C161.36 306.54 140.95 303.8 128.64 299.6V246.26H240.76Z" fill="#A7756C"/>
<path d="M206.12 241.84H201.4C201.4 236.55 197.09 232.24 191.8 232.24H177.29C172 232.24 167.68 236.55 167.68 241.84H162.97C162.97 237.9 164.57 234.33 167.17 231.74C169.77 229.14 173.34 227.54 177.29 227.54H191.8C199.71 227.54 206.12 233.94 206.12 241.84Z" fill="#A7756C"/>
<path d="M169.16 248.42H161.37V241.84H169.16V248.42Z" fill="#F4CA4E"/>
<path d="M207.88 248.42H200.08V241.84H207.88V248.42Z" fill="#F4CA4E"/>
<path d="M192.3 316.06H177.1V297.03H192.3V316.06Z" fill="#F6CF15"/>
<path d="M190.54 304.59V304.68H178.84V304.59C178.84 301.35 181.47 298.73 184.69 298.73C186.32 298.73 187.78 299.39 188.84 300.45C189.89 301.5 190.54 302.96 190.54 304.59Z" fill="#F0B014"/>
<path d="M190.54 309.68H178.84V307.04H190.54V309.68Z" fill="#F0B014"/>
<g style="mix-blend-mode:multiply">
<path d="M237.32 300.57V311.84H132.09V300.67C144.58 304.25 163.44 306.54 184.53 306.54C205.84 306.54 224.85 304.22 237.32 300.57Z" fill="#D0C5BA"/>
</g>
<path d="M279.8 329.22C272.06 336.94 262.07 342.24 251.23 346.04C238.89 350.37 226.04 353.56 212.9 355.92C202.25 348.83 193.08 339.8 190.1 330.31C209.96 326.78 233.47 322.19 248.37 309.54C258.29 317.84 268.61 324.53 279.8 329.22Z" fill="#E5E5E5"/>
<path d="M269.72 327C261.97 334.72 251.98 340.03 241.14 343.82C228.81 348.16 215.95 351.34 202.82 353.7C192.16 346.61 182.99 337.58 180.01 328.1C199.88 324.56 223.39 319.97 238.28 307.32C248.21 315.62 258.52 322.31 269.72 327Z" fill="white"/>
<g style="mix-blend-mode:multiply">
<g style="mix-blend-mode:multiply">
<path d="M270.6 331.41C262.44 338.69 252.18 343.43 241.15 346.63C230.8 349.63 220.17 351.83 209.33 353.42C208.98 353.16 208.63 352.9 208.29 352.65C219.51 350.4 230.5 347.53 241.11 343.8C250.72 340.44 259.65 335.89 266.95 329.53C268.16 330.19 269.37 330.82 270.6 331.41Z" fill="#D5D8D9"/>
</g>
</g>
<path d="M527.38 304.75C523.25 307.23 519.4 312.64 514.04 317.57C509.52 321.73 500.18 327.15 493.64 330.19C493.57 330.22 493.52 330.25 493.46 330.28L490.5 331.55C490.45 331.58 490.39 331.59 490.34 331.62L480.79 335.74C466.03 342.09 448.91 335.29 442.56 320.53L431.33 294.47C424.96 279.71 431.77 262.58 446.53 256.23L476.92 243.13C491.68 236.78 508.79 243.59 515.15 258.35L526.38 284.41C529.27 291.12 529.44 298.31 527.38 304.75Z" fill="#FDCD9C"/>
<path d="M508.11 249.94H508.08L470.41 263.91C468.78 262.78 467.32 260.82 465.84 259.35C464.34 257.86 462.79 256.8 461.22 255.41C460.8 255.08 460.44 254.71 460.11 254.33L460.09 254.32C458.77 252.86 457.78 251.29 455.81 250.63C453.9 249.88 450.67 249.08 448.81 247.94L449.98 248.46C448.11 247.73 444.7 245.74 442.12 243.51C439.27 241.06 436.78 238.71 434.08 235.62C429.51 230.38 426.29 224.62 426.12 222.14C426.1 222.12 426.11 222.06 426.11 222C425.92 220.22 426.23 218.64 427.32 217.49C428.49 216.07 429.75 215.23 431.14 214.89C434.66 213.98 438.75 216.19 442.76 218.91C447.8 222.38 452.05 224.75 455.1 225.59C461.91 227.23 465.07 227.89 471.95 231.13C477.43 234.12 493.89 241.11 499.34 243.67C500.69 244.4 506.88 249.17 508.11 249.94Z" fill="#FDCD9C"/>
<path d="M572.47 310.37H492.83V241.75H572.47V310.37Z" fill="#FDCD9C"/>
<path d="M356.92 226.84C355.11 228.24 352.5 227.9 351.1 226.08L320.98 186.92C319.58 185.1 319.92 182.5 321.74 181.11L392.18 126.91C394 125.51 396.6 125.85 398 127.67L428.12 166.83C429.52 168.64 429.18 171.25 427.36 172.65L356.92 226.84Z" fill="#8A6159"/>
<path d="M418.9 183.3C418.29 183.76 417.43 183.66 416.97 183.05L379.46 134.3C378.98 133.69 379.11 132.83 379.71 132.35L387.04 126.72C387.64 126.25 388.51 126.37 388.97 126.98L426.48 175.73C426.95 176.33 426.84 177.2 426.22 177.67L418.9 183.3Z" fill="#A7756C"/>
<path d="M406.67 192.711C406.06 193.181 405.2 193.061 404.73 192.461L367.23 143.711C366.76 143.101 366.87 142.231 367.48 141.771L374.8 136.131C375.41 135.671 376.28 135.781 376.75 136.391L414.25 185.141C414.71 185.741 414.59 186.611 414 187.081L406.67 192.711Z" fill="#A7756C"/>
<path d="M374.68 217.32C374.07 217.78 373.2 217.68 372.74 217.07L335.23 168.32C334.76 167.72 334.88 166.85 335.49 166.38L342.81 160.75C343.42 160.28 344.28 160.39 344.75 161L382.25 209.75C382.72 210.35 382.6 211.22 382 211.69L374.68 217.32Z" fill="#A7756C"/>
<path d="M362.44 226.73C361.84 227.2 360.97 227.09 360.5 226.48L323 177.74C322.53 177.13 322.65 176.26 323.25 175.8L330.58 170.16C331.18 169.69 332.05 169.81 332.52 170.41L370.02 219.17C370.49 219.77 370.37 220.63 369.76 221.1L362.44 226.73Z" fill="#A7756C"/>
<path d="M381.09 208.24L345.91 162.5L368.39 145.21L403.58 190.95L381.09 208.24Z" fill="#F4C215"/>
<g style="mix-blend-mode:multiply">
<path d="M415.81 181.55L413.09 183.63L414.25 185.14C414.71 185.74 414.59 186.61 414 187.07L406.67 192.71C406.07 193.17 405.19 193.06 404.73 192.46L403.58 190.96L381.1 208.24L382.25 209.75C382.71 210.35 382.6 211.23 382 211.69L374.68 217.32C374.07 217.78 373.2 217.66 372.74 217.06L371.59 215.56L368.87 217.66L370.03 219.16C370.49 219.75 370.38 220.63 369.77 221.09L362.44 226.73C361.84 227.19 360.97 227.08 360.5 226.48L359.35 224.98L356.93 226.84C355.11 228.24 352.5 227.89 351.11 226.08L336.04 206.49L413.06 147.25L428.13 166.83C429.52 168.64 429.19 171.25 427.37 172.65L425.32 174.23L426.48 175.73C426.94 176.33 426.84 177.2 426.22 177.67L418.9 183.3C418.29 183.77 417.43 183.64 416.97 183.04L415.81 181.55Z" fill="#D6C9CF"/>
</g>
<path d="M510.67 353.42C506.44 356.69 500.36 355.89 497.1 351.66C493.84 347.42 494.64 341.34 498.87 338.08C503.11 334.83 509.18 335.62 512.44 339.86C515.7 344.09 514.91 350.16 510.67 353.42Z" fill="#8A6159"/>
<path d="M507.31 349.041C501.3 353.671 492.68 352.531 488.07 346.531L487.62 345.931L385.02 205.961C381.76 201.721 382.55 195.661 386.8 192.391C391.02 189.131 397.1 189.911 400.37 194.151L509.34 329.221L509.8 329.811C514.42 335.811 513.3 344.431 507.31 349.041Z" fill="#A7756C"/>
<path d="M502.88 322.941C504.97 321.331 507.97 321.721 509.58 323.811C511.19 325.901 510.8 328.911 508.71 330.521L489.04 345.651C486.94 347.261 483.94 346.871 482.33 344.781C480.72 342.691 481.11 339.691 483.2 338.071L502.88 322.941Z" fill="#8A6159"/>
<path d="M358.72 176.191L349.45 164.141L369.1 149.021L378.37 161.071L358.72 176.191Z" fill="#F2E018"/>
<path d="M493.19 311.83C496.18 317.31 494.16 324.17 488.68 327.15L454.68 345.69C449.2 348.68 442.34 346.66 439.36 341.18C436.37 335.7 438.38 328.84 443.86 325.86L477.87 307.32C483.35 304.33 490.21 306.35 493.19 311.83Z" fill="#FDCD9C"/>
<path d="M476.44 278.17C478.91 283.91 476.26 290.55 470.54 293.02L423.53 313.27C417.81 315.74 411.16 313.1 408.69 307.37C406.22 301.64 408.86 294.99 414.59 292.52L461.6 272.27C467.32 269.8 473.97 272.44 476.44 278.17Z" fill="#FDCD9C"/>
<path d="M464.31 260.5C466.77 266.23 464.13 272.87 458.4 275.34L415.21 293.95C409.48 296.42 402.84 293.78 400.37 288.05C397.9 282.32 400.54 275.67 406.27 273.21L449.46 254.59C455.19 252.12 461.84 254.77 464.31 260.5Z" fill="#FDCD9C"/>
<path d="M486.67 297.24C489.13 302.97 486.49 309.62 480.76 312.08L437.57 330.7C431.84 333.16 425.19 330.52 422.72 324.79C420.25 319.06 422.9 312.42 428.63 309.95L471.82 291.34C477.55 288.87 484.2 291.51 486.67 297.24Z" fill="#FDCD9C"/>
<g style="mix-blend-mode:multiply">
<path d="M572.44 297.66V310.37H520.93C523.85 306.96 525.6 302.07 526.74 297.66H572.44Z" fill="#E5D8CB"/>
</g>
<path d="M581.45 315.82H535.59V236.29H581.45V315.82Z" fill="white"/>
<path d="M622.01 320H559.01V233H622.01V320Z" fill="#97554D"/>
<g style="mix-blend-mode:multiply">
<path d="M622.01 320H559.01V277H622.01V320Z" fill="#D0C5BA"/>
</g>
<g style="mix-blend-mode:multiply">
<path d="M472.25 265.39C471.37 267.72 470.94 270.14 471.02 272.51C468.58 271.29 465.71 270.99 462.97 271.76C462.95 271.76 462.94 271.76 462.94 271.76C462.94 271.75 462.94 271.74 462.94 271.74C465.31 268.6 465.95 264.32 464.3 260.49C462.2 255.6 457.1 252.97 452.07 253.82L457.41 251.5L457.62 251.43C463.61 251.4 469.64 257.41 471.72 263.42C471.96 264.08 472.11 264.75 472.25 265.39Z" fill="#E5D8CB"/>
</g>
<g style="mix-blend-mode:multiply">
<g style="mix-blend-mode:multiply">
<path d="M508.61 321.72C508.3 321.93 507.98 322.14 507.66 322.33C507.07 322.06 506.43 321.93 505.77 321.93C505.1 321.93 504.44 322.09 503.8 322.41L494.1 310.37L492.82 308.77L487.56 302.26C487.64 300.58 487.37 298.88 486.65 297.23C485.09 293.56 481.79 291.17 478.12 290.56L476.02 287.93C476.85 286.39 477.3 284.66 477.35 282.88C481.95 285.48 487.43 288.09 492.82 288.83C494.5 289.07 496.17 289.1 497.8 288.91C495.56 294.95 497.64 303.72 499.9 308.96C500.08 309.43 500.29 309.91 500.53 310.37C502.61 314.62 505.72 318.05 508.61 321.72Z" fill="#E5D8CB"/>
</g>
</g>
</svg>
