<svg width="377" height="377" viewBox="0 0 377 377" fill="none" xmlns="http://www.w3.org/2000/svg">
<path d="M375 188.505C375 183.573 374.804 178.643 374.413 173.727L188.5 188.505H375Z" fill="#FF2432" stroke="white" stroke-width="2.38827"/>
<path d="M374.413 173.727C371.043 131.32 353.276 91.3395 324.061 60.4179L188.5 188.505L374.413 173.727Z" fill="#00AADF" stroke="white" stroke-width="2.38827"/>
<path d="M324.061 60.418C300.988 35.9974 271.747 18.2629 239.428 9.08847L188.5 188.505L324.061 60.418Z" fill="#FFF50D" stroke="white" stroke-width="2.38827"/>
<path d="M239.426 9.08845C205.538 -0.531407 169.618 -0.356452 135.825 9.59307C102.032 19.5426 71.748 38.8598 48.4785 65.3084L188.498 188.505L239.426 9.08845Z" fill="#00FF19" stroke="white" stroke-width="2.38827"/>
<path d="M48.4806 65.3083C22.0252 95.3781 5.95209 133.166 2.63965 173.08L188.5 188.505L48.4806 65.3083Z" fill="#1D19DD" stroke="white" stroke-width="2.38827"/>
<path d="M2.63901 173.08C0.085921 203.844 5.20882 234.761 17.5482 263.058L188.5 188.505L2.63901 173.08Z" fill="#FFC120" stroke="white" stroke-width="2.38827"/>
<path d="M17.5469 263.057C28.7291 288.7 45.5364 311.499 66.7241 329.765L188.498 188.505L17.5469 263.057Z" fill="#FFF50D" stroke="white" stroke-width="2.38827"/>
<path d="M66.7256 329.765C99.0463 357.629 139.945 373.566 182.596 374.917C225.248 376.268 267.073 362.951 301.092 337.188L188.5 188.505L66.7256 329.765Z" fill="#9503C9" stroke="white" stroke-width="2.38827"/>
<path d="M301.092 337.188C324.057 319.796 342.681 297.321 355.504 271.525C368.327 245.729 375 217.313 375 188.505H188.5L301.092 337.188Z" fill="#CE08FF" stroke="white" stroke-width="2.38827"/>
</svg>
