<svg width="388" height="350" viewBox="0 0 388 350" fill="none" xmlns="http://www.w3.org/2000/svg">
<g clip-path="url(#clip0_152_3908)">
<path d="M193.634 3.27618C270.17 -11.0813 347.01 23.2256 359.851 77.5253C372.691 131.825 357.131 142.944 333.153 195.419C309.172 247.891 332.126 284.691 289.781 313.797C247.433 342.904 188.758 337.675 147.362 299.651C105.963 261.627 53.4113 215.921 44.8418 156.745C39.1257 117.297 51.2402 83.3504 81.1823 54.9152C105.126 30.0577 142.611 12.8437 193.634 3.27618Z" fill="#0094FF"/>
<path opacity="0.702" d="M193.634 3.27618C270.17 -11.0813 347.01 23.2256 359.851 77.5253C372.691 131.825 357.131 142.944 333.153 195.419C309.172 247.891 332.126 284.691 289.781 313.797C247.433 342.904 188.758 337.675 147.362 299.651C105.963 261.627 53.4113 215.921 44.8418 156.745C39.1257 117.297 51.2402 83.3504 81.1823 54.9152C105.126 30.0577 142.611 12.8437 193.634 3.27618Z" fill="white"/>
<path d="M274.711 45.7984H207.513L208.193 35.9698H275.393L274.711 45.7984Z" fill="white"/>
<path d="M274.711 59.5528H207.513L208.193 49.7274H275.393L274.711 59.5528Z" fill="white"/>
<path d="M274.711 73.3104H207.513L208.193 63.4849H275.393L274.711 73.3104Z" fill="white"/>
<path d="M274.711 87.0648H207.513L208.193 77.2393H275.393L274.711 87.0648Z" fill="white"/>
<path d="M274.711 100.822H207.513L208.193 90.9969H275.393L274.711 100.822Z" fill="white"/>
<path d="M274.711 114.58H207.513L208.193 104.751H275.393L274.711 114.58Z" fill="white"/>
<path d="M274.711 128.334H207.513L208.193 118.509H275.393L274.711 128.334Z" fill="white"/>
<path d="M274.711 142.092H207.513L208.193 132.266H275.393L274.711 142.092Z" fill="white"/>
<path d="M274.711 155.846H207.513L208.193 146.021H275.393L274.711 155.846Z" fill="white"/>
<path d="M274.711 169.604H207.513L208.193 159.778H275.393L274.711 169.604Z" fill="white"/>
<path d="M274.711 183.361H207.513L208.193 173.533H275.393L274.711 183.361Z" fill="white"/>
<path d="M345.767 45.7984H278.566L279.245 35.9698H346.446L345.767 45.7984Z" fill="white"/>
<path d="M345.767 59.5528H278.566L279.245 49.7274H346.446L345.767 59.5528Z" fill="white"/>
<path d="M345.767 73.3104H278.566L279.245 63.4849H346.446L345.767 73.3104Z" fill="white"/>
<path d="M345.767 87.0648H278.566L279.245 77.2393H346.446L345.767 87.0648Z" fill="white"/>
<path d="M345.767 100.822H278.566L279.245 90.9969H346.446L345.767 100.822Z" fill="white"/>
<path d="M345.767 114.58H278.566L279.245 104.751H346.446L345.767 114.58Z" fill="white"/>
<path d="M345.767 128.334H278.566L279.245 118.509H346.446L345.767 128.334Z" fill="white"/>
<path d="M345.767 142.092H278.566L279.245 132.266H346.446L345.767 142.092Z" fill="white"/>
<path d="M345.767 155.846H278.566L279.245 146.021H346.446L345.767 155.846Z" fill="white"/>
<path d="M345.767 169.604H278.566L279.245 159.778H346.446L345.767 169.604Z" fill="white"/>
<path d="M345.767 183.361H278.566L279.245 173.533H346.446L345.767 183.361Z" fill="white"/>
<path d="M198.082 154.811H59.2452V35.4321H198.082V154.811Z" fill="#0094FF"/>
<path d="M191.14 148.843H66.1864V137.072C74.8117 130.221 85.6236 123.377 99.14 117.328C136.482 100.623 168.667 89.996 191.14 73.9787V148.843Z" fill="#0094FF"/>
<path d="M191.14 42.2207C176.241 58.0111 156.673 76.1297 139.097 83.9565C104.85 99.2123 92.4811 78.2371 121.021 57.262C128.815 51.5333 135.431 46.1839 140.992 41.4001H191.14V42.2207Z" fill="#0094FF"/>
<path d="M66.1864 82.4956V60.389C76.8494 51.5613 87.7264 44.6981 87.7264 53.4481C87.7264 61.2811 76.623 72.294 66.1864 82.4956Z" fill="#0094FF"/>
<path d="M98.1909 88.2491C98.1909 93.7758 93.7185 98.258 88.2009 98.258C82.6833 98.258 78.2109 93.7758 78.2109 88.2491C78.2109 82.7194 82.6833 78.2372 88.2009 78.2372C93.7185 78.2372 98.1909 82.7194 98.1909 88.2491Z" fill="#0094FF"/>
<path opacity="0.749" d="M191.14 148.843H66.1864V137.072C74.8117 130.221 85.6236 123.377 99.14 117.328C136.482 100.623 168.667 89.996 191.14 73.9787V148.843Z" fill="white"/>
<path opacity="0.749" d="M191.14 42.2207C176.241 58.0111 156.673 76.1297 139.097 83.9565C104.85 99.2123 92.4811 78.2371 121.021 57.262C128.815 51.5333 135.431 46.1839 140.992 41.4001H191.14V42.2207Z" fill="white"/>
<g opacity="0.749">
<path opacity="0.749" d="M66.1864 82.4956V60.389C76.8494 51.5613 87.7264 44.6981 87.7264 53.4481C87.7264 61.2811 76.623 72.294 66.1864 82.4956Z" fill="white"/>
</g>
<path opacity="0.749" d="M98.1909 88.2491C98.1909 93.7758 93.7185 98.258 88.2009 98.258C82.6833 98.258 78.2109 93.7758 78.2109 88.2491C78.2109 82.7194 82.6833 78.2372 88.2009 78.2372C93.7185 78.2372 98.1909 82.7194 98.1909 88.2491Z" fill="white"/>
<path d="M191.14 148.843H66.1864V41.4001H191.14V148.843Z" fill="white"/>
<path d="M169.541 120.187C169.541 127.56 163.577 133.538 156.224 133.538C148.867 133.538 142.902 127.56 142.902 120.187C142.902 112.818 148.867 106.84 156.224 106.84C163.577 106.84 169.541 112.818 169.541 120.187Z" fill="white"/>
<path d="M385.1 277.619C380.528 283.596 375.457 287.982 369.89 290.77C363.188 294.131 356.11 292.676 353.573 291.97L343.158 297.823V305.933H359.45L352.667 348.424H332.315L325.532 305.933H342.16V293.671L330.972 284.327C328.981 284.886 320.709 286.804 314.717 282.104C310.143 278.517 305.171 271.343 299.805 260.582C312.528 260.184 321.277 262.674 326.05 268.055C331.959 274.716 331.769 281.365 331.524 283.488L342.16 292.371V252.034C340.14 251.363 333.348 248.478 330.82 239.361C328.832 232.187 332.808 221.526 342.752 207.377C352.295 221.128 356.172 231.488 354.383 238.463C352.041 247.592 344.929 251.257 343.158 252.044V270.644L357.894 259.833C357.776 257.757 357.946 251.646 363.03 245.339C367.207 240.157 375.457 238.264 387.786 239.66C384.008 249.224 379.533 255.401 374.366 258.192C367.682 261.798 360.35 260.964 358.446 260.666L343.344 271.744L343.158 271.489V296.676L352.64 291.349C352.838 290.146 353.781 285.648 357.363 281.504C362.533 275.527 371.779 274.231 385.1 277.619Z" fill="#0094FF"/>
<path opacity="0.502" d="M385.1 277.619C380.528 283.596 375.457 287.982 369.89 290.77C363.188 294.131 356.11 292.676 353.573 291.97L343.158 297.823V305.933H359.45L352.667 348.424H332.315L325.532 305.933H342.16V293.671L330.972 284.327C328.981 284.886 320.709 286.804 314.717 282.104C310.143 278.517 305.171 271.343 299.805 260.582C312.528 260.184 321.277 262.674 326.05 268.055C331.959 274.716 331.769 281.365 331.524 283.488L342.16 292.371V252.034C340.14 251.363 333.348 248.478 330.82 239.361C328.832 232.187 332.808 221.526 342.752 207.377C352.295 221.128 356.172 231.488 354.383 238.463C352.041 247.592 344.929 251.257 343.158 252.044V270.644L357.894 259.833C357.776 257.757 357.946 251.646 363.03 245.339C367.207 240.157 375.457 238.264 387.786 239.66C384.008 249.224 379.533 255.401 374.366 258.192C367.682 261.798 360.35 260.964 358.446 260.666L343.344 271.744L343.158 271.489V296.676L352.64 291.349C352.838 290.146 353.781 285.648 357.363 281.504C362.533 275.527 371.779 274.231 385.1 277.619Z" fill="white"/>
<path d="M341.052 158.594C339.393 167.565 338.962 176.641 336.416 185.444C333.882 194.213 330.457 203.062 327.471 211.445C319.782 233.024 323.78 254.707 322.397 276.895C322.049 282.462 293.233 278.635 290.11 278.635C286.345 278.635 287.79 257.778 287.83 255.354C288.081 240.25 289.111 224.718 293.069 210.084C296.009 199.195 301.216 185.814 303.028 180.141C304.836 174.472 303.707 175.152 303.93 170.841C304.082 167.969 305.741 162.523 308.911 154.51C309.212 153.602 309.969 153.223 311.175 153.375L338.562 153.148C340.975 152.694 341.806 154.51 341.052 158.594Z" fill="#263238"/>
<path d="M340.599 157.233C338.788 161.768 337.883 169.48 335.618 174.245C333.354 179.007 327.244 183.999 316.38 183.545C309.138 183.243 305.214 180.446 304.609 175.152L304.029 174.257C303.958 173.427 303.843 172.507 303.93 170.841C304.082 167.969 305.742 162.523 308.911 154.51C309.212 153.602 309.969 153.223 311.175 153.375L338.562 153.148C340.168 152.85 341.065 153.754 341.245 155.865C341.006 156.322 340.779 156.776 340.599 157.233Z" fill="#0094FF"/>
<path d="M339.669 153.313L339.697 153.279C340.649 153.639 341.747 154.83 341.052 158.594C339.393 167.565 338.962 176.641 336.416 185.444C333.882 194.213 330.458 203.062 327.471 211.445C319.782 233.024 323.78 254.707 322.397 276.895C322.341 277.762 321.593 278.402 320.362 278.862C320.375 277.734 320.34 276.606 320.201 275.906C319.835 274.066 318.731 232.464 321.302 220.683C323.873 208.903 330.485 196.019 332.325 184.605C334.161 173.194 333.057 171.354 334.896 164.727C336.118 160.31 337.712 156.505 339.669 153.313Z" fill="#0094FF"/>
<path d="M315.424 342.907V345.487C315.424 347.112 314.109 348.43 312.487 348.43C310.865 348.43 309.547 347.112 309.547 345.487V345.117L281.264 341.822V345.853C281.264 347.277 280.11 348.43 278.693 348.43C277.273 348.43 276.122 347.277 276.122 345.853V341.949L248.937 345.117V345.487C248.937 347.112 247.622 348.43 246 348.43C244.375 348.43 243.06 347.112 243.06 345.487V342.907L275.57 332.525V306.461H271.898V290.264H285.488V306.461H281.813V332.083L281.999 332.233L315.424 342.907Z" fill="#263238"/>
<path d="M320.756 293.248H240.02C237.967 293.248 236.298 291.579 236.298 289.518V278.191C236.298 276.13 237.967 274.461 240.02 274.461H320.756C322.812 274.461 324.478 276.13 324.478 278.191V289.518C324.478 291.579 322.812 293.248 320.756 293.248Z" fill="#263238"/>
<path d="M2.9526 153.148L30.339 153.375C31.5455 153.223 32.3023 153.602 32.6031 154.51C35.7729 162.523 37.4322 167.969 37.5842 170.841C37.8075 175.152 36.6785 174.472 38.4867 180.141C40.298 185.814 45.5054 199.195 48.4457 210.084C52.4032 224.718 53.4329 240.25 53.6841 255.354C53.7245 257.778 55.1698 278.635 51.4045 278.635C48.2813 278.635 19.4651 282.462 19.1177 276.895C17.7344 254.707 21.7323 233.024 14.0436 211.445C11.0569 203.062 7.63279 194.213 5.09885 185.444C2.5525 176.641 2.12139 167.565 0.462078 158.594C-0.291591 154.51 0.539616 152.694 2.9526 153.148Z" fill="#263238"/>
<path d="M0.269165 155.865C0.449053 153.754 1.34539 152.85 2.95198 153.148L30.3384 153.375C31.5449 153.223 32.3017 153.602 32.6025 154.51C35.7723 162.523 37.4316 167.969 37.5835 170.841C37.6704 172.507 37.5556 173.427 37.4843 174.257L36.9043 175.152C36.2995 180.446 32.3761 183.243 25.134 183.545C14.2694 183.999 8.15943 179.007 5.89532 174.245C3.63121 169.479 2.72557 161.768 0.914281 157.233C0.734393 156.776 0.507982 156.322 0.269165 155.865Z" fill="#0094FF"/>
<path d="M6.61855 164.727C8.45775 171.354 7.35361 173.194 9.18971 184.605C11.0289 196.019 17.6413 208.903 20.2125 220.683C22.7837 232.464 21.6795 274.066 21.3135 275.906C21.174 276.606 21.1399 277.734 21.1523 278.862C19.921 278.402 19.1735 277.762 19.1177 276.895C17.7344 254.707 21.7323 233.024 14.0436 211.445C11.0568 203.062 7.63275 194.213 5.09881 185.444C2.55246 176.641 2.12135 167.565 0.462036 158.594C-0.232704 154.83 0.865234 153.639 1.8174 153.279L1.84531 153.313C3.80237 156.505 5.39655 160.31 6.61855 164.727Z" fill="#0094FF"/>
<path d="M59.515 332.233L59.7011 332.083V306.461H56.0258V290.264H69.6167V306.461H65.9445V332.525L98.4546 342.907V345.487C98.4546 347.112 97.1396 348.43 95.5144 348.43C93.8923 348.43 92.5772 347.112 92.5772 345.487V345.117L65.3924 341.949V345.853C65.3924 347.277 64.2417 348.43 62.8213 348.43C61.4008 348.43 60.2501 347.277 60.2501 345.853V341.822L31.9673 345.117V345.487C31.9673 347.112 30.6492 348.43 29.0271 348.43C27.405 348.43 26.09 347.112 26.09 345.487V342.907L59.515 332.233Z" fill="#263238"/>
<path d="M17.0366 289.518V278.191C17.0366 276.13 18.7021 274.461 20.7584 274.461H101.494C103.547 274.461 105.216 276.13 105.216 278.191V289.518C105.216 291.579 103.547 293.248 101.494 293.248H20.7584C18.7021 293.248 17.0366 291.579 17.0366 289.518Z" fill="#263238"/>
<path d="M304.569 349.033H83.496V221.694H304.569V349.033Z" fill="#CCCCCC"/>
<path d="M304.395 228.274H83.6014V224.752H304.395V228.274Z" fill="#263238"/>
<path d="M306.21 225.175H78.5739V219.608H306.21V225.175Z" fill="#CCCCCC"/>
<path d="M142.357 208.548C144.094 216.326 144.909 221.29 144.807 223.441C144.655 226.664 138.526 235.414 138.374 233.418C138.272 232.088 138.629 230.45 139.447 228.504C138.018 230.45 137.047 231.37 136.535 231.267C136.027 231.165 136.228 229.785 137.149 227.124C135.617 228.659 134.597 229.272 134.085 228.964C133.573 228.659 134.135 227.379 135.769 225.128C133.933 227.071 132.962 227.736 132.86 227.124C132.758 226.508 133.573 224.923 135.31 222.365C133.573 218.682 132.655 216.071 132.553 214.535C132.45 213 132.962 211.517 134.085 210.084L142.357 208.548Z" fill="#D9D9D9"/>
<path d="M142.357 208.548C144.094 216.326 144.909 221.29 144.807 223.441C144.655 226.664 138.526 235.414 138.374 233.418C138.272 232.088 138.629 230.45 139.447 228.504C138.018 230.45 137.047 231.37 136.535 231.267C136.027 231.165 136.228 229.785 137.149 227.124C135.617 228.659 134.597 229.272 134.085 228.964C133.573 228.659 134.135 227.379 135.769 225.128C133.933 227.071 132.962 227.736 132.86 227.124C132.758 226.508 133.573 224.923 135.31 222.365C133.573 218.682 132.655 216.071 132.553 214.535C132.45 213 132.962 211.517 134.085 210.084L142.357 208.548Z" fill="white" stroke="#263238" stroke-width="3" stroke-linecap="round" stroke-linejoin="round"/>
<path d="M141.743 208.548C142.968 213.972 143.532 217.451 143.43 218.986C143.275 221.29 140.977 228.044 139.292 226.816C138.17 225.999 138.526 224.053 140.366 220.982C137.208 218.766 135.27 216.618 134.544 214.535C133.821 212.453 133.666 210.97 134.085 210.084L141.743 208.548Z" fill="#D9D9D9"/>
<path d="M141.743 208.548C142.968 213.972 143.532 217.451 143.43 218.986C143.275 221.29 140.977 228.044 139.292 226.816C138.17 225.999 138.526 224.053 140.366 220.982C137.208 218.766 135.27 216.618 134.544 214.535C133.821 212.453 133.666 210.97 134.085 210.084L141.743 208.548Z" fill="white" stroke="#263238" stroke-width="3" stroke-linecap="round" stroke-linejoin="round"/>
<path d="M136.126 170.393L142.651 209.332L133.458 211.414L124.262 181.391L136.126 170.393Z" fill="#263238" stroke="#263238" stroke-width="3" stroke-linecap="round" stroke-linejoin="round"/>
<path d="M133.458 189.417C133.852 220.329 134.348 239.949 134.941 248.27C135.831 260.756 132.568 277.401 129.603 282.157C126.635 286.913 113.587 316.635 114.179 318.419C114.772 320.203 117.442 325.553 117.442 327.039C117.442 328.03 117.442 330.11 117.442 333.28C127.327 339.82 132.667 343.09 133.458 343.09C134.643 343.09 136.126 345.468 133.161 347.252C130.196 349.033 96.9783 349.033 95.4958 347.846C94.5064 347.053 93.8147 345.962 93.4177 344.576C90.2542 345.766 88.7717 344.874 88.9702 341.9C89.1687 338.928 91.0451 331.101 94.6056 318.419C92.4284 304.547 91.7367 293.155 92.5276 284.237C93.7155 270.861 97.8684 254.81 97.8684 251.54C97.8684 248.27 93.7155 226.574 93.1231 223.005C92.5276 219.437 83.9271 209.332 87.7823 201.306C91.6375 193.28 94.6056 180.499 95.7904 179.61C96.9783 178.718 112.995 178.121 119.517 179.61C126.043 181.095 133.161 181.095 133.458 189.417Z" fill="#263238" stroke="#263238" stroke-width="3" stroke-linecap="round" stroke-linejoin="round"/>
<path opacity="0.169" d="M110.34 95.7868C112.61 97.5368 120.469 102.265 125.187 108.04C129.901 113.815 140.555 133.597 140.555 139.897C140.555 144.097 139.274 153.726 136.712 168.777L136.365 210.817L131.647 213.969V188.733L127.631 214.318C118.664 217.003 110.69 217.177 103.702 214.843C96.7178 212.508 91.8856 210.118 89.2059 207.666V201.89L85.7136 205.742L82.2213 204.34L94.2707 173.505C88.9175 151.566 86.2967 136.979 86.4115 129.746C86.5882 118.891 97.242 103.663 98.1135 102.087C98.6966 101.04 100.675 98.9978 104.053 95.964C106.73 94.6803 108.826 94.6212 110.34 95.7868Z" fill="white"/>
<path d="M89.1346 133.236C93.362 136.236 96.8853 138.266 99.7046 139.326" stroke="#263238" stroke-width="3" stroke-linecap="round" stroke-linejoin="round"/>
<path d="M90.9862 138.001C95.7408 139.238 99.351 139.854 101.817 139.854" stroke="#263238" stroke-width="3" stroke-linecap="round" stroke-linejoin="round"/>
<path d="M101.289 180.368L121.369 182.749L120.047 186.986L101.553 184.869" stroke="#263238" stroke-width="3" stroke-linecap="round" stroke-linejoin="round"/>
<path d="M110.34 95.7868C112.61 97.5368 120.469 102.265 125.187 108.04C129.901 113.815 140.555 133.597 140.555 139.897C140.555 144.097 139.274 153.726 136.712 168.777L136.365 210.817L131.647 213.969V188.733L127.631 214.318C118.664 217.003 110.69 217.177 103.702 214.843C96.7178 212.508 91.8856 210.118 89.2059 207.666V201.89L85.7136 205.742L82.2213 204.34L94.2707 173.505C88.9175 151.566 86.2967 136.979 86.4115 129.746C86.5882 118.891 97.242 103.663 98.1135 102.087C98.6966 101.04 100.675 98.9978 104.053 95.964C106.73 94.6803 108.826 94.6212 110.34 95.7868Z" fill="#263238" stroke="#263238" stroke-width="3" stroke-linecap="round" stroke-linejoin="round"/>
<path d="M116.627 101.388C117.675 103.841 127.107 114.866 129.203 119.242C130.599 122.161 132.112 128.987 133.744 139.723L122.392 118.018L103.005 97.0115C111.388 98.2953 115.929 99.7562 116.627 101.388Z" fill="white" stroke="#263238" stroke-width="3" stroke-linecap="round" stroke-linejoin="round"/>
<path d="M126.325 121.232L122.392 118.018L121.121 111.151L124.16 111.761C126.344 114.67 128.363 117.489 129.203 119.242L130.317 122.456C131.489 126.65 132.633 132.406 133.744 139.723L128.375 129.46L126.325 121.232Z" fill="#263238" stroke="#263238" stroke-width="3" stroke-linecap="round" stroke-linejoin="round"/>
<path d="M123.202 104.894L124.207 106.066L127.364 109.762L129.203 119.242L121.121 111.151C121.815 107.906 122.51 105.821 123.202 104.894Z" fill="white" stroke="#263238" stroke-width="3" stroke-linecap="round" stroke-linejoin="round"/>
<path d="M132.348 65.8566C135.18 68.0324 136.771 70.171 137.121 72.2722C137.645 75.421 136.073 78.9241 136.247 80.1488C136.42 81.3735 139.565 84.1741 139.392 85.5759C139.274 86.5084 138.343 87.1488 136.597 87.5C134.696 94.4254 133.511 98.4725 133.046 99.6381C132.348 101.388 128.853 100.863 126.235 100.515L121.518 114.518L105.973 96.1381L108.42 88.7869C103.994 83.4187 101.609 77.8766 101.258 72.1572C100.734 63.5813 107.545 57.6288 117.327 56.4041C127.106 55.1794 135.316 59.9041 136.364 61.8313C137.062 63.115 135.722 64.4547 132.348 65.8566Z" fill="#D9D9D9"/>
<path d="M105.973 96.1381L108.42 88.7869C103.994 83.4187 101.609 77.8766 101.258 72.1572C100.989 67.7402 102.676 64.0289 105.7 61.2904C110.566 61.3805 116.046 62.2074 119.058 65.0733C123.22 68.8282 125.301 72.3748 125.301 75.71C125.301 80.7176 118.745 90.7296 120.618 94.1705C122.125 96.94 129.495 99.1003 132.475 100.328C131.204 101.214 128.418 100.807 126.235 100.515L125.211 103.552C121.248 104.453 116.853 105.364 114.229 105.898L105.973 96.1381Z" fill="#B8B8B8"/>
<path d="M132.348 65.8566C135.18 68.0324 136.771 70.171 137.121 72.2722C137.645 75.421 136.073 78.9241 136.247 80.1488C136.42 81.3735 139.565 84.1741 139.392 85.5759C139.274 86.5084 138.343 87.1488 136.597 87.5C134.696 94.4254 133.511 98.4725 133.046 99.6381C132.348 101.388 128.853 100.863 126.235 100.515L121.518 114.518L105.973 96.1381L108.42 88.7869C103.994 83.4187 101.609 77.8766 101.258 72.1572C100.734 63.5813 107.545 57.6288 117.327 56.4041C127.106 55.1794 135.316 59.9041 136.364 61.8313C137.062 63.115 135.722 64.4547 132.348 65.8566Z" fill="white" stroke="#263238" stroke-width="3" stroke-linecap="round" stroke-linejoin="round"/>
<path d="M119.074 68.306C119.598 70.2331 124.138 71.9831 122.566 74.0813C120.993 76.1825 119.771 76.7078 118.9 77.4072C118.025 78.1097 119.247 82.3091 117.852 82.4831C116.453 82.6603 115.929 83.885 115.929 81.9609C115.929 80.0338 114.182 78.9831 111.562 79.5084C108.944 80.0338 109.118 86.1603 111.214 88.0844C112.61 89.3681 114.009 89.6013 115.404 88.7869C112.914 90.7078 110.461 91.0808 108.048 89.9028L108.42 88.7869C103.994 83.4188 101.609 77.8766 101.258 72.1572C100.734 63.5813 107.545 57.6288 117.327 56.4041C127.106 55.1794 135.316 59.9041 136.364 61.8313C137.062 63.115 135.722 64.4547 132.348 65.8566C123.149 66.2047 118.723 67.0222 119.074 68.306Z" fill="#263238" stroke="#263238" stroke-width="3" stroke-linecap="round" stroke-linejoin="round"/>
<path d="M133.294 80.6057H130.363L133.601 79.524" stroke="#263238" stroke-width="3" stroke-linecap="round" stroke-linejoin="round"/>
<path d="M130.208 76.742C130.313 76.3317 130.878 75.8157 131.905 75.1972C132.934 74.5786 133.911 74.9392 134.835 76.2789" stroke="#263238" stroke-width="3" stroke-linecap="round" stroke-linejoin="round"/>
<path d="M131.514 90.3379C132.342 91.0031 133.421 91.2549 134.749 91.087" stroke="#263238" stroke-width="3" stroke-linecap="round" stroke-linejoin="round"/>
<path d="M105.275 92.8122L124.836 112.065L123.09 120.293L102.307 97.8881L105.275 92.8122Z" fill="white" stroke="#263238" stroke-width="3" stroke-linecap="round" stroke-linejoin="round"/>
<path d="M181.34 176.874C176.749 178.739 173.338 179.237 171.105 178.366C167.755 177.061 161.989 174.636 161.245 172.771C160.501 170.906 171.291 163.076 172.407 162.703C173.152 162.455 175.819 163.698 180.409 166.433L181.34 176.874Z" fill="white" stroke="#263238" stroke-width="3" stroke-linecap="round" stroke-linejoin="round"/>
<path d="M160.314 164.941C164.281 162.703 166.576 161.584 167.197 161.584C167.817 161.584 169.926 163.201 173.524 166.433L171.291 169.787C176.005 172.15 178.114 173.766 177.618 174.636C176.873 175.942 174.082 177.993 171.105 178.366C169.12 178.615 165.336 176.937 159.756 173.331L160.314 164.941Z" fill="#D9D9D9"/>
<path d="M160.314 164.941C164.281 162.703 166.576 161.584 167.197 161.584C167.817 161.584 169.926 163.201 173.524 166.433L171.291 169.787C176.005 172.15 178.114 173.766 177.618 174.636C176.873 175.942 174.082 177.993 171.105 178.366C169.12 178.615 165.336 176.937 159.756 173.331L160.314 164.941Z" fill="white" stroke="#263238" stroke-width="3" stroke-linecap="round" stroke-linejoin="round"/>
<path d="M156.22 163.449L161.431 164.382L159.756 173.331L155.29 171.839L156.22 163.449Z" fill="white" stroke="#263238" stroke-width="3" stroke-linecap="round" stroke-linejoin="round"/>
<path opacity="0.169" d="M108.584 114.216L121.238 153.192L158.454 163.822L156.593 173.331C127.566 172.46 112.554 171.59 111.562 170.72C110.073 169.417 89.606 130.815 90.1643 125.966C90.5365 122.733 92.3974 117.884 95.747 111.419" fill="white"/>
<path d="M108.584 114.216L121.238 153.192L158.454 163.822L156.593 173.331C127.566 172.46 112.554 171.59 111.562 170.72C110.073 169.417 89.606 130.815 90.1643 125.966C90.5365 122.733 92.3974 117.884 95.747 111.419" fill="#263238"/>
<path d="M108.584 114.216L121.238 153.192L158.454 163.822L156.593 173.331C127.566 172.46 112.554 171.59 111.562 170.72C110.073 169.417 89.606 130.815 90.1643 125.966C90.5365 122.733 92.3974 117.884 95.747 111.419" stroke="#263238" stroke-width="3" stroke-linecap="round" stroke-linejoin="round"/>
<path d="M173.71 167.925C170.484 171.528 168.003 173.269 166.266 173.144C163.661 172.958 169.43 166.62 170.36 164.009C170.981 162.268 172.159 162.144 173.896 163.636" fill="white"/>
<path d="M173.71 167.925C170.484 171.528 168.003 173.269 166.266 173.144C163.661 172.958 169.43 166.62 170.36 164.009C170.981 162.268 172.159 162.144 173.896 163.636" stroke="#263238" stroke-width="3" stroke-linecap="round" stroke-linejoin="round"/>
<path d="M164.777 175.009C165.05 176.874 164.411 179.482 163.292 178.553C162.222 177.667 161.912 176.175 162.361 174.077C162.92 172.585 164.495 173.085 164.777 175.009Z" fill="white" stroke="#263238" stroke-width="3" stroke-linecap="round" stroke-linejoin="round"/>
<path d="M167.383 175.755C167.656 177.62 167.017 180.228 165.894 179.299C164.827 178.413 164.517 176.921 164.964 174.823C165.522 173.331 167.101 173.831 167.383 175.755Z" fill="white" stroke="#263238" stroke-width="3" stroke-linecap="round" stroke-linejoin="round"/>
<path d="M169.988 176.874C170.261 178.739 169.622 181.347 168.499 180.418C167.432 179.532 167.122 178.04 167.569 175.942C168.127 174.45 169.706 174.95 169.988 176.874Z" fill="white" stroke="#263238" stroke-width="3" stroke-linecap="round" stroke-linejoin="round"/>
<path d="M172.373 178.093C172.624 179.349 172.035 181.108 171.005 180.48C170.022 179.883 169.737 178.879 170.149 177.462C170.661 176.458 172.113 176.794 172.373 178.093Z" fill="white" stroke="#263238" stroke-width="3" stroke-linecap="round" stroke-linejoin="round"/>
<path d="M184.131 166.247L185.061 177.247L180.967 178.366L180.409 166.433L184.131 166.247Z" stroke="#263238" stroke-width="3" stroke-linecap="round" stroke-linejoin="round"/>
<path d="M216.88 157.668L216.136 176.128L185.061 179.485L183.201 165.314L216.88 157.668Z" fill="#263238" stroke="#263238" stroke-width="3" stroke-linecap="round" stroke-linejoin="round"/>
<path d="M128.713 221.818C124.954 246.983 123.078 263.827 123.078 272.347C123.078 285.129 114.477 306.53 114.179 318.419" stroke="white" stroke-width="3" stroke-linecap="round" stroke-linejoin="round"/>
<path d="M93.4178 344.576V342.792C98.1632 342.596 102.018 341.999 104.987 341.011C107.952 340.019 112.104 337.442 117.442 333.28C127.327 339.82 132.668 343.09 133.458 343.09C134.643 343.09 136.126 345.468 133.161 347.252C130.196 349.033 96.9784 349.033 95.4959 347.846C94.5065 347.053 93.8148 345.962 93.4178 344.576Z" fill="white" stroke="#263238" stroke-width="3" stroke-linecap="round" stroke-linejoin="round"/>
<path d="M95.4959 347.846C94.5437 347.084 93.9638 345.959 93.666 345.247C98.5385 345.459 112.635 346.009 121.595 345.766C127.125 345.614 131.523 345.086 134.832 344.374C135.046 345.207 134.724 346.31 133.161 347.252C130.196 349.033 96.9784 349.033 95.4959 347.846Z" fill="white" stroke="#263238" stroke-width="3" stroke-linecap="round" stroke-linejoin="round"/>
<path d="M88.9702 341.9C89.1687 338.928 91.0451 331.101 94.6056 318.419L93.4178 342.792L92.5555 344.809C91.2033 345.083 88.7531 345.145 88.9702 341.9Z" fill="#263238" stroke="#263238" stroke-width="3" stroke-linecap="round" stroke-linejoin="round"/>
<path d="M250.311 215.278C246.555 249.361 244.676 268.683 244.676 273.239C244.676 277.796 246.357 299.595 249.719 338.633L233.11 336.252C233.309 334.073 233.011 331.695 232.22 329.118C231.035 325.254 223.62 294.342 220.654 276.509C218.676 264.62 218.676 243.912 220.654 214.386L250.311 215.278Z" fill="#263238" stroke="#263238" stroke-width="3" stroke-linecap="round" stroke-linejoin="round"/>
<path d="M252.982 335.956C253.574 337.144 254.07 338.334 254.464 339.522C254.861 340.712 254.563 343.684 253.574 348.44H244.973L244.676 346.36L241.416 348.144C236.075 348.738 230.737 349.033 225.4 349.033C217.392 349.033 210.866 346.954 212.941 345.468C214.327 344.476 221.048 341.405 233.11 336.252L252.982 335.956Z" fill="#263238" stroke="#263238" stroke-width="3" stroke-linecap="round" stroke-linejoin="round"/>
<path d="M257.135 209.925C256.539 213.096 255.947 216.17 255.354 219.142C254.464 223.599 250.311 227.463 250.017 231.031C249.719 234.596 251.201 256.889 251.201 265.214C251.201 273.535 252.982 277.401 252.982 284.237C252.982 291.072 254.464 319.607 254.166 324.067C253.971 327.039 253.816 331.623 253.71 337.821C250.851 338.757 247.743 339.226 244.381 339.226C241.019 339.226 236.767 338.633 231.628 337.442C231.231 336.65 230.936 335.758 230.738 334.766L231.925 330.902C232.518 329.118 232.812 326.939 232.812 324.362C232.812 320.499 226.585 283.643 223.027 268.484C220.655 258.375 218.974 239.156 217.984 210.818L257.135 209.925Z" fill="#263238" stroke="#263238" stroke-width="3" stroke-linecap="round" stroke-linejoin="round"/>
<path d="M221.538 255.519C227.065 293.944 230.52 314.366 231.901 316.79C233.284 319.212 233.588 321.739 232.813 324.362" stroke="white" stroke-width="3" stroke-linecap="round" stroke-linejoin="round"/>
<path d="M215.093 178.568L222.063 221.815C220.226 221.815 218.102 221.501 216.136 221.097C212.342 220.314 209.632 216.95 209.666 213.068C209.709 208.44 209.753 202.139 209.753 197.293C209.753 191.499 210.125 184.81 210.866 177.232C211.607 174.556 213.015 175 215.093 178.568Z" fill="#263238" stroke="#263238" stroke-width="3" stroke-linecap="round" stroke-linejoin="round"/>
<path d="M243.789 99.7997C245.864 100.891 247.396 102.028 248.385 103.219C249.375 104.406 250.411 106.041 251.499 108.124C259.901 117.831 264.203 123.184 264.402 124.172C264.597 125.164 262.224 141.265 257.284 172.476L265.735 216.764C256.638 221.815 248.63 224.491 241.711 224.79C234.4 225.103 223.415 222.763 217.553 221.352C215.143 220.77 213.375 218.725 213.149 216.254C212.575 210.031 211.496 197.641 210.866 185.851C210.137 172.187 212.2 145.129 213.685 135.617C215.168 126.106 219.764 113.175 223.322 107.826C226.882 102.476 236.671 96.9774 243.789 99.7997Z" fill="#263238" stroke="#263238" stroke-width="3" stroke-linecap="round" stroke-linejoin="round"/>
<path opacity="0.169" d="M251.986 108.687C248.333 111.556 241.695 117.157 234.593 125.064C227.475 132.991 221.297 140.323 216.058 147.062C215.86 139.232 216.551 132.198 218.133 125.956C220.354 117.188 225.046 106.467 225.636 105.14C230.13 100.853 237.874 97.4529 243.789 99.7997C245.864 100.891 247.396 102.028 248.385 103.219C249.375 104.406 250.411 106.041 251.499 108.124C251.617 108.261 251.781 108.447 251.986 108.687Z" fill="white"/>
<path d="M251.986 108.687C248.333 111.556 241.695 117.157 234.593 125.064C227.475 132.991 221.297 140.323 216.058 147.062C215.86 139.232 216.551 132.198 218.133 125.956C220.354 117.188 225.046 106.467 225.636 105.14C230.13 100.853 237.874 97.4529 243.789 99.7997C245.864 100.891 247.396 102.028 248.385 103.219C249.375 104.406 250.411 106.041 251.499 108.124C251.617 108.261 251.781 108.447 251.986 108.687Z" fill="#263238" stroke="#263238" stroke-width="3" stroke-linecap="round" stroke-linejoin="round"/>
<path d="M242.008 100.431L245.234 101.323C242.046 105.261 239.226 108.494 236.779 111.021C234.332 113.548 228.104 122.317 218.096 137.327C218.17 133.609 218.614 130.563 219.429 128.185C220.245 125.807 221.988 120.421 224.659 112.025L242.008 100.431Z" fill="white" stroke="#263238" stroke-width="3" stroke-linecap="round" stroke-linejoin="round"/>
<path d="M229.885 109.793L223.545 118.378C223.843 115.034 223.992 113.25 223.992 113.026C223.992 112.805 224.584 110.946 225.769 107.452L229.885 109.793Z" fill="white" stroke="#263238" stroke-width="3" stroke-linecap="round" stroke-linejoin="round"/>
<path d="M245.011 100.766L227.214 118.935L224.547 111.133L241.897 96.9774L245.011 100.766Z" fill="white" stroke="#263238" stroke-width="3" stroke-linecap="round" stroke-linejoin="round"/>
<path d="M249.995 212.095C250.969 219.981 251.459 224.566 251.459 225.849C251.459 227.133 251.245 227.836 250.817 227.96C250.451 229.915 250.206 231.168 250.085 231.718C249.964 232.268 249.17 232.912 247.706 233.645C247.402 234.5 246.974 235.327 246.425 236.119C245.876 236.915 245.144 237.251 244.229 237.13C244.108 238.106 243.618 238.687 242.765 238.87C241.912 239.054 241.149 238.078 240.479 235.936C239.686 235.877 239.106 235.784 238.74 235.663C238.374 235.538 238.039 233.369 237.735 229.151C236.758 229.029 236.24 228.694 236.178 228.143C236.088 227.317 235.722 219.431 236.454 217.413C236.941 216.071 238.008 213.348 239.654 209.254L249.995 212.095Z" fill="white" stroke="#263238" stroke-width="3" stroke-linecap="round" stroke-linejoin="round"/>
<path d="M237.735 229.151L238.005 223.577" stroke="#263238" stroke-width="3" stroke-linecap="round" stroke-linejoin="round"/>
<path d="M240.479 235.936L241.075 227.683" stroke="#263238" stroke-width="3" stroke-linecap="round" stroke-linejoin="round"/>
<path d="M244.229 237.13L244.657 228.196" stroke="#263238" stroke-width="3" stroke-linecap="round" stroke-linejoin="round"/>
<path d="M247.706 233.645L248.243 227.425" stroke="#263238" stroke-width="3" stroke-linecap="round" stroke-linejoin="round"/>
<path d="M257.727 120.159L264.401 124.172L262.175 170.393L250.311 214.087L239.043 211.116L242.601 176.635L240.821 141.859C242.502 136.46 245.271 132.273 249.126 129.301" fill="#263238"/>
<path d="M257.727 120.159L264.401 124.172L262.175 170.393L250.311 214.087L239.043 211.116L242.601 176.635L240.821 141.859C242.502 136.46 245.271 132.273 249.126 129.301" stroke="#263238" stroke-width="3" stroke-linecap="round" stroke-linejoin="round"/>
<path d="M244.009 127.964C241.984 133.115 240.92 137.746 240.821 141.859" stroke="white" stroke-width="3" stroke-linecap="round" stroke-linejoin="round"/>
<path d="M239.155 207.557L242.709 179.877C241.798 158.501 241.342 146.534 241.342 143.979C241.342 141.421 243.075 137.308 246.537 131.645" stroke="white" stroke-width="3" stroke-linecap="round" stroke-linejoin="round"/>
<path d="M247.234 73.4565C247.309 77.4693 244.936 83.7109 240.116 92.1843L241.785 99.0941L235.092 105.528L222.453 105.068L221.433 103.775C220.161 104.229 218.902 104.602 217.655 104.897L215.205 104.807C220.409 101.889 223.427 99.0724 224.258 96.3588C225.508 92.2931 219.888 86.6607 219.265 82.595C218.849 79.8814 220.723 76.7544 224.885 73.2078L237.995 67.8894C239.62 67.1714 241.286 66.7393 242.914 66.4907C245.488 68.7473 247.194 71.2371 247.234 73.4565Z" fill="#B8B8B8"/>
<path d="M210.643 65.21C208.974 62.8663 217.206 59.6368 225.992 59.5249C234.779 59.413 247.123 67.4387 247.234 73.4565C247.309 77.4694 244.936 83.7109 240.116 92.1843L241.785 99.0941L228.104 112.246L221.433 103.775C217.28 105.261 214.87 105.671 214.203 105C213.536 104.332 212.349 100.431 210.643 93.2971C208.568 92.7034 207.309 92.147 206.862 91.6248C206.418 91.1057 208.05 88.5413 211.756 83.9347C211.533 82.4489 211.313 81.2211 211.089 80.2576C210.866 79.2909 211.942 75.4272 214.315 68.6634C212.978 67.9205 211.756 66.7704 210.643 65.21Z" fill="white" stroke="#263238" stroke-width="3" stroke-linecap="round" stroke-linejoin="round"/>
<path d="M240.56 94.0151C239.741 94.4534 238.929 94.8699 238.228 95.1932C235.557 96.4179 229.441 92.2931 229.885 91.9605C230.331 91.6248 232.332 88.0595 231.888 84.2704C231.442 80.4782 228.328 81.706 227.438 82.5981C226.547 83.4902 225.881 84.8268 224.547 84.4911C223.657 84.2704 223.508 83.1545 224.1 81.1465C220.543 79.8845 218.393 78.7345 217.652 77.6932C216.539 76.1328 219.764 72.5644 219.764 71.8961C219.764 71.4516 217.947 70.373 214.315 68.6634C212.978 67.9205 211.756 66.7704 210.643 65.21C208.974 62.8663 217.206 59.6368 225.992 59.5249C234.779 59.413 247.123 67.4387 247.235 73.4565C247.309 77.4694 244.936 83.7109 240.117 92.1843L240.56 94.0151Z" fill="#263238" stroke="#263238" stroke-width="3" stroke-linecap="round" stroke-linejoin="round"/>
<path d="M214.203 83.7109C214.203 85.3739 213.853 86.7198 213.425 86.7198C212.994 86.7198 212.646 85.3739 212.646 83.7109C212.646 82.0511 212.994 80.7021 213.425 80.7021C213.853 80.7021 214.203 82.0511 214.203 83.7109Z" stroke="#263238" stroke-width="3" stroke-linecap="round" stroke-linejoin="round"/>
<path d="M214.315 82.4862L227.437 82.5981" stroke="#263238" stroke-width="3" stroke-linecap="round" stroke-linejoin="round"/>
<path d="M212.159 78.8619C212.988 77.5315 213.816 77.6963 214.647 79.3592" stroke="#263238" stroke-width="3" stroke-linecap="round" stroke-linejoin="round"/>
<path d="M211.908 95.0688C213.236 94.5684 214.479 93.8224 215.642 92.8246" stroke="#263238" stroke-width="3" stroke-linecap="round" stroke-linejoin="round"/>
<path d="M8.00195 349.033H374.208" stroke="#263238" stroke-width="6"/>
</g>
<defs>
<clipPath id="clip0_152_3908">
<rect width="388" height="350" fill="white"/>
</clipPath>
</defs>
</svg>
