<svg width="36" height="36" viewBox="0 0 36 36" fill="none" xmlns="http://www.w3.org/2000/svg">
<path d="M0 18C0 8.05888 8.05888 0 18 0C27.9411 0 36 8.05888 36 18C36 27.9411 27.9411 36 18 36C8.05888 36 0 27.9411 0 18Z" fill="#117BB7"/>
<path d="M23.3337 22.4444H20.9633V18.4444C20.9633 17.8171 20.2593 17.2923 19.632 17.2923C19.0047 17.2923 18.5929 17.8171 18.5929 18.4444V22.4444H16.2226V15.3333H18.5929V16.5185C18.9854 15.8836 19.9893 15.4739 20.6818 15.4739C22.1464 15.4739 23.3337 16.6836 23.3337 18.1481V22.4444ZM15.0374 22.4444H12.667V15.3333H15.0374V22.4444ZM13.8522 11.7778C14.5067 11.7778 15.0374 12.3084 15.0374 12.963C15.0374 13.6175 14.5067 14.1481 13.8522 14.1481C13.1976 14.1481 12.667 13.6175 12.667 12.963C12.667 12.3084 13.1976 11.7778 13.8522 11.7778Z" fill="white"/>
</svg>
