<svg width="36" height="36" viewBox="0 0 36 36" fill="none" xmlns="http://www.w3.org/2000/svg">
<path d="M0 18C0 8.05888 8.05888 0 18 0C27.9411 0 36 8.05888 36 18C36 27.9411 27.9411 36 18 36C8.05888 36 0 27.9411 0 18Z" fill="#25A8E0"/>
<path d="M24.973 14.0082C24.4599 14.2358 23.9084 14.3896 23.3298 14.4588C23.9204 14.1047 24.3741 13.544 24.5877 12.8758C24.0348 13.2037 23.4226 13.4418 22.7708 13.5701C22.249 13.0141 21.5054 12.6667 20.6825 12.6667C19.1024 12.6667 17.8213 13.9476 17.8213 15.5277C17.8213 15.7519 17.8466 15.9703 17.8954 16.1797C15.5176 16.0604 13.4093 14.9213 11.9982 13.1903C11.7519 13.6129 11.6108 14.1044 11.6108 14.6287C11.6108 15.6213 12.1159 16.4971 12.8837 17.0102C12.4147 16.9953 11.9735 16.8666 11.5878 16.6523C11.5875 16.6642 11.5875 16.6762 11.5875 16.6883C11.5875 18.0745 12.5737 19.2309 13.8826 19.4937C13.6425 19.5591 13.3897 19.5941 13.1288 19.5941C12.9444 19.5941 12.7652 19.5761 12.5905 19.5428C12.9546 20.6794 14.0112 21.5067 15.2632 21.5297C14.284 22.2971 13.0503 22.7545 11.7099 22.7545C11.4789 22.7545 11.2512 22.7409 11.0273 22.7145C12.2935 23.5263 13.7974 24 15.4132 24C20.6758 24 23.5536 19.6403 23.5536 15.8594C23.5536 15.7354 23.5508 15.612 23.5453 15.4893C24.1044 15.0859 24.5894 14.582 24.973 14.0082Z" fill="white"/>
</svg>
