<svg width="94" height="34" viewBox="0 0 94 34" fill="none" xmlns="http://www.w3.org/2000/svg">
<path fill-rule="evenodd" clip-rule="evenodd" d="M32.8254 13.4286L48.7497 13.4286C48.7808 13.4175 48.8118 13.406 48.8427 13.3942C49.4847 13.148 50.0435 12.7452 50.4602 12.2282C50.8769 11.7112 51.1361 11.0991 51.2104 10.4565C51.2848 9.81379 51.1717 9.16434 50.8828 8.57654C50.594 7.98874 50.1403 7.48435 49.5694 7.11652C49.3133 6.95154 49.038 6.81677 48.7496 6.71429L32.8254 6.71429C32.0014 6.71429 31.3334 6.04627 31.3334 5.22222V1.49206C31.3334 0.66802 32.0014 0 32.8254 0H47.3643H47.3816H48.8651C49.1558 0 49.4271 0.0831447 49.6565 0.226952C51.04 0.505138 52.3566 1.03448 53.5288 1.78972C55.1288 2.82064 56.4006 4.23429 57.21 5.88171C58.0195 7.52914 58.3367 9.34935 58.1282 11.1505C57.9217 12.9344 57.2072 14.6343 56.0589 16.0744C56.6339 16.514 57.1602 17.0009 57.6292 17.5298C58.938 19.0056 59.7521 20.7529 59.9858 22.5874C60.2194 24.422 59.8639 26.2759 58.9568 27.9538C58.0496 29.6318 56.6244 31.0716 54.8312 32.1216C53.6324 32.8236 52.2988 33.334 50.8963 33.6332C50.6441 33.8283 50.3277 33.9444 49.9841 33.9444H47.9684C47.9445 33.9445 47.9206 33.9445 47.8967 33.9444H32.8254C32.0013 33.9444 31.3333 33.2764 31.3333 32.4524V28.7222C31.3333 27.8982 32.0013 27.2301 32.8254 27.2301H49.0148C49.5061 27.1227 49.9733 26.9425 50.394 26.6962C51.0338 26.3215 51.5423 25.8078 51.866 25.2091C52.1897 24.6104 52.3165 23.9489 52.2331 23.2944C52.1498 22.6398 51.8593 22.0164 51.3923 21.4898C50.9253 20.9632 50.2991 20.5529 49.5797 20.3022C49.3952 20.238 49.2063 20.1848 49.0145 20.1428H47.3943H47.3516H32.8254C32.0013 20.1428 31.3333 19.4748 31.3333 18.6508V14.9206C31.3333 14.0966 32.0013 13.4286 32.8254 13.4286ZM1.49206 0C0.66802 0 0 0.668022 0 1.49207V32.4524C0 33.2764 0.668021 33.9444 1.49206 33.9444H5.22222C6.04627 33.9444 6.71429 33.2764 6.71429 32.4524V1.49206C6.71429 0.66802 6.04626 0 5.22222 0H1.49206ZM77.9603 0C77.1363 0 76.4683 0.668022 76.4683 1.49207V32.4524C76.4683 33.2764 77.1363 33.9444 77.9603 33.9444H81.6905C82.5145 33.9444 83.1825 33.2764 83.1825 32.4524V6.71429L92.5079 6.71429C93.332 6.71429 94 6.04627 94 5.22222V1.49206C94 0.66802 93.332 0 92.5079 0H81.6905H78.3333H77.9603ZM22.0079 27.2301C22.832 27.2301 23.5 27.8982 23.5 28.7222V32.4524C23.5 33.2764 22.832 33.9444 22.0079 33.9444H10.8175C9.99342 33.9444 9.3254 33.2764 9.3254 32.4524V28.7222C9.3254 27.8982 9.99342 27.2301 10.8175 27.2301H22.0079ZM73.8572 1.49206C73.8572 0.66802 73.1891 0 72.3651 0H67.5159C66.6918 0 66.0238 0.668021 66.0238 1.49206V5.22222C66.0238 6.04627 66.6918 6.71428 67.5159 6.71428L72.3651 6.71429C73.1891 6.71429 73.8572 6.04626 73.8572 5.22222V1.49206Z" fill="white"/>
</svg>
