<svg width="155" height="56" viewBox="0 0 155 56" fill="none" xmlns="http://www.w3.org/2000/svg">
<path fill-rule="evenodd" clip-rule="evenodd" d="M53.1592 22.1428L80.3854 22.1428C80.4367 22.1245 80.4879 22.1057 80.5388 22.0861C81.5973 21.6803 82.5187 21.0161 83.2058 20.1636C83.8929 19.311 84.3203 18.3017 84.443 17.242C84.5656 16.1823 84.379 15.1114 83.9028 14.1422C83.4265 13.1729 82.6783 12.3412 81.7369 11.7347C81.3147 11.4626 80.8607 11.2404 80.3852 11.0714L53.1592 11.0714C52.3351 11.0714 51.6671 10.4034 51.6671 9.57936V1.49206C51.6671 0.668017 52.3351 0 53.1592 0H78.1009H78.1295H81.5441C82.0157 0 82.4361 0.218748 82.7095 0.560308C84.6876 1.05121 86.5684 1.85756 88.2657 2.95113C90.9041 4.65105 93.0011 6.98207 94.3359 9.69857C95.6706 12.4151 96.1937 15.4165 95.8499 18.3865C95.5094 21.3281 94.3311 24.131 92.4377 26.5058C93.3859 27.2305 94.2536 28.0335 95.0269 28.9054C97.1851 31.339 98.5275 34.2202 98.9128 37.2452C99.298 40.2703 98.7119 43.3273 97.216 46.0941C95.7202 48.8609 93.3701 51.2351 90.4133 52.9665C88.6413 54.0041 86.6908 54.7878 84.64 55.2944C84.3737 55.7025 83.9131 55.9722 83.3895 55.9722H79.0675C79.0476 55.9723 79.0277 55.9723 79.0079 55.9722L53.1593 55.9722C52.3353 55.9722 51.6673 55.3042 51.6673 54.4802V46.3929C51.6673 45.5688 52.3353 44.9008 53.1593 44.9008H80.8221C81.6324 44.7237 82.4028 44.4265 83.0965 44.0203C84.1515 43.4025 84.9901 42.5554 85.5238 41.5682C86.0575 40.581 86.2666 39.4903 86.1292 38.4109C85.9917 37.3316 85.5127 36.3036 84.7427 35.4353C83.9727 34.567 82.9401 33.8905 81.7538 33.4771C81.4495 33.3711 81.138 33.2834 80.8216 33.2142H78.1702C78.1335 33.2143 78.0969 33.2143 78.0603 33.2142H77.2539C77.112 33.2452 76.9714 33.2799 76.8323 33.3182C75.815 33.5981 74.6852 33.6203 73.7548 33.2142H53.1592C52.3352 33.2142 51.6672 32.5462 51.6672 31.7222V23.6348C51.6672 22.8108 52.3352 22.1428 53.1592 22.1428ZM1.49206 0C0.66802 0 0 0.668023 0 1.49207V54.4802C0 55.3042 0.668018 55.9722 1.49206 55.9722H9.57936C10.4034 55.9722 11.0714 55.3042 11.0714 54.4802V1.49206C11.0714 0.66802 10.4034 0 9.57937 0H1.49206ZM127.583 0C126.758 0 126.09 0.668023 126.09 1.49207V54.4802C126.09 55.3042 126.758 55.9722 127.583 55.9722H135.67C136.494 55.9722 137.162 55.3042 137.162 54.4802V11.0714L153.508 11.0714C154.332 11.0714 155 10.4034 155 9.57937V1.49206C155 0.66802 154.332 0 153.508 0H135.67H128.198H127.583ZM37.2579 44.9008C38.082 44.9008 38.75 45.5688 38.75 46.3929V54.4802C38.75 55.3042 38.082 55.9722 37.2579 55.9722L16.869 55.9722C16.045 55.9722 15.377 55.3042 15.377 54.4802V46.3929C15.377 45.5688 16.045 44.9008 16.869 44.9008H37.2579ZM121.786 1.49206C121.786 0.66802 121.118 0 120.294 0H110.362C109.538 0 108.87 0.668017 108.87 1.49206V9.57936C108.87 10.4034 109.538 11.0714 110.362 11.0714L120.294 11.0714C121.118 11.0714 121.786 10.4034 121.786 9.57937V1.49206Z" fill="#292A34"/>
</svg>
