<svg width="380" height="187" viewBox="0 0 380 187" fill="none" xmlns="http://www.w3.org/2000/svg">
<rect width="380" height="187" fill="white"/>
<path fill-rule="evenodd" clip-rule="evenodd" d="M192.529 84H194.691C194.774 83.9703 194.857 83.9396 194.94 83.9078C196.661 83.2479 198.159 82.1681 199.276 80.782C200.393 79.396 201.088 77.7551 201.288 76.0322C201.487 74.3093 201.184 72.5682 200.409 70.9924C199.635 69.4166 198.419 68.0644 196.888 67.0783C196.202 66.636 195.463 66.2748 194.691 66L152 66C149.791 66 148 64.2091 148 62V52C148 49.7909 149.791 48 152 48L190.977 48H191.023H195C195.779 48 196.507 48.2229 197.122 48.6084C200.831 49.3542 204.36 50.7733 207.503 52.798C211.792 55.5617 215.202 59.3515 217.372 63.768C219.542 68.1845 220.392 73.0642 219.833 77.8929C219.28 82.6753 217.364 87.2323 214.286 91.0932C215.827 92.2715 217.238 93.5769 218.495 94.9946C222.004 98.9512 224.187 103.635 224.813 108.553C225.439 113.472 224.486 118.442 222.054 122.94C219.622 127.438 215.802 131.298 210.994 134.113C207.78 135.995 204.205 137.363 200.446 138.165C199.769 138.689 198.921 139 198 139H192.528C192.509 139 192.49 139 192.472 139H152C149.791 139 148 137.209 148 135V125C148 122.791 149.791 121 152 121H195.401C196.718 120.712 197.971 120.229 199.099 119.568C200.814 118.564 202.177 117.187 203.045 115.582C203.913 113.977 204.253 112.203 204.029 110.449C203.806 108.694 203.027 107.023 201.775 105.611C200.523 104.199 198.844 103.099 196.916 102.427C196.421 102.255 195.915 102.112 195.401 102H191.024H190.976H152C149.791 102 148 100.209 148 98V88C148 85.7909 149.791 84 152 84L192.471 84C192.49 84 192.51 84 192.529 84ZM312 48C314.209 48 316 49.7909 316 52V62C316 64.2091 314.209 66 312 66L287 66V135C287 137.209 285.209 139 283 139H273C270.791 139 269 137.209 269 135V52C269 49.7909 270.791 48 273 48H274H283H312ZM68 48C65.7909 48 64 49.7909 64 52V135C64 137.209 65.7909 139 68 139H78C80.2091 139 82 137.209 82 135V52C82 49.7909 80.2091 48 78 48H68ZM123 121C125.209 121 127 122.791 127 125V135C127 137.209 125.209 139 123 139H93C90.7909 139 89 137.209 89 135V125C89 122.791 90.7909 121 93 121H123ZM262 52C262 49.7909 260.209 48 258 48H245C242.791 48 241 49.7909 241 52V62C241 64.2091 242.791 66 245 66H258C260.209 66 262 64.2091 262 62V52Z" fill="#292A34"/>
</svg>
