<svg width="71" height="61" viewBox="0 0 71 61" fill="none" xmlns="http://www.w3.org/2000/svg">
<path fill-rule="evenodd" clip-rule="evenodd" d="M70.6886 9.87093C60.1011 15.077 54.8074 21.1941 54.8074 28.2223C59.3201 28.743 63.0517 30.5868 66.0024 33.7538C68.953 36.9208 70.4283 40.5867 70.4283 44.7516C70.4283 49.1768 68.9964 52.9078 66.1325 55.9447C63.2687 58.9816 59.6672 60.5 55.3281 60.5C50.4682 60.5 46.2593 58.5261 42.7011 54.5781C39.143 50.6301 37.364 45.8363 37.364 40.1963C37.364 23.2765 46.8232 10.0445 65.742 0.5L70.6886 9.87093ZM33.3246 9.87093C22.6503 15.077 17.3132 21.1941 17.3132 28.2223C21.9127 28.743 25.6877 30.5868 28.6384 33.7538C31.589 36.9208 33.0643 40.5867 33.0643 44.7516C33.0643 49.1768 31.6107 52.9078 28.7034 55.9447C25.7962 58.9816 22.1731 60.5 17.8339 60.5C12.974 60.5 8.78679 58.5261 5.27206 54.5781C1.75734 50.6301 0 45.8363 0 40.1963C0 23.2765 9.41585 10.0445 28.2478 0.5L33.3246 9.87093Z" fill="white"/>
</svg>
