<svg width="29" height="34" viewBox="0 0 29 34" fill="none" xmlns="http://www.w3.org/2000/svg">
<path d="M28.4759 32.9707H0.524096C0.218373 32.9707 0 33.228 0 33.4854C0 33.7427 0.262048 34 0.524096 34H28.4759C28.7816 34 29 33.7427 29 33.4854C29 33.228 28.7816 32.9707 28.4759 32.9707Z" fill="#B0B0B0"/>
<path d="M13.4955 22.1628C13.7575 22.3344 13.9759 22.3344 14.238 22.077L27.9955 5.86524C28.6943 5.09325 28.6069 3.89238 27.7771 3.20617L24.5452 0.461312C23.759 -0.224901 22.5361 -0.139124 21.8373 0.675754L8.07982 16.9733C7.86145 17.2307 7.86145 17.488 8.1235 17.7024L13.4955 22.1628ZM22.6672 1.44774C22.9729 1.10464 23.497 1.06175 23.8464 1.36197L27.0783 4.06393C27.4277 4.36415 27.4714 4.87881 27.1657 5.22192L24.9819 7.75233L20.4834 3.97816L22.6672 1.44774ZM19.5226 7.75233C19.8283 7.75233 20.0467 8.00966 20.0467 8.26699C20.0467 8.52432 19.7846 8.78165 19.5226 8.78165C19.2605 8.78165 18.9985 8.52432 18.9985 8.26699C18.9985 8.00966 19.2169 7.75233 19.5226 7.75233ZM12.491 15.6867L17.1642 10.2399C17.3389 9.98253 17.6883 9.93964 17.9066 10.1112C18.1687 10.2827 18.2123 10.6259 18.0377 10.8403C18.0377 10.8832 13.3208 16.3729 13.3208 16.3729C13.1898 16.5016 12.8404 16.6731 12.5346 16.4158C12.3163 16.2013 12.2726 15.944 12.491 15.6867Z" fill="#B0B0B0"/>
<path d="M2.0527 31.5556C2.14005 31.6414 2.27107 31.7271 2.4021 31.7271C2.57679 31.7271 2.70782 31.6414 2.83884 31.5127C3.27559 30.998 3.79969 30.612 4.41113 30.2689C5.76505 29.5398 7.24999 29.3683 8.34185 29.7972C8.69125 29.9258 8.90963 29.7972 9.04065 29.4969C9.6521 27.9959 11.6611 24.865 11.6611 24.865C12.0105 24.3932 12.8403 23.4926 12.8403 23.4926C13.0587 23.2781 13.015 22.935 12.7967 22.7206C12.5783 22.5061 12.2289 22.549 12.0105 22.7635C11.5301 23.1924 11.137 23.707 10.7876 24.2646C10.7876 24.2646 8.86595 27.2668 8.21083 28.6392C6.72589 28.339 5.1536 28.5963 3.84336 29.3254C3.31926 29.6256 2.79517 29.9687 2.35842 30.3976L6.28914 25.8943C6.42017 25.9372 6.50752 25.9372 6.63854 25.9372C7.38101 25.9372 7.94878 25.3368 7.94878 24.6506C7.94878 23.9643 7.33734 23.3639 6.63854 23.3639C5.93975 23.3639 5.3283 23.9643 5.3283 24.6506C5.3283 24.865 5.37197 25.0366 5.45932 25.2081L1.5286 29.7114C1.878 29.1967 2.18372 28.6821 2.4021 28.0816C2.96987 26.7092 2.96987 25.1652 2.44577 23.7499C3.75601 22.935 6.46384 20.5762 6.46384 20.5762C6.94426 20.1473 7.38101 19.6755 7.77408 19.1609C7.94878 18.9035 7.99246 18.6462 7.68673 18.3889C7.38101 18.1744 7.11896 18.2602 6.90059 18.4746C6.55119 18.9464 6.15812 19.3753 5.72137 19.7613C5.72137 19.7613 2.88252 22.2059 1.48493 23.0637C1.22288 23.2352 1.13553 23.5355 1.31023 23.7928C1.878 24.7792 1.96535 26.2803 1.44125 27.6956C1.22288 28.339 0.873481 28.8965 0.436734 29.4112C0.262035 29.6256 0.262035 29.9687 0.524083 30.1403L2.0527 31.5556ZM6.33282 24.6506C6.33282 24.479 6.46384 24.3503 6.63854 24.3503C6.81324 24.3503 6.94426 24.479 6.94426 24.6506C6.94426 24.8221 6.81324 24.9508 6.63854 24.9508C6.46384 24.9508 6.33282 24.8221 6.33282 24.6506Z" fill="#B0B0B0"/>
<path d="M27.7334 28.8537C26.991 29.6257 25.8554 29.6686 25.3313 29.6257L24.5452 28.1675C24.4578 28.0389 24.4141 27.9102 24.1958 27.8673C24.0647 27.8244 23.89 27.9102 23.759 27.996L22.5361 28.768L22.3178 27.996C22.2741 27.8244 22.1431 27.6529 21.9684 27.61C21.7937 27.5671 21.619 27.5671 21.4443 27.6958L20.0467 28.8537L20.1777 26.1518C20.1777 25.8945 20.003 25.6371 19.741 25.5942C19.6973 25.5942 15.0241 24.7365 13.8885 29.6686C13.8012 29.9688 14.0196 30.2691 14.2816 30.312C14.5873 30.3548 14.8494 30.1833 14.9367 29.926C15.6792 26.7951 17.994 26.5807 18.9985 26.6236L18.8238 30.0546C18.8238 30.2691 18.9111 30.4835 19.1295 30.5693C19.3042 30.6551 19.5663 30.6551 19.741 30.4835L21.4443 29.0682L21.619 29.7544C21.6626 29.926 21.7063 30.0546 21.9247 30.1833C22.1867 30.2691 22.3178 30.1833 22.4488 30.0975L23.8464 29.2397L24.4578 30.4406C24.6762 30.7837 25.244 30.7837 25.637 30.7837C26.8599 30.7408 27.7334 30.3977 28.5196 29.6686C28.7379 29.4542 28.8253 29.0682 28.6069 28.8537C28.3012 28.5535 27.9518 28.6393 27.7334 28.8537Z" fill="#B0B0B0"/>
</svg>
