<svg width="36" height="34" viewBox="0 0 36 34" fill="none" xmlns="http://www.w3.org/2000/svg">
<path d="M28.7446 29.5414C28.7446 30.258 28.1872 30.8154 27.4706 30.8154H4.37937C3.66275 30.8154 3.10537 30.258 3.10537 29.5414V6.45014C3.10537 5.73351 3.66275 5.17614 4.37937 5.17614H21.5784V2.15039H4.37937C1.99062 2.15039 0 4.14101 0 6.52976V29.621C0 32.0097 1.99062 34.0004 4.37937 34.0004H27.4706C29.8594 34.0004 31.85 32.0097 31.85 29.621V14.97H28.7446V29.5414Z" fill="#B0B0B0"/>
<path d="M29.5409 0.955499L29.3816 1.11475L33.9202 5.65337L34.0795 5.49412C35.3535 4.22012 35.3535 2.2295 34.0795 0.955499C32.8055 -0.3185 30.8149 -0.3185 29.5409 0.955499Z" fill="#B0B0B0"/>
<path d="M13.377 17.1192L11.3067 23.0115C11.2271 23.4892 11.6252 23.8873 12.0234 23.7281L17.836 21.6578L32.4073 7.08647L27.8687 2.54785L13.377 17.1192Z" fill="#B0B0B0"/>
</svg>
