<svg width="385" height="385" viewBox="0 0 385 385" fill="none" xmlns="http://www.w3.org/2000/svg">
<path d="M192.5 192.5V1C232.941 1 272.344 13.8027 305.061 37.5732C337.778 61.3438 362.13 94.8617 374.627 133.323C387.124 171.785 387.124 213.215 374.627 251.677C362.13 290.138 337.778 323.656 305.061 347.427L192.5 192.5Z" fill="#3366CC" stroke="white" stroke-width="1.67982"/>
<path d="M192.499 192.5L79.9385 37.5732C112.656 13.8027 152.059 1 192.499 1V192.5Z" fill="#0099C6" stroke="white" stroke-width="1.67982"/>
<path d="M192.5 192.5L4.39206 228.384C-2.41725 192.688 1.07047 155.792 14.4479 122.004C27.8253 88.2168 50.5401 58.933 79.9392 37.5733L192.5 192.5Z" fill="#990099" stroke="white" stroke-width="1.67982"/>
<path d="M192.501 192.5L61.4098 332.097C31.9297 304.414 11.9704 268.108 4.39258 228.384L192.501 192.5Z" fill="#109618" stroke="white" stroke-width="1.67982"/>
<path d="M192.501 192.5L79.9401 347.427C73.4484 342.71 67.2595 337.59 61.4102 332.097L192.501 192.5Z" fill="#FF9900" stroke="white" stroke-width="1.67982"/>
<path d="M192.499 192.5L305.06 347.427C272.343 371.197 232.94 384 192.499 384C152.059 384 112.656 371.197 79.9385 347.427L192.499 192.5Z" fill="#DC3912" stroke="white" stroke-width="1.67982"/>
</svg>
