<svg width="335" height="200" viewBox="0 0 335 200" fill="none" xmlns="http://www.w3.org/2000/svg">
<path d="M31.7139 20V4.49056H42.9281V6.3208H33.7663V11.071H42.3462V12.8906H33.7663V18.1698H43.2878V20H31.7139ZM53.2113 15.8846L55.0838 16.1279C54.8793 17.4186 54.3538 18.4307 53.5075 19.1642C52.6682 19.8907 51.6349 20.2539 50.4077 20.2539C48.8702 20.2539 47.6324 19.7531 46.6943 18.7516C45.7633 17.7431 45.2979 16.3007 45.2979 14.4246C45.2979 13.2115 45.4989 12.1501 45.9009 11.2402C46.3029 10.3304 46.913 9.64979 47.7311 9.19841C48.5563 8.73996 49.452 8.51074 50.4183 8.51074C51.6385 8.51074 52.6364 8.82107 53.4123 9.44173C54.1881 10.0553 54.6853 10.9299 54.904 12.0654L53.0526 12.3511C52.8762 11.5964 52.5624 11.0286 52.111 10.6478C51.6667 10.2669 51.1271 10.0765 50.4923 10.0765C49.5331 10.0765 48.7538 10.4221 48.1543 11.1133C47.5548 11.7974 47.255 12.8836 47.255 14.3717C47.255 15.8811 47.5442 16.9778 48.1226 17.6619C48.7009 18.3461 49.4556 18.6882 50.3866 18.6882C51.1342 18.6882 51.7584 18.4589 52.2591 18.0005C52.7599 17.542 53.0773 16.8368 53.2113 15.8846ZM56.0042 14.3823C56.0042 12.3017 56.5826 10.7606 57.7393 9.75911C58.7055 8.92687 59.8834 8.51074 61.2728 8.51074C62.8174 8.51074 64.0799 9.01856 65.0602 10.0342C66.0406 11.0428 66.5308 12.4392 66.5308 14.2236C66.5308 15.6695 66.3121 16.8085 65.8748 17.6408C65.4446 18.466 64.8134 19.1078 63.9811 19.5662C63.1559 20.0247 62.2531 20.2539 61.2728 20.2539C59.7 20.2539 58.4269 19.7496 57.4536 18.741C56.4874 17.7325 56.0042 16.2796 56.0042 14.3823ZM57.9614 14.3823C57.9614 15.8211 58.2753 16.9002 58.903 17.6196C59.5307 18.332 60.3206 18.6882 61.2728 18.6882C62.2179 18.6882 63.0043 18.3285 63.632 17.609C64.2597 16.8896 64.5736 15.7929 64.5736 14.3188C64.5736 12.9294 64.2562 11.8785 63.6214 11.1662C62.9937 10.4468 62.2108 10.0871 61.2728 10.0871C60.3206 10.0871 59.5307 10.4433 58.903 11.1556C58.2753 11.8679 57.9614 12.9435 57.9614 14.3823ZM68.0119 16.6463L69.895 16.3501C70.0008 17.1048 70.2935 17.6831 70.7731 18.0851C71.2598 18.4871 71.9368 18.6882 72.8044 18.6882C73.6789 18.6882 74.3278 18.5118 74.751 18.1592C75.1742 17.7995 75.3857 17.3798 75.3857 16.9002C75.3857 16.47 75.1988 16.1315 74.825 15.8846C74.5641 15.7153 73.9152 15.5002 72.8784 15.2393C71.4819 14.8866 70.5122 14.5833 69.9691 14.3294C69.433 14.0685 69.024 13.7123 68.7419 13.2609C68.4668 12.8025 68.3293 12.2982 68.3293 11.748C68.3293 11.2473 68.4421 10.7853 68.6678 10.3621C68.9006 9.93191 69.2144 9.57574 69.6094 9.29362C69.9056 9.07498 70.3076 8.8916 70.8154 8.74349C71.3303 8.58832 71.8804 8.51074 72.4658 8.51074C73.3474 8.51074 74.1197 8.6377 74.7827 8.8916C75.4527 9.14551 75.9464 9.4911 76.2638 9.92839C76.5812 10.3586 76.7999 10.937 76.9198 11.6634L75.0578 11.9173C74.9731 11.339 74.7263 10.8876 74.3172 10.5632C73.9152 10.2387 73.3439 10.0765 72.6034 10.0765C71.7288 10.0765 71.1046 10.2211 70.7308 10.5103C70.357 10.7994 70.1701 11.138 70.1701 11.5259C70.1701 11.7727 70.2477 11.9949 70.4028 12.1924C70.558 12.3969 70.8013 12.5662 71.1328 12.7002C71.3232 12.7707 71.8839 12.9329 72.8149 13.1868C74.1621 13.5465 75.1001 13.8428 75.6291 14.0755C76.1651 14.3012 76.5847 14.6327 76.888 15.07C77.1913 15.5073 77.3429 16.0503 77.3429 16.6992C77.3429 17.334 77.156 17.9335 76.7822 18.4977C76.4155 19.0549 75.883 19.4887 75.1847 19.799C74.4865 20.1023 73.6966 20.2539 72.8149 20.2539C71.355 20.2539 70.2406 19.9506 69.4718 19.3441C68.7101 18.7375 68.2235 17.8383 68.0119 16.6463ZM79.5223 24.327L79.3107 22.5391C79.7268 22.6519 80.0901 22.7083 80.4004 22.7083C80.8236 22.7083 81.1621 22.6378 81.416 22.4967C81.6699 22.3557 81.878 22.1582 82.0402 21.9043C82.1601 21.7139 82.3541 21.2413 82.6221 20.4867C82.6573 20.3809 82.7138 20.2257 82.7913 20.0212L78.5278 8.76465H80.5802L82.9183 15.271C83.2216 16.0962 83.4931 16.9637 83.7329 17.8735C83.9516 16.999 84.2125 16.1456 84.5158 15.3133L86.9173 8.76465H88.8216L84.5475 20.1904C84.0891 21.4247 83.7329 22.2746 83.479 22.7401C83.1405 23.3678 82.7525 23.8262 82.3153 24.1154C81.878 24.4116 81.3561 24.5597 80.7495 24.5597C80.3828 24.5597 79.9737 24.4822 79.5223 24.327ZM89.6785 16.6463L91.5617 16.3501C91.6675 17.1048 91.9602 17.6831 92.4398 18.0851C92.9264 18.4871 93.6035 18.6882 94.471 18.6882C95.3456 18.6882 95.9945 18.5118 96.4176 18.1592C96.8408 17.7995 97.0524 17.3798 97.0524 16.9002C97.0524 16.47 96.8655 16.1315 96.4917 15.8846C96.2307 15.7153 95.5819 15.5002 94.5451 15.2393C93.1486 14.8866 92.1788 14.5833 91.6357 14.3294C91.0997 14.0685 90.6906 13.7123 90.4085 13.2609C90.1335 12.8025 89.9959 12.2982 89.9959 11.748C89.9959 11.2473 90.1088 10.7853 90.3345 10.3621C90.5672 9.93191 90.8811 9.57574 91.276 9.29362C91.5723 9.07498 91.9743 8.8916 92.4821 8.74349C92.997 8.58832 93.5471 8.51074 94.1325 8.51074C95.0141 8.51074 95.7864 8.6377 96.4494 8.8916C97.1194 9.14551 97.6131 9.4911 97.9305 9.92839C98.2479 10.3586 98.4665 10.937 98.5864 11.6634L96.7244 11.9173C96.6398 11.339 96.393 10.8876 95.9839 10.5632C95.5819 10.2387 95.0106 10.0765 94.27 10.0765C93.3955 10.0765 92.7713 10.2211 92.3975 10.5103C92.0237 10.7994 91.8367 11.138 91.8367 11.5259C91.8367 11.7727 91.9143 11.9949 92.0695 12.1924C92.2247 12.3969 92.468 12.5662 92.7995 12.7002C92.9899 12.7707 93.5506 12.9329 94.4816 13.1868C95.8287 13.5465 96.7668 13.8428 97.2957 14.0755C97.8318 14.3012 98.2514 14.6327 98.5547 15.07C98.858 15.5073 99.0096 16.0503 99.0096 16.6992C99.0096 17.334 98.8227 17.9335 98.4489 18.4977C98.0821 19.0549 97.5496 19.4887 96.8514 19.799C96.1532 20.1023 95.3632 20.2539 94.4816 20.2539C93.0216 20.2539 91.9073 19.9506 91.1385 19.3441C90.3768 18.7375 89.8901 17.8383 89.6785 16.6463ZM105.431 18.2967L105.706 19.9788C105.17 20.0917 104.691 20.1481 104.268 20.1481C103.576 20.1481 103.04 20.0388 102.66 19.8201C102.279 19.6015 102.011 19.3159 101.855 18.9632C101.7 18.6035 101.623 17.8524 101.623 16.7098V10.2458H100.226V8.76465H101.623V5.98226L103.516 4.83968V8.76465H105.431V10.2458H103.516V16.8156C103.516 17.3587 103.548 17.7078 103.612 17.863C103.682 18.0181 103.792 18.1415 103.94 18.2332C104.095 18.3249 104.313 18.3708 104.596 18.3708C104.807 18.3708 105.086 18.3461 105.431 18.2967ZM114.995 16.3818L116.963 16.6252C116.653 17.7748 116.078 18.667 115.238 19.3018C114.399 19.9365 113.327 20.2539 112.022 20.2539C110.379 20.2539 109.074 19.7496 108.108 18.741C107.149 17.7254 106.669 16.3043 106.669 14.4775C106.669 12.5873 107.156 11.1203 108.129 10.0765C109.102 9.03266 110.365 8.51074 111.917 8.51074C113.419 8.51074 114.646 9.02208 115.598 10.0448C116.55 11.0674 117.026 12.5062 117.026 14.3612C117.026 14.474 117.023 14.6433 117.016 14.869H108.637C108.707 16.1032 109.057 17.0483 109.684 17.7043C110.312 18.3602 111.095 18.6882 112.033 18.6882C112.731 18.6882 113.327 18.5048 113.821 18.138C114.315 17.7713 114.706 17.1859 114.995 16.3818ZM108.743 13.3032H115.016C114.932 12.3581 114.692 11.6493 114.297 11.1768C113.69 10.4433 112.904 10.0765 111.938 10.0765C111.063 10.0765 110.326 10.3692 109.727 10.9546C109.134 11.54 108.806 12.3229 108.743 13.3032ZM119.364 20V8.76465H121.068V10.341C121.42 9.79085 121.889 9.35004 122.475 9.01856C123.06 8.68001 123.727 8.51074 124.474 8.51074C125.307 8.51074 125.987 8.68354 126.516 9.02913C127.052 9.37473 127.429 9.85786 127.648 10.4785C128.537 9.16667 129.693 8.51074 131.118 8.51074C132.233 8.51074 133.089 8.82107 133.689 9.44173C134.288 10.0553 134.588 11.004 134.588 12.2876V20H132.694V12.9224C132.694 12.1606 132.631 11.614 132.504 11.2826C132.384 10.944 132.162 10.6725 131.838 10.4679C131.513 10.2634 131.132 10.1611 130.695 10.1611C129.905 10.1611 129.249 10.4256 128.727 10.9546C128.205 11.4765 127.944 12.3158 127.944 13.4725V20H126.04V12.7002C126.04 11.8538 125.885 11.2191 125.575 10.7959C125.264 10.3727 124.756 10.1611 124.051 10.1611C123.515 10.1611 123.018 10.3022 122.559 10.5843C122.108 10.8664 121.78 11.279 121.576 11.8221C121.371 12.3652 121.269 13.1481 121.269 14.1707V20H119.364ZM142.703 15.3451V13.4302H148.553V15.3451H142.703ZM162.264 20V16.2866H155.535V14.541L162.613 4.49056H164.168V14.541H166.263V16.2866H164.168V20H162.264ZM162.264 14.541V7.54801L157.408 14.541H162.264ZM168.22 12.3511C168.22 10.5173 168.407 9.04324 168.781 7.92887C169.162 6.80745 169.722 5.94347 170.463 5.33691C171.211 4.73036 172.149 4.42708 173.277 4.42708C174.109 4.42708 174.839 4.59635 175.467 4.9349C176.095 5.26638 176.613 5.74951 177.022 6.38428C177.431 7.01199 177.752 7.78076 177.985 8.69059C178.218 9.59337 178.334 10.8135 178.334 12.3511C178.334 14.1707 178.147 15.6413 177.773 16.7627C177.4 17.8771 176.839 18.741 176.091 19.3547C175.351 19.9612 174.413 20.2645 173.277 20.2645C171.782 20.2645 170.608 19.7285 169.754 18.6564C168.732 17.3657 168.22 15.2639 168.22 12.3511ZM170.177 12.3511C170.177 14.8972 170.474 16.5934 171.066 17.4398C171.666 18.2791 172.403 18.6987 173.277 18.6987C174.152 18.6987 174.885 18.2756 175.478 17.4292C176.077 16.5828 176.377 14.8901 176.377 12.3511C176.377 9.79791 176.077 8.10167 175.478 7.26237C174.885 6.42307 174.145 6.00342 173.256 6.00342C172.381 6.00342 171.683 6.3737 171.161 7.11426C170.505 8.05935 170.177 9.80496 170.177 12.3511ZM180.64 8.21452C180.64 7.10721 180.919 6.16564 181.476 5.38981C182.033 4.61399 182.841 4.22607 183.899 4.22607C184.872 4.22607 185.676 4.5752 186.311 5.27344C186.953 5.96463 187.274 6.98378 187.274 8.33089C187.274 9.64274 186.949 10.6548 186.3 11.3672C185.659 12.0725 184.865 12.4251 183.92 12.4251C182.982 12.4251 182.199 12.076 181.571 11.3778C180.951 10.6795 180.64 9.62511 180.64 8.21452ZM183.952 5.53792C183.479 5.53792 183.084 5.74246 182.767 6.15153C182.457 6.5606 182.301 7.31174 182.301 8.40495C182.301 9.39941 182.46 10.1012 182.777 10.5103C183.095 10.9123 183.486 11.1133 183.952 11.1133C184.431 11.1133 184.826 10.9087 185.137 10.4997C185.454 10.0906 185.613 9.34299 185.613 8.25684C185.613 7.25532 185.454 6.55355 185.137 6.15153C184.819 5.74246 184.424 5.53792 183.952 5.53792ZM183.962 20.5713L192.447 4.22607H193.992L185.539 20.5713H183.962ZM190.67 16.3607C190.67 15.2463 190.948 14.3047 191.506 13.536C192.063 12.7601 192.874 12.3722 193.939 12.3722C194.912 12.3722 195.716 12.7214 196.351 13.4196C196.993 14.1108 197.314 15.1299 197.314 16.4771C197.314 17.7889 196.989 18.801 196.34 19.5133C195.699 20.2186 194.902 20.5713 193.949 20.5713C193.011 20.5713 192.228 20.2222 191.601 19.5239C190.98 18.8186 190.67 17.7642 190.67 16.3607ZM193.992 13.6841C193.512 13.6841 193.114 13.8886 192.796 14.2977C192.486 14.7068 192.331 15.4579 192.331 16.5511C192.331 17.5385 192.489 18.2368 192.807 18.6458C193.124 19.0549 193.516 19.2594 193.981 19.2594C194.468 19.2594 194.866 19.0549 195.177 18.6458C195.494 18.2368 195.653 17.4891 195.653 16.403C195.653 15.4015 195.494 14.6997 195.177 14.2977C194.859 13.8886 194.464 13.6841 193.992 13.6841Z" fill="#222222"/>
<path d="M10.8333 24.9167C16.8164 24.9167 21.6667 20.0664 21.6667 14.0834C21.6667 8.10028 16.8164 3.25003 10.8333 3.25003C4.85025 3.25003 0 8.10028 0 14.0834C0 20.0664 4.85025 24.9167 10.8333 24.9167Z" fill="#3366CC"/>
<path d="M31.7773 55V39.4906H42.2404V41.3208H33.8298V46.1239H41.1084V47.9541H33.8298V55H31.7773ZM43.9648 49.3823C43.9648 47.3017 44.5432 45.7606 45.6999 44.7591C46.6661 43.9269 47.844 43.5107 49.2334 43.5107C50.778 43.5107 52.0405 44.0186 53.0208 45.0342C54.0012 46.0428 54.4914 47.4392 54.4914 49.2236C54.4914 50.6695 54.2727 51.8085 53.8354 52.6408C53.4052 53.466 52.774 54.1078 51.9417 54.5662C51.1165 55.0247 50.2138 55.2539 49.2334 55.2539C47.6606 55.2539 46.3875 54.7496 45.4142 53.741C44.448 52.7325 43.9648 51.2796 43.9648 49.3823ZM45.922 49.3823C45.922 50.8211 46.2359 51.9002 46.8636 52.6196C47.4913 53.332 48.2812 53.6882 49.2334 53.6882C50.1785 53.6882 50.9649 53.3285 51.5926 52.609C52.2203 51.8896 52.5342 50.7929 52.5342 49.3188C52.5342 47.9294 52.2168 46.8785 51.582 46.1662C50.9543 45.4468 50.1714 45.0871 49.2334 45.0871C48.2812 45.0871 47.4913 45.4433 46.8636 46.1556C46.2359 46.8679 45.922 47.9435 45.922 49.3823ZM64.0975 55V53.3496C63.2229 54.6191 62.0345 55.2539 60.5322 55.2539C59.8692 55.2539 59.2486 55.127 58.6702 54.873C58.099 54.6191 57.6723 54.3018 57.3901 53.9209C57.1151 53.533 56.9211 53.0604 56.8083 52.5033C56.7307 52.1294 56.6919 51.537 56.6919 50.7259V43.7646H58.5962V49.9959C58.5962 50.9904 58.635 51.6604 58.7126 52.006C58.8325 52.5068 59.0864 52.9017 59.4743 53.1909C59.8622 53.473 60.3418 53.6141 60.9131 53.6141C61.4844 53.6141 62.0204 53.4695 62.5212 53.1803C63.0219 52.8841 63.3746 52.4856 63.5791 51.9849C63.7907 51.4771 63.8965 50.7435 63.8965 49.7843V43.7646H65.8008V55H64.0975ZM68.7948 55V43.7646H70.5086V45.3621C71.3338 44.1279 72.5258 43.5107 74.0845 43.5107C74.7616 43.5107 75.3822 43.6342 75.9465 43.881C76.5177 44.1208 76.9444 44.4382 77.2266 44.8332C77.5087 45.2281 77.7062 45.6972 77.819 46.2402C77.8895 46.5929 77.9248 47.21 77.9248 48.0916V55H76.0205V48.1657C76.0205 47.3899 75.9465 46.8115 75.7983 46.4307C75.6502 46.0428 75.3857 45.7359 75.0049 45.5103C74.6311 45.2775 74.1903 45.1611 73.6825 45.1611C72.8714 45.1611 72.1696 45.4186 71.5771 45.9334C70.9918 46.4483 70.6991 47.4251 70.6991 48.8639V55H68.7948ZM88.1445 55V53.5824C87.4322 54.6967 86.3848 55.2539 85.0024 55.2539C84.1067 55.2539 83.2815 55.0071 82.5269 54.5133C81.7792 54.0196 81.1974 53.332 80.7812 52.4504C80.3722 51.5617 80.1676 50.5425 80.1676 49.3929C80.1676 48.2715 80.3545 47.2559 80.7284 46.346C81.1022 45.4291 81.6629 44.7274 82.4105 44.2407C83.1581 43.7541 83.9939 43.5107 84.9178 43.5107C85.5949 43.5107 86.1979 43.6553 86.7269 43.9445C87.2559 44.2266 87.6861 44.5969 88.0176 45.0553V39.4906H89.9113V55H88.1445ZM82.1248 49.3929C82.1248 50.8317 82.4281 51.9073 83.0347 52.6196C83.6412 53.332 84.3571 53.6882 85.1823 53.6882C86.0145 53.6882 86.7198 53.3496 87.2982 52.6725C87.8836 51.9884 88.1763 50.9481 88.1763 49.5516C88.1763 48.0141 87.88 46.8856 87.2876 46.1662C86.6951 45.4468 85.9652 45.0871 85.0977 45.0871C84.2513 45.0871 83.5425 45.4327 82.9712 46.1239C82.407 46.8151 82.1248 47.9047 82.1248 49.3929ZM100.607 51.3818L102.575 51.6252C102.265 52.7748 101.69 53.667 100.85 54.3018C100.011 54.9365 98.9391 55.2539 97.6343 55.2539C95.9909 55.2539 94.6861 54.7496 93.7199 53.741C92.7607 52.7254 92.2811 51.3043 92.2811 49.4775C92.2811 47.5873 92.7677 46.1203 93.741 45.0765C94.7144 44.0327 95.9768 43.5107 97.5285 43.5107C99.0308 43.5107 100.258 44.0221 101.21 45.0448C102.162 46.0674 102.638 47.5062 102.638 49.3612C102.638 49.474 102.635 49.6433 102.628 49.869H94.2489C94.3194 51.1032 94.6685 52.0483 95.2962 52.7043C95.9239 53.3602 96.7068 53.6882 97.6449 53.6882C98.3431 53.6882 98.9391 53.5048 99.4328 53.138C99.9265 52.7713 100.318 52.1859 100.607 51.3818ZM94.3547 48.3032H100.628C100.544 47.3581 100.304 46.6493 99.9089 46.1768C99.3023 45.4433 98.5159 45.0765 97.5496 45.0765C96.6751 45.0765 95.938 45.3692 95.3385 45.9546C94.7461 46.54 94.4181 47.3229 94.3547 48.3032ZM104.955 55V43.7646H106.669V45.4679C107.106 44.671 107.508 44.1455 107.875 43.8916C108.249 43.6377 108.658 43.5107 109.102 43.5107C109.744 43.5107 110.397 43.7153 111.06 44.1243L110.404 45.8911C109.938 45.616 109.473 45.4785 109.007 45.4785C108.591 45.4785 108.217 45.6055 107.886 45.8594C107.554 46.1062 107.318 46.4518 107.177 46.8962C106.965 47.5732 106.86 48.3138 106.86 49.1178V55H104.955ZM111.43 51.6463L113.313 51.3501C113.419 52.1048 113.711 52.6831 114.191 53.0851C114.678 53.4871 115.355 53.6882 116.222 53.6882C117.097 53.6882 117.746 53.5118 118.169 53.1592C118.592 52.7995 118.804 52.3798 118.804 51.9002C118.804 51.47 118.617 51.1315 118.243 50.8846C117.982 50.7153 117.333 50.5002 116.296 50.2393C114.9 49.8866 113.93 49.5833 113.387 49.3294C112.851 49.0685 112.442 48.7123 112.16 48.2609C111.885 47.8025 111.747 47.2982 111.747 46.748C111.747 46.2473 111.86 45.7853 112.086 45.3621C112.319 44.9319 112.632 44.5757 113.027 44.2936C113.324 44.075 113.726 43.8916 114.233 43.7435C114.748 43.5883 115.298 43.5107 115.884 43.5107C116.765 43.5107 117.538 43.6377 118.201 43.8916C118.871 44.1455 119.364 44.4911 119.682 44.9284C119.999 45.3586 120.218 45.937 120.338 46.6634L118.476 46.9173C118.391 46.339 118.144 45.8876 117.735 45.5632C117.333 45.2387 116.762 45.0765 116.021 45.0765C115.147 45.0765 114.523 45.2211 114.149 45.5103C113.775 45.7994 113.588 46.138 113.588 46.5259C113.588 46.7727 113.666 46.9949 113.821 47.1924C113.976 47.3969 114.219 47.5662 114.551 47.7002C114.741 47.7707 115.302 47.9329 116.233 48.1868C117.58 48.5465 118.518 48.8428 119.047 49.0755C119.583 49.3012 120.003 49.6327 120.306 50.07C120.609 50.5073 120.761 51.0503 120.761 51.6992C120.761 52.334 120.574 52.9335 120.2 53.4977C119.833 54.0549 119.301 54.4887 118.603 54.799C117.904 55.1023 117.115 55.2539 116.233 55.2539C114.773 55.2539 113.659 54.9506 112.89 54.3441C112.128 53.7375 111.641 52.8383 111.43 51.6463ZM128.315 50.3451V48.4302H134.165V50.3451H128.315ZM151.78 53.1698V55H141.528C141.514 54.5416 141.588 54.1007 141.75 53.6776C142.011 52.9793 142.428 52.2917 142.999 51.6146C143.577 50.9375 144.409 50.1546 145.496 49.266C147.181 47.8836 148.32 46.7904 148.913 45.9863C149.505 45.1752 149.801 44.41 149.801 43.6906C149.801 42.9359 149.53 42.3012 148.987 41.7863C148.451 41.2644 147.749 41.0034 146.882 41.0034C145.965 41.0034 145.231 41.2785 144.681 41.8286C144.131 42.3787 143.852 43.1405 143.845 44.1138L141.888 43.9128C142.022 42.4528 142.526 41.342 143.401 40.5802C144.275 39.8115 145.45 39.4271 146.924 39.4271C148.412 39.4271 149.59 39.8397 150.457 40.6649C151.325 41.4901 151.759 42.5127 151.759 43.7329C151.759 44.3536 151.632 44.9637 151.378 45.5632C151.124 46.1627 150.701 46.7939 150.108 47.4569C149.523 48.1198 148.546 49.0297 147.178 50.1864C146.035 51.1456 145.302 51.798 144.977 52.1436C144.653 52.4821 144.385 52.8242 144.173 53.1698H151.78ZM153.832 47.3511C153.832 45.5173 154.019 44.0432 154.393 42.9289C154.774 41.8075 155.334 40.9435 156.075 40.3369C156.823 39.7304 157.761 39.4271 158.889 39.4271C159.721 39.4271 160.451 39.5964 161.079 39.9349C161.707 40.2664 162.225 40.7495 162.634 41.3843C163.043 42.012 163.364 42.7808 163.597 43.6906C163.83 44.5934 163.946 45.8135 163.946 47.3511C163.946 49.1707 163.759 50.6413 163.385 51.7627C163.012 52.8771 162.451 53.741 161.703 54.3547C160.963 54.9612 160.025 55.2645 158.889 55.2645C157.394 55.2645 156.22 54.7285 155.366 53.6564C154.344 52.3657 153.832 50.2639 153.832 47.3511ZM155.789 47.3511C155.789 49.8972 156.086 51.5934 156.678 52.4398C157.278 53.2791 158.015 53.6987 158.889 53.6987C159.764 53.6987 160.497 53.2756 161.09 52.4292C161.689 51.5828 161.989 49.8901 161.989 47.3511C161.989 44.7979 161.689 43.1017 161.09 42.2624C160.497 41.4231 159.757 41.0034 158.868 41.0034C157.993 41.0034 157.295 41.3737 156.773 42.1143C156.117 43.0594 155.789 44.805 155.789 47.3511ZM166.252 43.2145C166.252 42.1072 166.531 41.1656 167.088 40.3898C167.645 39.614 168.453 39.2261 169.511 39.2261C170.484 39.2261 171.288 39.5752 171.923 40.2734C172.565 40.9646 172.886 41.9838 172.886 43.3309C172.886 44.6427 172.561 45.6548 171.912 46.3672C171.271 47.0725 170.477 47.4251 169.532 47.4251C168.594 47.4251 167.811 47.076 167.183 46.3778C166.563 45.6795 166.252 44.6251 166.252 43.2145ZM169.564 40.5379C169.091 40.5379 168.696 40.7425 168.379 41.1515C168.069 41.5606 167.913 42.3117 167.913 43.4049C167.913 44.3994 168.072 45.1012 168.389 45.5103C168.707 45.9123 169.098 46.1133 169.564 46.1133C170.043 46.1133 170.438 45.9087 170.749 45.4997C171.066 45.0906 171.225 44.343 171.225 43.2568C171.225 42.2553 171.066 41.5535 170.749 41.1515C170.431 40.7425 170.036 40.5379 169.564 40.5379ZM169.574 55.5713L178.059 39.2261H179.604L171.151 55.5713H169.574ZM176.282 51.3607C176.282 50.2463 176.56 49.3047 177.118 48.536C177.675 47.7601 178.486 47.3722 179.551 47.3722C180.524 47.3722 181.328 47.7214 181.963 48.4196C182.605 49.1108 182.926 50.1299 182.926 51.4771C182.926 52.7889 182.601 53.801 181.952 54.5133C181.31 55.2186 180.514 55.5713 179.561 55.5713C178.623 55.5713 177.84 55.2222 177.213 54.5239C176.592 53.8186 176.282 52.7642 176.282 51.3607ZM179.604 48.6841C179.124 48.6841 178.726 48.8886 178.408 49.2977C178.098 49.7068 177.943 50.4579 177.943 51.5511C177.943 52.5385 178.101 53.2368 178.419 53.6458C178.736 54.0549 179.128 54.2594 179.593 54.2594C180.08 54.2594 180.478 54.0549 180.789 53.6458C181.106 53.2368 181.265 52.4891 181.265 51.403C181.265 50.4015 181.106 49.6997 180.789 49.2977C180.471 48.8886 180.076 48.6841 179.604 48.6841Z" fill="#222222"/>
<path d="M10.8333 59.9167C16.8164 59.9167 21.6667 55.0664 21.6667 49.0834C21.6667 43.1003 16.8164 38.25 10.8333 38.25C4.85025 38.25 0 43.1003 0 49.0834C0 55.0664 4.85025 59.9167 10.8333 59.9167Z" fill="#DC3912"/>
<path d="M42.7376 84.5622L44.79 85.0806C44.3598 86.7662 43.584 88.0534 42.4626 88.9421C41.3482 89.8237 39.9835 90.2645 38.3683 90.2645C36.6968 90.2645 35.3356 89.9259 34.2847 89.2489C33.2408 88.5647 32.4438 87.5773 31.8937 86.2866C31.3506 84.9959 31.0791 83.61 31.0791 82.1289C31.0791 80.5138 31.3859 79.1067 31.9995 77.9077C32.6202 76.7017 33.4983 75.7883 34.6338 75.1676C35.7764 74.5399 37.0318 74.2261 38.4001 74.2261C39.9517 74.2261 41.2565 74.621 42.3145 75.411C43.3724 76.2009 44.1094 77.3117 44.5256 78.7435L42.5049 79.2196C42.1452 78.0911 41.6233 77.2694 40.9391 76.7546C40.255 76.2397 39.3945 75.9823 38.3577 75.9823C37.1658 75.9823 36.1678 76.2679 35.3638 76.8392C34.5668 77.4105 34.0061 78.1793 33.6816 79.1455C33.3572 80.1047 33.195 81.0956 33.195 82.1183C33.195 83.4372 33.3854 84.5904 33.7663 85.5778C34.1542 86.5582 34.7537 87.2917 35.5648 87.7783C36.3759 88.265 37.254 88.5083 38.1991 88.5083C39.3487 88.5083 40.322 88.1768 41.119 87.5138C41.916 86.8509 42.4555 85.867 42.7376 84.5622ZM46.377 84.3823C46.377 82.3017 46.9553 80.7606 48.112 79.7591C49.0782 78.9269 50.2561 78.5107 51.6455 78.5107C53.1901 78.5107 54.4526 79.0186 55.4329 80.0342C56.4133 81.0428 56.9035 82.4392 56.9035 84.2236C56.9035 85.6695 56.6848 86.8085 56.2476 87.6408C55.8173 88.466 55.1861 89.1078 54.3538 89.5662C53.5286 90.0247 52.6259 90.2539 51.6455 90.2539C50.0727 90.2539 48.7996 89.7496 47.8263 88.741C46.8601 87.7325 46.377 86.2796 46.377 84.3823ZM48.3341 84.3823C48.3341 85.8211 48.648 86.9002 49.2757 87.6196C49.9034 88.332 50.6934 88.6882 51.6455 88.6882C52.5906 88.6882 53.377 88.3285 54.0047 87.609C54.6324 86.8896 54.9463 85.7929 54.9463 84.3188C54.9463 82.9294 54.6289 81.8785 53.9941 81.1662C53.3664 80.4468 52.5835 80.0871 51.6455 80.0871C50.6934 80.0871 49.9034 80.4433 49.2757 81.1556C48.648 81.8679 48.3341 82.9435 48.3341 84.3823ZM59.1252 90V78.7646H60.839V80.4679C61.2763 79.671 61.6783 79.1455 62.0451 78.8916C62.4189 78.6377 62.828 78.5107 63.2723 78.5107C63.9141 78.5107 64.5665 78.7153 65.2295 79.1243L64.5736 80.8911C64.1081 80.616 63.6426 80.4785 63.1771 80.4785C62.761 80.4785 62.3872 80.6055 62.0557 80.8594C61.7242 81.1062 61.4879 81.4518 61.3468 81.8962C61.1353 82.5732 61.0295 83.3138 61.0295 84.1178V90H59.1252ZM74.0527 86.3818L76.0205 86.6252C75.7102 87.7748 75.1354 88.667 74.2961 89.3018C73.4568 89.9365 72.3847 90.2539 71.0799 90.2539C69.4366 90.2539 68.1318 89.7496 67.1655 88.741C66.2063 87.7254 65.7267 86.3043 65.7267 84.4775C65.7267 82.5873 66.2134 81.1203 67.1867 80.0765C68.16 79.0327 69.4225 78.5107 70.9741 78.5107C72.4764 78.5107 73.7036 79.0221 74.6558 80.0448C75.6079 81.0674 76.084 82.5062 76.084 84.3612C76.084 84.474 76.0805 84.6433 76.0734 84.869H67.6945C67.765 86.1032 68.1141 87.0483 68.7419 87.7043C69.3696 88.3602 70.1524 88.6882 71.0905 88.6882C71.7887 88.6882 72.3847 88.5048 72.8784 88.138C73.3721 87.7713 73.7636 87.1859 74.0527 86.3818ZM67.8003 83.3032H74.0739C73.9893 82.3581 73.7495 81.6493 73.3545 81.1768C72.7479 80.4433 71.9615 80.0765 70.9953 80.0765C70.1207 80.0765 69.3837 80.3692 68.7842 80.9546C68.1917 81.54 67.8638 82.3229 67.8003 83.3032ZM88.2397 90V76.3208H83.1299V74.4906H95.4232V76.3208H90.2922V90H88.2397ZM102.575 86.3818L104.543 86.6252C104.232 87.7748 103.657 88.667 102.818 89.3018C101.979 89.9365 100.907 90.2539 99.602 90.2539C97.9587 90.2539 96.6539 89.7496 95.6877 88.741C94.7285 87.7254 94.2489 86.3043 94.2489 84.4775C94.2489 82.5873 94.7355 81.1203 95.7088 80.0765C96.6821 79.0327 97.9446 78.5107 99.4963 78.5107C100.999 78.5107 102.226 79.0221 103.178 80.0448C104.13 81.0674 104.606 82.5062 104.606 84.3612C104.606 84.474 104.603 84.6433 104.596 84.869H96.2166C96.2872 86.1032 96.6363 87.0483 97.264 87.7043C97.8917 88.3602 98.6746 88.6882 99.6126 88.6882C100.311 88.6882 100.907 88.5048 101.401 88.138C101.894 87.7713 102.286 87.1859 102.575 86.3818ZM96.3224 83.3032H102.596C102.511 82.3581 102.272 81.6493 101.877 81.1768C101.27 80.4433 100.484 80.0765 99.5174 80.0765C98.6428 80.0765 97.9058 80.3692 97.3063 80.9546C96.7139 81.54 96.3859 82.3229 96.3224 83.3032ZM114.276 88.6141C113.57 89.2136 112.89 89.6368 112.234 89.8836C111.585 90.1305 110.887 90.2539 110.139 90.2539C108.905 90.2539 107.956 89.9542 107.293 89.3547C106.63 88.7481 106.299 87.9758 106.299 87.0378C106.299 86.4876 106.422 85.9869 106.669 85.5355C106.923 85.077 107.251 84.7103 107.653 84.4352C108.062 84.1602 108.521 83.9521 109.028 83.811C109.402 83.7123 109.966 83.6171 110.721 83.5254C112.259 83.342 113.391 83.1234 114.117 82.8695C114.124 82.6085 114.128 82.4428 114.128 82.3722C114.128 81.5964 113.948 81.0498 113.588 80.7324C113.101 80.3022 112.378 80.0871 111.419 80.0871C110.524 80.0871 109.861 80.2458 109.43 80.5632C109.007 80.8735 108.693 81.4271 108.489 82.2241L106.627 81.9702C106.796 81.1732 107.075 80.5314 107.463 80.0448C107.85 79.5511 108.411 79.1737 109.145 78.9128C109.878 78.6447 110.728 78.5107 111.694 78.5107C112.654 78.5107 113.433 78.6236 114.032 78.8493C114.632 79.075 115.073 79.3606 115.355 79.7062C115.637 80.0448 115.834 80.475 115.947 80.9969C116.011 81.3213 116.042 81.9067 116.042 82.7531V85.2922C116.042 87.0624 116.081 88.1839 116.159 88.6564C116.243 89.1219 116.406 89.5698 116.646 90H114.657C114.459 89.605 114.332 89.1431 114.276 88.6141ZM114.117 84.3612C113.426 84.6433 112.389 84.8831 111.007 85.0806C110.224 85.1934 109.67 85.3204 109.346 85.4614C109.021 85.6025 108.771 85.8105 108.595 86.0856C108.418 86.3536 108.33 86.6534 108.33 86.9849C108.33 87.4927 108.521 87.9159 108.901 88.2544C109.289 88.5929 109.854 88.7622 110.594 88.7622C111.328 88.7622 111.98 88.6035 112.551 88.2861C113.123 87.9617 113.542 87.5209 113.81 86.9637C114.015 86.5335 114.117 85.8987 114.117 85.0594V84.3612ZM119.005 90V78.7646H120.708V80.341C121.061 79.7909 121.53 79.35 122.115 79.0186C122.7 78.68 123.367 78.5107 124.115 78.5107C124.947 78.5107 125.627 78.6835 126.156 79.0291C126.692 79.3747 127.07 79.8579 127.288 80.4785C128.177 79.1667 129.334 78.5107 130.758 78.5107C131.873 78.5107 132.73 78.8211 133.329 79.4417C133.929 80.0553 134.229 81.004 134.229 82.2876V90H132.335V82.9224C132.335 82.1606 132.271 81.614 132.144 81.2826C132.024 80.944 131.802 80.6725 131.478 80.4679C131.153 80.2634 130.773 80.1611 130.335 80.1611C129.545 80.1611 128.889 80.4256 128.368 80.9546C127.846 81.4765 127.585 82.3158 127.585 83.4725V90H125.68V82.7002C125.68 81.8538 125.525 81.2191 125.215 80.7959C124.905 80.3727 124.397 80.1611 123.691 80.1611C123.155 80.1611 122.658 80.3022 122.2 80.5843C121.748 80.8664 121.42 81.279 121.216 81.8221C121.011 82.3652 120.909 83.1481 120.909 84.1707V90H119.005ZM142.343 85.3451V83.4302H148.193V85.3451H142.343ZM165.808 88.1698V90H155.557C155.543 89.5416 155.617 89.1007 155.779 88.6776C156.04 87.9793 156.456 87.2917 157.027 86.6146C157.606 85.9375 158.438 85.1546 159.524 84.266C161.21 82.8836 162.349 81.7904 162.941 80.9863C163.534 80.1752 163.83 79.41 163.83 78.6906C163.83 77.9359 163.558 77.3012 163.015 76.7863C162.479 76.2644 161.777 76.0034 160.91 76.0034C159.993 76.0034 159.259 76.2785 158.709 76.8286C158.159 77.3787 157.881 78.1405 157.874 79.1138L155.916 78.9128C156.05 77.4528 156.555 76.342 157.429 75.5802C158.304 74.8115 159.478 74.4271 160.952 74.4271C162.44 74.4271 163.618 74.8397 164.486 75.6649C165.353 76.4901 165.787 77.5127 165.787 78.7329C165.787 79.3536 165.66 79.9637 165.406 80.5632C165.152 81.1627 164.729 81.7939 164.137 82.4569C163.551 83.1198 162.574 84.0297 161.206 85.1864C160.063 86.1456 159.33 86.798 159.006 87.1436C158.681 87.4821 158.413 87.8242 158.201 88.1698H165.808ZM168.22 78.2145C168.22 77.1072 168.499 76.1656 169.056 75.3898C169.613 74.614 170.421 74.2261 171.479 74.2261C172.452 74.2261 173.256 74.5752 173.891 75.2734C174.533 75.9646 174.854 76.9838 174.854 78.3309C174.854 79.6427 174.529 80.6548 173.88 81.3672C173.238 82.0725 172.445 82.4251 171.5 82.4251C170.562 82.4251 169.779 82.076 169.151 81.3778C168.531 80.6795 168.22 79.6251 168.22 78.2145ZM171.532 75.5379C171.059 75.5379 170.664 75.7425 170.347 76.1515C170.036 76.5606 169.881 77.3117 169.881 78.4049C169.881 79.3994 170.04 80.1012 170.357 80.5103C170.675 80.9123 171.066 81.1133 171.532 81.1133C172.011 81.1133 172.406 80.9087 172.716 80.4997C173.034 80.0906 173.193 79.343 173.193 78.2568C173.193 77.2553 173.034 76.5535 172.716 76.1515C172.399 75.7425 172.004 75.5379 171.532 75.5379ZM171.542 90.5713L180.027 74.2261H181.571L173.118 90.5713H171.542ZM178.25 86.3607C178.25 85.2463 178.528 84.3047 179.085 83.536C179.642 82.7601 180.454 82.3722 181.519 82.3722C182.492 82.3722 183.296 82.7214 183.931 83.4196C184.572 84.1108 184.893 85.1299 184.893 86.4771C184.893 87.7889 184.569 88.801 183.92 89.5133C183.278 90.2186 182.481 90.5713 181.529 90.5713C180.591 90.5713 179.808 90.2222 179.18 89.5239C178.56 88.8186 178.25 87.7642 178.25 86.3607ZM181.571 83.6841C181.092 83.6841 180.693 83.8886 180.376 84.2977C180.066 84.7068 179.91 85.4579 179.91 86.5511C179.91 87.5385 180.069 88.2368 180.387 88.6458C180.704 89.0549 181.095 89.2594 181.561 89.2594C182.048 89.2594 182.446 89.0549 182.756 88.6458C183.074 88.2368 183.232 87.4891 183.232 86.403C183.232 85.4015 183.074 84.6997 182.756 84.2977C182.439 83.8886 182.044 83.6841 181.571 83.6841Z" fill="#222222"/>
<path d="M10.8333 94.9167C16.8164 94.9167 21.6667 90.0664 21.6667 84.0833C21.6667 78.1002 16.8164 73.25 10.8333 73.25C4.85025 73.25 0 78.1002 0 84.0833C0 90.0664 4.85025 94.9167 10.8333 94.9167Z" fill="#FF9900"/>
<path d="M42.7376 119.562L44.79 120.081C44.3598 121.766 43.584 123.053 42.4626 123.942C41.3482 124.824 39.9835 125.264 38.3683 125.264C36.6968 125.264 35.3356 124.926 34.2847 124.249C33.2408 123.565 32.4438 122.577 31.8937 121.287C31.3506 119.996 31.0791 118.61 31.0791 117.129C31.0791 115.514 31.3859 114.107 31.9995 112.908C32.6202 111.702 33.4983 110.788 34.6338 110.168C35.7764 109.54 37.0318 109.226 38.4001 109.226C39.9517 109.226 41.2565 109.621 42.3145 110.411C43.3724 111.201 44.1094 112.312 44.5256 113.743L42.5049 114.22C42.1452 113.091 41.6233 112.269 40.9391 111.755C40.255 111.24 39.3945 110.982 38.3577 110.982C37.1658 110.982 36.1678 111.268 35.3638 111.839C34.5668 112.41 34.0061 113.179 33.6816 114.146C33.3572 115.105 33.195 116.096 33.195 117.118C33.195 118.437 33.3854 119.59 33.7663 120.578C34.1542 121.558 34.7537 122.292 35.5648 122.778C36.3759 123.265 37.254 123.508 38.1991 123.508C39.3487 123.508 40.322 123.177 41.119 122.514C41.916 121.851 42.4555 120.867 42.7376 119.562ZM46.377 119.382C46.377 117.302 46.9553 115.761 48.112 114.759C49.0782 113.927 50.2561 113.511 51.6455 113.511C53.1901 113.511 54.4526 114.019 55.4329 115.034C56.4133 116.043 56.9035 117.439 56.9035 119.224C56.9035 120.669 56.6848 121.809 56.2476 122.641C55.8173 123.466 55.1861 124.108 54.3538 124.566C53.5286 125.025 52.6259 125.254 51.6455 125.254C50.0727 125.254 48.7996 124.75 47.8263 123.741C46.8601 122.732 46.377 121.28 46.377 119.382ZM48.3341 119.382C48.3341 120.821 48.648 121.9 49.2757 122.62C49.9034 123.332 50.6934 123.688 51.6455 123.688C52.5906 123.688 53.377 123.328 54.0047 122.609C54.6324 121.89 54.9463 120.793 54.9463 119.319C54.9463 117.929 54.6289 116.879 53.9941 116.166C53.3664 115.447 52.5835 115.087 51.6455 115.087C50.6934 115.087 49.9034 115.443 49.2757 116.156C48.648 116.868 48.3341 117.944 48.3341 119.382ZM59.1463 125V113.765H60.8602V115.362C61.6854 114.128 62.8773 113.511 64.436 113.511C65.1131 113.511 65.7338 113.634 66.298 113.881C66.8693 114.121 67.296 114.438 67.5781 114.833C67.8602 115.228 68.0577 115.697 68.1706 116.24C68.2411 116.593 68.2764 117.21 68.2764 118.092V125H66.3721V118.166C66.3721 117.39 66.298 116.812 66.1499 116.431C66.0018 116.043 65.7373 115.736 65.3564 115.51C64.9826 115.278 64.5418 115.161 64.034 115.161C63.2229 115.161 62.5212 115.419 61.9287 115.933C61.3433 116.448 61.0506 117.425 61.0506 118.864V125H59.1463ZM75.3646 123.297L75.6396 124.979C75.1036 125.092 74.624 125.148 74.2008 125.148C73.5097 125.148 72.9736 125.039 72.5928 124.82C72.2119 124.602 71.9439 124.316 71.7887 123.963C71.6336 123.604 71.556 122.852 71.556 121.71V115.246H70.1595V113.765H71.556V110.982L73.4497 109.84V113.765H75.3646V115.246H73.4497V121.816C73.4497 122.359 73.4814 122.708 73.5449 122.863C73.6155 123.018 73.7248 123.142 73.8729 123.233C74.028 123.325 74.2467 123.371 74.5288 123.371C74.7404 123.371 75.019 123.346 75.3646 123.297ZM77.2477 111.681V109.491H79.152V111.681H77.2477ZM77.2477 125V113.765H79.152V125H77.2477ZM82.0614 125V113.765H83.7752V115.362C84.6004 114.128 85.7924 113.511 87.3511 113.511C88.0282 113.511 88.6488 113.634 89.2131 113.881C89.7843 114.121 90.211 114.438 90.4932 114.833C90.7753 115.228 90.9728 115.697 91.0856 116.24C91.1561 116.593 91.1914 117.21 91.1914 118.092V125H89.2871V118.166C89.2871 117.39 89.2131 116.812 89.0649 116.431C88.9168 116.043 88.6523 115.736 88.2715 115.51C87.8977 115.278 87.4569 115.161 86.9491 115.161C86.138 115.161 85.4362 115.419 84.8437 115.933C84.2584 116.448 83.9657 117.425 83.9657 118.864V125H82.0614ZM93.7728 125.931L95.6242 126.206C95.7018 126.777 95.9169 127.193 96.2695 127.454C96.7421 127.807 97.3874 127.983 98.2056 127.983C99.0872 127.983 99.7678 127.807 100.247 127.454C100.727 127.102 101.051 126.608 101.221 125.973C101.319 125.585 101.365 124.771 101.358 123.529C100.526 124.51 99.4892 125 98.2479 125C96.7033 125 95.5078 124.443 94.6615 123.328C93.8151 122.214 93.3919 120.878 93.3919 119.319C93.3919 118.247 93.5859 117.259 93.9738 116.357C94.3617 115.447 94.9224 114.745 95.6559 114.251C96.3965 113.758 97.264 113.511 98.2585 113.511C99.5844 113.511 100.678 114.047 101.538 115.119V113.765H103.294V123.477C103.294 125.226 103.114 126.463 102.755 127.19C102.402 127.923 101.838 128.502 101.062 128.925C100.293 129.348 99.3446 129.56 98.2161 129.56C96.8761 129.56 95.7935 129.256 94.9683 128.65C94.1431 128.05 93.7446 127.144 93.7728 125.931ZM95.3491 119.181C95.3491 120.655 95.6418 121.731 96.2272 122.408C96.8126 123.085 97.5461 123.424 98.4277 123.424C99.3023 123.424 100.036 123.089 100.628 122.419C101.221 121.742 101.517 120.684 101.517 119.245C101.517 117.869 101.21 116.833 100.597 116.134C99.99 115.436 99.2565 115.087 98.396 115.087C97.5496 115.087 96.8302 115.433 96.2378 116.124C95.6453 116.808 95.3491 117.827 95.3491 119.181ZM113.874 121.382L115.841 121.625C115.531 122.775 114.956 123.667 114.117 124.302C113.278 124.937 112.206 125.254 110.901 125.254C109.258 125.254 107.953 124.75 106.986 123.741C106.027 122.725 105.548 121.304 105.548 119.478C105.548 117.587 106.034 116.12 107.008 115.076C107.981 114.033 109.243 113.511 110.795 113.511C112.297 113.511 113.525 114.022 114.477 115.045C115.429 116.067 115.905 117.506 115.905 119.361C115.905 119.474 115.901 119.643 115.894 119.869H107.515C107.586 121.103 107.935 122.048 108.563 122.704C109.191 123.36 109.973 123.688 110.911 123.688C111.61 123.688 112.206 123.505 112.699 123.138C113.193 122.771 113.585 122.186 113.874 121.382ZM107.621 118.303H113.895C113.81 117.358 113.57 116.649 113.175 116.177C112.569 115.443 111.783 115.076 110.816 115.076C109.942 115.076 109.205 115.369 108.605 115.955C108.013 116.54 107.685 117.323 107.621 118.303ZM118.243 125V113.765H119.957V115.362C120.782 114.128 121.974 113.511 123.533 113.511C124.21 113.511 124.83 113.634 125.395 113.881C125.966 114.121 126.393 114.438 126.675 114.833C126.957 115.228 127.154 115.697 127.267 116.24C127.338 116.593 127.373 117.21 127.373 118.092V125H125.469V118.166C125.469 117.39 125.395 116.812 125.247 116.431C125.098 116.043 124.834 115.736 124.453 115.51C124.079 115.278 123.639 115.161 123.131 115.161C122.32 115.161 121.618 115.419 121.025 115.933C120.44 116.448 120.147 117.425 120.147 118.864V125H118.243ZM137.635 120.885L139.508 121.128C139.303 122.419 138.778 123.431 137.931 124.164C137.092 124.891 136.059 125.254 134.832 125.254C133.294 125.254 132.056 124.753 131.118 123.752C130.187 122.743 129.722 121.301 129.722 119.425C129.722 118.212 129.923 117.15 130.325 116.24C130.727 115.33 131.337 114.65 132.155 114.198C132.98 113.74 133.876 113.511 134.842 113.511C136.062 113.511 137.06 113.821 137.836 114.442C138.612 115.055 139.109 115.93 139.328 117.065L137.476 117.351C137.3 116.596 136.986 116.029 136.535 115.648C136.09 115.267 135.551 115.076 134.916 115.076C133.957 115.076 133.178 115.422 132.578 116.113C131.979 116.797 131.679 117.884 131.679 119.372C131.679 120.881 131.968 121.978 132.546 122.662C133.125 123.346 133.879 123.688 134.81 123.688C135.558 123.688 136.182 123.459 136.683 123C137.184 122.542 137.501 121.837 137.635 120.885ZM141.052 129.327L140.841 127.539C141.257 127.652 141.62 127.708 141.93 127.708C142.354 127.708 142.692 127.638 142.946 127.497C143.2 127.356 143.408 127.158 143.57 126.904C143.69 126.714 143.884 126.241 144.152 125.487C144.187 125.381 144.244 125.226 144.321 125.021L140.058 113.765H142.11L144.448 120.271C144.752 121.096 145.023 121.964 145.263 122.874C145.481 121.999 145.742 121.146 146.046 120.313L148.447 113.765H150.352L146.077 125.19C145.619 126.425 145.263 127.275 145.009 127.74C144.67 128.368 144.282 128.826 143.845 129.115C143.408 129.412 142.886 129.56 142.279 129.56C141.913 129.56 141.504 129.482 141.052 129.327ZM164.644 125H162.74V112.865C162.282 113.303 161.679 113.74 160.931 114.177C160.19 114.615 159.524 114.942 158.931 115.161V113.32C159.996 112.82 160.927 112.213 161.724 111.501C162.521 110.788 163.086 110.097 163.417 109.427H164.644V125ZM169.532 117.351C169.532 115.517 169.719 114.043 170.093 112.929C170.474 111.807 171.034 110.943 171.775 110.337C172.523 109.73 173.461 109.427 174.589 109.427C175.421 109.427 176.151 109.596 176.779 109.935C177.407 110.266 177.925 110.75 178.334 111.384C178.743 112.012 179.064 112.781 179.297 113.691C179.53 114.593 179.646 115.814 179.646 117.351C179.646 119.171 179.459 120.641 179.085 121.763C178.711 122.877 178.151 123.741 177.403 124.355C176.663 124.961 175.725 125.264 174.589 125.264C173.094 125.264 171.919 124.728 171.066 123.656C170.043 122.366 169.532 120.264 169.532 117.351ZM171.489 117.351C171.489 119.897 171.785 121.593 172.378 122.44C172.977 123.279 173.714 123.699 174.589 123.699C175.464 123.699 176.197 123.276 176.79 122.429C177.389 121.583 177.689 119.89 177.689 117.351C177.689 114.798 177.389 113.102 176.79 112.262C176.197 111.423 175.457 111.003 174.568 111.003C173.693 111.003 172.995 111.374 172.473 112.114C171.817 113.059 171.489 114.805 171.489 117.351ZM181.952 113.215C181.952 112.107 182.231 111.166 182.788 110.39C183.345 109.614 184.153 109.226 185.211 109.226C186.184 109.226 186.988 109.575 187.623 110.273C188.265 110.965 188.586 111.984 188.586 113.331C188.586 114.643 188.261 115.655 187.612 116.367C186.97 117.072 186.177 117.425 185.232 117.425C184.294 117.425 183.511 117.076 182.883 116.378C182.263 115.68 181.952 114.625 181.952 113.215ZM185.264 110.538C184.791 110.538 184.396 110.742 184.079 111.152C183.768 111.561 183.613 112.312 183.613 113.405C183.613 114.399 183.772 115.101 184.089 115.51C184.407 115.912 184.798 116.113 185.264 116.113C185.743 116.113 186.138 115.909 186.449 115.5C186.766 115.091 186.925 114.343 186.925 113.257C186.925 112.255 186.766 111.554 186.449 111.152C186.131 110.742 185.736 110.538 185.264 110.538ZM185.274 125.571L193.759 109.226H195.304L186.851 125.571H185.274ZM191.982 121.361C191.982 120.246 192.26 119.305 192.817 118.536C193.375 117.76 194.186 117.372 195.251 117.372C196.224 117.372 197.028 117.721 197.663 118.42C198.305 119.111 198.625 120.13 198.625 121.477C198.625 122.789 198.301 123.801 197.652 124.513C197.01 125.219 196.213 125.571 195.261 125.571C194.323 125.571 193.54 125.222 192.913 124.524C192.292 123.819 191.982 122.764 191.982 121.361ZM195.304 118.684C194.824 118.684 194.425 118.889 194.108 119.298C193.798 119.707 193.643 120.458 193.643 121.551C193.643 122.539 193.801 123.237 194.119 123.646C194.436 124.055 194.827 124.259 195.293 124.259C195.78 124.259 196.178 124.055 196.488 123.646C196.806 123.237 196.965 122.489 196.965 121.403C196.965 120.401 196.806 119.7 196.488 119.298C196.171 118.889 195.776 118.684 195.304 118.684Z" fill="#222222"/>
<path d="M10.8333 129.917C16.8164 129.917 21.6667 125.066 21.6667 119.083C21.6667 113.1 16.8164 108.25 10.8333 108.25C4.85025 108.25 0 113.1 0 119.083C0 125.066 4.85025 129.917 10.8333 129.917Z" fill="#109618"/>
<path d="M31.7139 160V144.491H42.9281V146.321H33.7663V151.071H42.3462V152.891H33.7663V158.17H43.2878V160H31.7139ZM44.6102 160L48.715 154.16L44.917 148.765H47.2974L49.0218 151.399C49.3462 151.9 49.6072 152.319 49.8047 152.658C50.115 152.192 50.4007 151.78 50.6616 151.42L52.5553 148.765H54.8299L50.9473 154.054L55.1261 160H52.7881L50.4818 156.509L49.8682 155.567L46.9165 160H44.6102ZM64.0446 155.885L65.9172 156.128C65.7126 157.419 65.1872 158.431 64.3408 159.164C63.5015 159.891 62.4683 160.254 61.241 160.254C59.7035 160.254 58.4657 159.753 57.5277 158.752C56.5967 157.743 56.1312 156.301 56.1312 154.425C56.1312 153.212 56.3322 152.15 56.7342 151.24C57.1362 150.33 57.7463 149.65 58.5645 149.198C59.3896 148.74 60.2854 148.511 61.2516 148.511C62.4718 148.511 63.4698 148.821 64.2456 149.442C65.0214 150.055 65.5187 150.93 65.7373 152.065L63.8859 152.351C63.7096 151.596 63.3957 151.029 62.9443 150.648C62.5 150.267 61.9604 150.076 61.3257 150.076C60.3665 150.076 59.5871 150.422 58.9876 151.113C58.3881 151.797 58.0884 152.884 58.0884 154.372C58.0884 155.881 58.3775 156.978 58.9559 157.662C59.5342 158.346 60.2889 158.688 61.2199 158.688C61.9675 158.688 62.5917 158.459 63.0924 158C63.5932 157.542 63.9106 156.837 64.0446 155.885ZM67.5464 160V144.491H69.4507V150.055C70.3394 149.026 71.4608 148.511 72.8149 148.511C73.6472 148.511 74.3701 148.676 74.9837 149.008C75.5973 149.332 76.0346 149.784 76.2956 150.362C76.5636 150.94 76.6976 151.78 76.6976 152.88V160H74.7933V152.88C74.7933 151.928 74.5852 151.237 74.1691 150.806C73.76 150.369 73.1782 150.151 72.4235 150.151C71.8593 150.151 71.3268 150.299 70.826 150.595C70.3323 150.884 69.9797 151.279 69.7681 151.78C69.5565 152.281 69.4507 152.972 69.4507 153.853V160H67.5464ZM86.9385 158.614C86.2332 159.214 85.5526 159.637 84.8966 159.884C84.2478 160.13 83.5495 160.254 82.8019 160.254C81.5677 160.254 80.619 159.954 79.9561 159.355C79.2931 158.748 78.9616 157.976 78.9616 157.038C78.9616 156.488 79.085 155.987 79.3319 155.535C79.5858 155.077 79.9137 154.71 80.3158 154.435C80.7248 154.16 81.1833 153.952 81.6911 153.811C82.0649 153.712 82.6291 153.617 83.3838 153.525C84.9213 153.342 86.0533 153.123 86.7798 152.869C86.7868 152.609 86.7904 152.443 86.7904 152.372C86.7904 151.596 86.6105 151.05 86.2508 150.732C85.7642 150.302 85.0412 150.087 84.082 150.087C83.1863 150.087 82.5233 150.246 82.0931 150.563C81.6699 150.873 81.3561 151.427 81.1515 152.224L79.2896 151.97C79.4588 151.173 79.7374 150.531 80.1253 150.045C80.5132 149.551 81.0739 149.174 81.8075 148.913C82.541 148.645 83.3908 148.511 84.3571 148.511C85.3163 148.511 86.0956 148.624 86.6951 148.849C87.2947 149.075 87.7355 149.361 88.0176 149.706C88.2997 150.045 88.4972 150.475 88.61 150.997C88.6735 151.321 88.7052 151.907 88.7052 152.753V155.292C88.7052 157.062 88.744 158.184 88.8216 158.656C88.9062 159.122 89.0685 159.57 89.3083 160H87.3193C87.1219 159.605 86.9949 159.143 86.9385 158.614ZM86.7798 154.361C86.0886 154.643 85.0518 154.883 83.6694 155.081C82.8866 155.193 82.3329 155.32 82.0085 155.461C81.684 155.602 81.4336 155.811 81.2573 156.086C81.081 156.354 80.9928 156.653 80.9928 156.985C80.9928 157.493 81.1833 157.916 81.5641 158.254C81.952 158.593 82.5163 158.762 83.2568 158.762C83.9903 158.762 84.6427 158.604 85.214 158.286C85.7853 157.962 86.205 157.521 86.473 156.964C86.6775 156.533 86.7798 155.899 86.7798 155.059V154.361ZM91.6675 160V148.765H93.3813V150.362C94.2065 149.128 95.3985 148.511 96.9572 148.511C97.6343 148.511 98.2549 148.634 98.8192 148.881C99.3905 149.121 99.8172 149.438 100.099 149.833C100.381 150.228 100.579 150.697 100.692 151.24C100.762 151.593 100.798 152.21 100.798 153.092V160H98.8932V153.166C98.8932 152.39 98.8192 151.812 98.6711 151.431C98.5229 151.043 98.2585 150.736 97.8776 150.51C97.5038 150.278 97.063 150.161 96.5552 150.161C95.7441 150.161 95.0423 150.419 94.4499 150.933C93.8645 151.448 93.5718 152.425 93.5718 153.864V160H91.6675ZM103.379 160.931L105.23 161.206C105.308 161.777 105.523 162.193 105.876 162.454C106.348 162.807 106.994 162.983 107.812 162.983C108.693 162.983 109.374 162.807 109.854 162.454C110.333 162.102 110.658 161.608 110.827 160.973C110.926 160.585 110.971 159.771 110.964 158.529C110.132 159.51 109.095 160 107.854 160C106.309 160 105.114 159.443 104.268 158.328C103.421 157.214 102.998 155.878 102.998 154.319C102.998 153.247 103.192 152.259 103.58 151.357C103.968 150.447 104.529 149.745 105.262 149.251C106.003 148.758 106.87 148.511 107.865 148.511C109.191 148.511 110.284 149.047 111.144 150.119V148.765H112.9V158.477C112.9 160.226 112.721 161.463 112.361 162.19C112.008 162.923 111.444 163.502 110.668 163.925C109.899 164.348 108.951 164.56 107.822 164.56C106.482 164.56 105.4 164.256 104.574 163.65C103.749 163.05 103.351 162.144 103.379 160.931ZM104.955 154.181C104.955 155.655 105.248 156.731 105.833 157.408C106.419 158.085 107.152 158.424 108.034 158.424C108.908 158.424 109.642 158.089 110.234 157.419C110.827 156.742 111.123 155.684 111.123 154.245C111.123 152.869 110.816 151.833 110.203 151.134C109.596 150.436 108.863 150.087 108.002 150.087C107.156 150.087 106.436 150.433 105.844 151.124C105.251 151.808 104.955 152.827 104.955 154.181ZM123.48 156.382L125.448 156.625C125.137 157.775 124.562 158.667 123.723 159.302C122.884 159.937 121.812 160.254 120.507 160.254C118.864 160.254 117.559 159.75 116.593 158.741C115.633 157.725 115.154 156.304 115.154 154.478C115.154 152.587 115.64 151.12 116.614 150.076C117.587 149.033 118.85 148.511 120.401 148.511C121.903 148.511 123.131 149.022 124.083 150.045C125.035 151.067 125.511 152.506 125.511 154.361C125.511 154.474 125.508 154.643 125.5 154.869H117.122C117.192 156.103 117.541 157.048 118.169 157.704C118.797 158.36 119.58 158.688 120.518 158.688C121.216 158.688 121.812 158.505 122.306 158.138C122.799 157.771 123.191 157.186 123.48 156.382ZM117.227 153.303H123.501C123.416 152.358 123.177 151.649 122.782 151.177C122.175 150.443 121.389 150.076 120.422 150.076C119.548 150.076 118.811 150.369 118.211 150.955C117.619 151.54 117.291 152.323 117.227 153.303ZM133.837 160V144.491H135.741V160H133.837ZM138.714 146.681V144.491H140.618V146.681H138.714ZM138.714 160V148.765H140.618V160H138.714ZM142.766 156.646L144.649 156.35C144.755 157.105 145.048 157.683 145.527 158.085C146.014 158.487 146.691 158.688 147.559 158.688C148.433 158.688 149.082 158.512 149.505 158.159C149.928 157.799 150.14 157.38 150.14 156.9C150.14 156.47 149.953 156.131 149.579 155.885C149.318 155.715 148.669 155.5 147.633 155.239C146.236 154.887 145.266 154.583 144.723 154.329C144.187 154.068 143.778 153.712 143.496 153.261C143.221 152.802 143.083 152.298 143.083 151.748C143.083 151.247 143.196 150.785 143.422 150.362C143.655 149.932 143.969 149.576 144.364 149.294C144.66 149.075 145.062 148.892 145.57 148.743C146.085 148.588 146.635 148.511 147.22 148.511C148.102 148.511 148.874 148.638 149.537 148.892C150.207 149.146 150.701 149.491 151.018 149.928C151.335 150.359 151.554 150.937 151.674 151.663L149.812 151.917C149.727 151.339 149.481 150.888 149.071 150.563C148.669 150.239 148.098 150.076 147.358 150.076C146.483 150.076 145.859 150.221 145.485 150.51C145.111 150.799 144.924 151.138 144.924 151.526C144.924 151.773 145.002 151.995 145.157 152.192C145.312 152.397 145.556 152.566 145.887 152.7C146.077 152.771 146.638 152.933 147.569 153.187C148.916 153.547 149.854 153.843 150.383 154.076C150.919 154.301 151.339 154.633 151.642 155.07C151.946 155.507 152.097 156.05 152.097 156.699C152.097 157.334 151.91 157.933 151.536 158.498C151.17 159.055 150.637 159.489 149.939 159.799C149.241 160.102 148.451 160.254 147.569 160.254C146.109 160.254 144.995 159.951 144.226 159.344C143.464 158.738 142.978 157.838 142.766 156.646ZM158.519 158.297L158.794 159.979C158.258 160.092 157.778 160.148 157.355 160.148C156.664 160.148 156.128 160.039 155.747 159.82C155.366 159.602 155.098 159.316 154.943 158.963C154.788 158.604 154.71 157.852 154.71 156.71V150.246H153.314V148.765H154.71V145.982L156.604 144.84V148.765H158.519V150.246H156.604V156.816C156.604 157.359 156.636 157.708 156.699 157.863C156.77 158.018 156.879 158.142 157.027 158.233C157.182 158.325 157.401 158.371 157.683 158.371C157.895 158.371 158.173 158.346 158.519 158.297ZM160.402 146.681V144.491H162.306V146.681H160.402ZM160.402 160V148.765H162.306V160H160.402ZM165.216 160V148.765H166.93V150.362C167.755 149.128 168.947 148.511 170.505 148.511C171.182 148.511 171.803 148.634 172.367 148.881C172.939 149.121 173.365 149.438 173.647 149.833C173.93 150.228 174.127 150.697 174.24 151.24C174.31 151.593 174.346 152.21 174.346 153.092V160H172.441V153.166C172.441 152.39 172.367 151.812 172.219 151.431C172.071 151.043 171.807 150.736 171.426 150.51C171.052 150.278 170.611 150.161 170.103 150.161C169.292 150.161 168.59 150.419 167.998 150.933C167.413 151.448 167.12 152.425 167.12 153.864V160H165.216ZM176.927 160.931L178.778 161.206C178.856 161.777 179.071 162.193 179.424 162.454C179.896 162.807 180.542 162.983 181.36 162.983C182.241 162.983 182.922 162.807 183.402 162.454C183.881 162.102 184.206 161.608 184.375 160.973C184.474 160.585 184.52 159.771 184.513 158.529C183.68 159.51 182.643 160 181.402 160C179.858 160 178.662 159.443 177.816 158.328C176.969 157.214 176.546 155.878 176.546 154.319C176.546 153.247 176.74 152.259 177.128 151.357C177.516 150.447 178.077 149.745 178.81 149.251C179.551 148.758 180.418 148.511 181.413 148.511C182.739 148.511 183.832 149.047 184.692 150.119V148.765H186.449V158.477C186.449 160.226 186.269 161.463 185.909 162.19C185.556 162.923 184.992 163.502 184.216 163.925C183.448 164.348 182.499 164.56 181.37 164.56C180.03 164.56 178.948 164.256 178.123 163.65C177.297 163.05 176.899 162.144 176.927 160.931ZM178.503 154.181C178.503 155.655 178.796 156.731 179.382 157.408C179.967 158.085 180.7 158.424 181.582 158.424C182.457 158.424 183.19 158.089 183.783 157.419C184.375 156.742 184.671 155.684 184.671 154.245C184.671 152.869 184.364 151.833 183.751 151.134C183.144 150.436 182.411 150.087 181.55 150.087C180.704 150.087 179.985 150.433 179.392 151.124C178.8 151.808 178.503 152.827 178.503 154.181ZM202.699 158.614C201.993 159.214 201.313 159.637 200.657 159.884C200.008 160.13 199.31 160.254 198.562 160.254C197.328 160.254 196.379 159.954 195.716 159.355C195.053 158.748 194.722 157.976 194.722 157.038C194.722 156.488 194.845 155.987 195.092 155.535C195.346 155.077 195.674 154.71 196.076 154.435C196.485 154.16 196.943 153.952 197.451 153.811C197.825 153.712 198.389 153.617 199.144 153.525C200.681 153.342 201.813 153.123 202.54 152.869C202.547 152.609 202.55 152.443 202.55 152.372C202.55 151.596 202.371 151.05 202.011 150.732C201.524 150.302 200.801 150.087 199.842 150.087C198.946 150.087 198.283 150.246 197.853 150.563C197.43 150.873 197.116 151.427 196.912 152.224L195.05 151.97C195.219 151.173 195.497 150.531 195.885 150.045C196.273 149.551 196.834 149.174 197.568 148.913C198.301 148.645 199.151 148.511 200.117 148.511C201.076 148.511 201.856 148.624 202.455 148.849C203.055 149.075 203.496 149.361 203.778 149.706C204.06 150.045 204.257 150.475 204.37 150.997C204.434 151.321 204.465 151.907 204.465 152.753V155.292C204.465 157.062 204.504 158.184 204.582 158.656C204.666 159.122 204.829 159.57 205.068 160H203.079C202.882 159.605 202.755 159.143 202.699 158.614ZM202.54 154.361C201.849 154.643 200.812 154.883 199.43 155.081C198.647 155.193 198.093 155.32 197.769 155.461C197.444 155.602 197.194 155.811 197.017 156.086C196.841 156.354 196.753 156.653 196.753 156.985C196.753 157.493 196.943 157.916 197.324 158.254C197.712 158.593 198.276 158.762 199.017 158.762C199.75 158.762 200.403 158.604 200.974 158.286C201.545 157.962 201.965 157.521 202.233 156.964C202.438 156.533 202.54 155.899 202.54 155.059V154.361ZM207.428 160V148.765H209.141V150.362C209.967 149.128 211.159 148.511 212.717 148.511C213.394 148.511 214.015 148.634 214.579 148.881C215.151 149.121 215.577 149.438 215.859 149.833C216.141 150.228 216.339 150.697 216.452 151.24C216.522 151.593 216.558 152.21 216.558 153.092V160H214.653V153.166C214.653 152.39 214.579 151.812 214.431 151.431C214.283 151.043 214.019 150.736 213.638 150.51C213.264 150.278 212.823 150.161 212.315 150.161C211.504 150.161 210.802 150.419 210.21 150.933C209.625 151.448 209.332 152.425 209.332 153.864V160H207.428ZM226.777 160V158.582C226.065 159.697 225.018 160.254 223.635 160.254C222.74 160.254 221.914 160.007 221.16 159.513C220.412 159.02 219.83 158.332 219.414 157.45C219.005 156.562 218.8 155.543 218.8 154.393C218.8 153.271 218.987 152.256 219.361 151.346C219.735 150.429 220.296 149.727 221.043 149.241C221.791 148.754 222.627 148.511 223.551 148.511C224.228 148.511 224.831 148.655 225.36 148.944C225.889 149.227 226.319 149.597 226.65 150.055V144.491H228.544V160H226.777ZM220.758 154.393C220.758 155.832 221.061 156.907 221.667 157.62C222.274 158.332 222.99 158.688 223.815 158.688C224.647 158.688 225.353 158.35 225.931 157.673C226.516 156.988 226.809 155.948 226.809 154.552C226.809 153.014 226.513 151.886 225.92 151.166C225.328 150.447 224.598 150.087 223.73 150.087C222.884 150.087 222.175 150.433 221.604 151.124C221.04 151.815 220.758 152.905 220.758 154.393ZM237.759 160V144.491H240.848L244.519 155.472C244.858 156.495 245.104 157.26 245.26 157.768C245.436 157.204 245.711 156.375 246.085 155.282L249.798 144.491H252.559V160H250.581V147.019L246.074 160H244.223L239.737 146.797V160H237.759ZM255.807 160V144.491H258.896L262.568 155.472C262.906 156.495 263.153 157.26 263.308 157.768C263.484 157.204 263.759 156.375 264.133 155.282L267.847 144.491H270.608V160H268.63V147.019L264.123 160H262.271L257.786 146.797V160H255.807ZM278.966 155.345V153.43H284.816V155.345H278.966ZM299.596 160H297.691V147.865C297.233 148.303 296.63 148.74 295.882 149.177C295.142 149.615 294.475 149.942 293.883 150.161V148.32C294.948 147.82 295.879 147.213 296.676 146.501C297.473 145.788 298.037 145.097 298.368 144.427H299.596V160ZM307.414 151.589C306.624 151.3 306.038 150.888 305.658 150.352C305.277 149.816 305.086 149.174 305.086 148.426C305.086 147.298 305.492 146.349 306.303 145.58C307.114 144.811 308.193 144.427 309.54 144.427C310.894 144.427 311.984 144.822 312.809 145.612C313.634 146.395 314.047 147.351 314.047 148.479C314.047 149.198 313.857 149.826 313.476 150.362C313.102 150.891 312.531 151.3 311.762 151.589C312.714 151.9 313.437 152.4 313.931 153.092C314.431 153.783 314.682 154.608 314.682 155.567C314.682 156.893 314.213 158.008 313.275 158.91C312.337 159.813 311.102 160.264 309.572 160.264C308.041 160.264 306.807 159.813 305.869 158.91C304.931 158 304.462 156.868 304.462 155.514C304.462 154.506 304.716 153.663 305.224 152.986C305.739 152.302 306.469 151.836 307.414 151.589ZM307.033 148.363C307.033 149.096 307.269 149.696 307.742 150.161C308.214 150.627 308.828 150.859 309.583 150.859C310.316 150.859 310.916 150.63 311.381 150.172C311.854 149.706 312.09 149.138 312.09 148.468C312.09 147.77 311.847 147.185 311.36 146.712C310.88 146.233 310.281 145.993 309.561 145.993C308.835 145.993 308.232 146.226 307.752 146.691C307.273 147.157 307.033 147.714 307.033 148.363ZM306.419 155.525C306.419 156.068 306.546 156.593 306.8 157.101C307.061 157.609 307.445 158.004 307.953 158.286C308.461 158.561 309.008 158.699 309.593 158.699C310.503 158.699 311.254 158.406 311.847 157.821C312.439 157.235 312.735 156.491 312.735 155.588C312.735 154.671 312.428 153.913 311.815 153.314C311.208 152.714 310.447 152.415 309.53 152.415C308.634 152.415 307.89 152.711 307.297 153.303C306.712 153.896 306.419 154.636 306.419 155.525ZM316.903 148.215C316.903 147.107 317.182 146.166 317.739 145.39C318.296 144.614 319.104 144.226 320.162 144.226C321.135 144.226 321.939 144.575 322.574 145.273C323.216 145.965 323.537 146.984 323.537 148.331C323.537 149.643 323.212 150.655 322.563 151.367C321.922 152.072 321.128 152.425 320.183 152.425C319.245 152.425 318.462 152.076 317.834 151.378C317.214 150.68 316.903 149.625 316.903 148.215ZM320.215 145.538C319.742 145.538 319.347 145.742 319.03 146.152C318.72 146.561 318.564 147.312 318.564 148.405C318.564 149.399 318.723 150.101 319.041 150.51C319.358 150.912 319.749 151.113 320.215 151.113C320.694 151.113 321.089 150.909 321.4 150.5C321.717 150.091 321.876 149.343 321.876 148.257C321.876 147.255 321.717 146.554 321.4 146.152C321.082 145.742 320.687 145.538 320.215 145.538ZM320.225 160.571L328.71 144.226H330.255L321.802 160.571H320.225ZM326.933 156.361C326.933 155.246 327.211 154.305 327.769 153.536C328.326 152.76 329.137 152.372 330.202 152.372C331.175 152.372 331.979 152.721 332.614 153.42C333.256 154.111 333.577 155.13 333.577 156.477C333.577 157.789 333.252 158.801 332.603 159.513C331.962 160.219 331.165 160.571 330.212 160.571C329.274 160.571 328.491 160.222 327.864 159.524C327.243 158.819 326.933 157.764 326.933 156.361ZM330.255 153.684C329.775 153.684 329.377 153.889 329.059 154.298C328.749 154.707 328.594 155.458 328.594 156.551C328.594 157.539 328.752 158.237 329.07 158.646C329.387 159.055 329.779 159.259 330.244 159.259C330.731 159.259 331.129 159.055 331.44 158.646C331.757 158.237 331.916 157.489 331.916 156.403C331.916 155.401 331.757 154.7 331.44 154.298C331.122 153.889 330.727 153.684 330.255 153.684Z" fill="#222222"/>
<path d="M10.8333 164.917C16.8164 164.917 21.6667 160.066 21.6667 154.083C21.6667 148.1 16.8164 143.25 10.8333 143.25C4.85025 143.25 0 148.1 0 154.083C0 160.066 4.85025 164.917 10.8333 164.917Z" fill="#990099"/>
<path d="M31.6715 195V179.491H37.522C38.5517 179.491 39.3381 179.54 39.8812 179.639C40.6429 179.766 41.2812 180.009 41.7961 180.369C42.3109 180.721 42.7235 181.219 43.0339 181.86C43.3512 182.502 43.5099 183.207 43.5099 183.976C43.5099 185.295 43.0903 186.413 42.251 187.33C41.4117 188.24 39.8953 188.695 37.7018 188.695H33.724V195H31.6715ZM33.724 186.864H37.7336C39.0595 186.864 40.0011 186.618 40.5583 186.124C41.1155 185.63 41.394 184.935 41.394 184.04C41.394 183.391 41.2283 182.837 40.8968 182.379C40.5724 181.913 40.1421 181.606 39.6061 181.458C39.2605 181.367 38.6222 181.321 37.6912 181.321H33.724V186.864ZM45.8586 195V183.765H47.5724V185.468C48.0097 184.671 48.4117 184.146 48.7785 183.892C49.1523 183.638 49.5614 183.511 50.0057 183.511C50.6475 183.511 51.2999 183.715 51.9629 184.124L51.307 185.891C50.8415 185.616 50.376 185.479 49.9105 185.479C49.4944 185.479 49.1206 185.605 48.7891 185.859C48.4576 186.106 48.2213 186.452 48.0802 186.896C47.8687 187.573 47.7629 188.314 47.7629 189.118V195H45.8586ZM53.1055 181.681V179.491H55.0098V181.681H53.1055ZM53.1055 195V183.765H55.0098V195H53.1055ZM61.04 195L56.7659 183.765H58.776L61.1882 190.493C61.4491 191.22 61.6889 191.974 61.9076 192.757C62.0768 192.165 62.3131 191.452 62.6164 190.62L65.1131 183.765H67.0703L62.8174 195H61.04ZM76.084 193.614C75.3787 194.214 74.6981 194.637 74.0422 194.884C73.3933 195.13 72.695 195.254 71.9474 195.254C70.7132 195.254 69.7645 194.954 69.1016 194.355C68.4386 193.748 68.1071 192.976 68.1071 192.038C68.1071 191.488 68.2305 190.987 68.4774 190.535C68.7313 190.077 69.0592 189.71 69.4613 189.435C69.8703 189.16 70.3288 188.952 70.8366 188.811C71.2104 188.712 71.7746 188.617 72.5293 188.525C74.0668 188.342 75.1988 188.123 75.9253 187.869C75.9323 187.609 75.9359 187.443 75.9359 187.372C75.9359 186.596 75.756 186.05 75.3963 185.732C74.9097 185.302 74.1867 185.087 73.2275 185.087C72.3318 185.087 71.6688 185.246 71.2386 185.563C70.8154 185.873 70.5016 186.427 70.297 187.224L68.4351 186.97C68.6043 186.173 68.8829 185.531 69.2708 185.045C69.6587 184.551 70.2195 184.174 70.953 183.913C71.6865 183.645 72.5363 183.511 73.5026 183.511C74.4618 183.511 75.2412 183.624 75.8407 183.849C76.4402 184.075 76.881 184.361 77.1631 184.706C77.4452 185.045 77.6427 185.475 77.7555 185.997C77.819 186.321 77.8507 186.907 77.8507 187.753V190.292C77.8507 192.062 77.8895 193.184 77.9671 193.656C78.0518 194.122 78.214 194.57 78.4538 195H76.4648C76.2674 194.605 76.1404 194.143 76.084 193.614ZM75.9253 189.361C75.2341 189.643 74.1973 189.883 72.8149 190.081C72.0321 190.193 71.4784 190.32 71.154 190.461C70.8295 190.602 70.5792 190.811 70.4028 191.086C70.2265 191.354 70.1383 191.653 70.1383 191.985C70.1383 192.493 70.3288 192.916 70.7096 193.254C71.0975 193.593 71.6618 193.762 72.4023 193.762C73.1359 193.762 73.7882 193.604 74.3595 193.286C74.9308 192.962 75.3505 192.521 75.6185 191.964C75.823 191.533 75.9253 190.899 75.9253 190.059V189.361ZM84.9707 193.297L85.2458 194.979C84.7097 195.092 84.2301 195.148 83.807 195.148C83.1158 195.148 82.5798 195.039 82.1989 194.82C81.818 194.602 81.55 194.316 81.3949 193.963C81.2397 193.604 81.1621 192.852 81.1621 191.71V185.246H79.7656V183.765H81.1621V180.982L83.0558 179.84V183.765H84.9707V185.246H83.0558V191.816C83.0558 192.359 83.0876 192.708 83.151 192.863C83.2216 193.018 83.3309 193.142 83.479 193.233C83.6342 193.325 83.8528 193.371 84.1349 193.371C84.3465 193.371 84.6251 193.346 84.9707 193.297ZM94.5345 191.382L96.5023 191.625C96.1919 192.775 95.6171 193.667 94.7778 194.302C93.9385 194.937 92.8665 195.254 91.5617 195.254C89.9183 195.254 88.6136 194.75 87.6473 193.741C86.6881 192.725 86.2085 191.304 86.2085 189.478C86.2085 187.587 86.6951 186.12 87.6685 185.076C88.6418 184.033 89.9042 183.511 91.4559 183.511C92.9582 183.511 94.1854 184.022 95.1375 185.045C96.0897 186.067 96.5658 187.506 96.5658 189.361C96.5658 189.474 96.5622 189.643 96.5552 189.869H88.1763C88.2468 191.103 88.5959 192.048 89.2236 192.704C89.8513 193.36 90.6342 193.688 91.5723 193.688C92.2705 193.688 92.8665 193.505 93.3602 193.138C93.8539 192.771 94.2453 192.186 94.5345 191.382ZM88.2821 188.303H94.5557C94.471 187.358 94.2312 186.649 93.8363 186.177C93.2297 185.443 92.4433 185.076 91.4771 185.076C90.6025 185.076 89.8655 185.369 89.266 185.955C88.6735 186.54 88.3455 187.323 88.2821 188.303ZM105.093 195V179.491H107.145V193.17H114.784V195H105.093ZM117.005 181.681V179.491H118.91V181.681H117.005ZM117.005 195V183.765H118.91V195H117.005ZM121.057 191.646L122.94 191.35C123.046 192.105 123.339 192.683 123.818 193.085C124.305 193.487 124.982 193.688 125.85 193.688C126.724 193.688 127.373 193.512 127.796 193.159C128.219 192.799 128.431 192.38 128.431 191.9C128.431 191.47 128.244 191.131 127.87 190.885C127.609 190.715 126.96 190.5 125.924 190.239C124.527 189.887 123.557 189.583 123.014 189.329C122.478 189.068 122.069 188.712 121.787 188.261C121.512 187.802 121.375 187.298 121.375 186.748C121.375 186.247 121.487 185.785 121.713 185.362C121.946 184.932 122.26 184.576 122.655 184.294C122.951 184.075 123.353 183.892 123.861 183.743C124.376 183.588 124.926 183.511 125.511 183.511C126.393 183.511 127.165 183.638 127.828 183.892C128.498 184.146 128.992 184.491 129.309 184.928C129.626 185.359 129.845 185.937 129.965 186.663L128.103 186.917C128.018 186.339 127.772 185.888 127.362 185.563C126.96 185.239 126.389 185.076 125.649 185.076C124.774 185.076 124.15 185.221 123.776 185.51C123.402 185.799 123.215 186.138 123.215 186.526C123.215 186.773 123.293 186.995 123.448 187.192C123.603 187.397 123.847 187.566 124.178 187.7C124.368 187.771 124.929 187.933 125.86 188.187C127.207 188.547 128.145 188.843 128.674 189.076C129.21 189.301 129.63 189.633 129.933 190.07C130.237 190.507 130.388 191.05 130.388 191.699C130.388 192.334 130.201 192.933 129.827 193.498C129.461 194.055 128.928 194.489 128.23 194.799C127.532 195.102 126.742 195.254 125.86 195.254C124.4 195.254 123.286 194.951 122.517 194.344C121.755 193.738 121.269 192.838 121.057 191.646ZM136.81 193.297L137.085 194.979C136.549 195.092 136.069 195.148 135.646 195.148C134.955 195.148 134.419 195.039 134.038 194.82C133.657 194.602 133.389 194.316 133.234 193.963C133.079 193.604 133.001 192.852 133.001 191.71V185.246H131.605V183.765H133.001V180.982L134.895 179.84V183.765H136.81V185.246H134.895V191.816C134.895 192.359 134.927 192.708 134.99 192.863C135.061 193.018 135.17 193.142 135.318 193.233C135.473 193.325 135.692 193.371 135.974 193.371C136.186 193.371 136.464 193.346 136.81 193.297ZM138.693 181.681V179.491H140.597V181.681H138.693ZM138.693 195V183.765H140.597V195H138.693ZM143.507 195V183.765H145.221V185.362C146.046 184.128 147.238 183.511 148.796 183.511C149.473 183.511 150.094 183.634 150.658 183.881C151.23 184.121 151.656 184.438 151.938 184.833C152.221 185.228 152.418 185.697 152.531 186.24C152.601 186.593 152.637 187.21 152.637 188.092V195H150.732V188.166C150.732 187.39 150.658 186.812 150.51 186.431C150.362 186.043 150.098 185.736 149.717 185.51C149.343 185.278 148.902 185.161 148.394 185.161C147.583 185.161 146.882 185.419 146.289 185.933C145.704 186.448 145.411 187.425 145.411 188.864V195H143.507ZM155.218 195.931L157.069 196.206C157.147 196.777 157.362 197.193 157.715 197.454C158.187 197.807 158.833 197.983 159.651 197.983C160.532 197.983 161.213 197.807 161.693 197.454C162.172 197.102 162.497 196.608 162.666 195.973C162.765 195.585 162.811 194.771 162.804 193.529C161.971 194.51 160.935 195 159.693 195C158.149 195 156.953 194.443 156.107 193.328C155.26 192.214 154.837 190.878 154.837 189.319C154.837 188.247 155.031 187.259 155.419 186.357C155.807 185.447 156.368 184.745 157.101 184.251C157.842 183.758 158.709 183.511 159.704 183.511C161.03 183.511 162.123 184.047 162.983 185.119V183.765H164.74V193.477C164.74 195.226 164.56 196.463 164.2 197.19C163.847 197.923 163.283 198.502 162.507 198.925C161.739 199.348 160.79 199.56 159.661 199.56C158.321 199.56 157.239 199.256 156.414 198.65C155.588 198.05 155.19 197.144 155.218 195.931ZM156.794 189.181C156.794 190.655 157.087 191.731 157.673 192.408C158.258 193.085 158.991 193.424 159.873 193.424C160.748 193.424 161.481 193.089 162.074 192.419C162.666 191.742 162.962 190.684 162.962 189.245C162.962 187.869 162.655 186.833 162.042 186.134C161.435 185.436 160.702 185.087 159.841 185.087C158.995 185.087 158.276 185.433 157.683 186.124C157.091 186.808 156.794 187.827 156.794 189.181ZM172.917 190.345V188.43H178.768V190.345H172.917ZM193.547 195H191.643V182.865C191.185 183.303 190.582 183.74 189.834 184.177C189.093 184.615 188.427 184.942 187.834 185.161V183.32C188.899 182.82 189.83 182.213 190.627 181.501C191.424 180.788 191.989 180.097 192.32 179.427H193.547V195ZM198.435 187.351C198.435 185.517 198.622 184.043 198.996 182.929C199.377 181.807 199.937 180.943 200.678 180.337C201.426 179.73 202.364 179.427 203.492 179.427C204.324 179.427 205.054 179.596 205.682 179.935C206.31 180.266 206.828 180.75 207.237 181.384C207.646 182.012 207.967 182.781 208.2 183.691C208.433 184.593 208.549 185.814 208.549 187.351C208.549 189.171 208.362 190.641 207.988 191.763C207.614 192.877 207.054 193.741 206.306 194.355C205.566 194.961 204.628 195.264 203.492 195.264C201.997 195.264 200.822 194.728 199.969 193.656C198.946 192.366 198.435 190.264 198.435 187.351ZM200.392 187.351C200.392 189.897 200.688 191.593 201.281 192.44C201.88 193.279 202.617 193.699 203.492 193.699C204.367 193.699 205.1 193.276 205.693 192.429C206.292 191.583 206.592 189.89 206.592 187.351C206.592 184.798 206.292 183.102 205.693 182.262C205.1 181.423 204.36 181.003 203.471 181.003C202.596 181.003 201.898 181.374 201.376 182.114C200.72 183.059 200.392 184.805 200.392 187.351ZM210.855 183.215C210.855 182.107 211.134 181.166 211.691 180.39C212.248 179.614 213.056 179.226 214.114 179.226C215.087 179.226 215.891 179.575 216.526 180.273C217.168 180.965 217.489 181.984 217.489 183.331C217.489 184.643 217.164 185.655 216.515 186.367C215.873 187.072 215.08 187.425 214.135 187.425C213.197 187.425 212.414 187.076 211.786 186.378C211.166 185.68 210.855 184.625 210.855 183.215ZM214.167 180.538C213.694 180.538 213.299 180.742 212.982 181.152C212.671 181.561 212.516 182.312 212.516 183.405C212.516 184.399 212.675 185.101 212.992 185.51C213.31 185.912 213.701 186.113 214.167 186.113C214.646 186.113 215.041 185.909 215.352 185.5C215.669 185.091 215.828 184.343 215.828 183.257C215.828 182.255 215.669 181.554 215.352 181.152C215.034 180.742 214.639 180.538 214.167 180.538ZM214.177 195.571L222.662 179.226H224.207L215.754 195.571H214.177ZM220.885 191.361C220.885 190.246 221.163 189.305 221.72 188.536C222.278 187.76 223.089 187.372 224.154 187.372C225.127 187.372 225.931 187.721 226.566 188.42C227.208 189.111 227.528 190.13 227.528 191.477C227.528 192.789 227.204 193.801 226.555 194.513C225.913 195.219 225.116 195.571 224.164 195.571C223.226 195.571 222.443 195.222 221.816 194.524C221.195 193.819 220.885 192.764 220.885 191.361ZM224.207 188.684C223.727 188.684 223.328 188.889 223.011 189.298C222.701 189.707 222.546 190.458 222.546 191.551C222.546 192.539 222.704 193.237 223.022 193.646C223.339 194.055 223.73 194.259 224.196 194.259C224.683 194.259 225.081 194.055 225.391 193.646C225.709 193.237 225.868 192.489 225.868 191.403C225.868 190.401 225.709 189.7 225.391 189.298C225.074 188.889 224.679 188.684 224.207 188.684Z" fill="#222222"/>
<path d="M10.8333 199.917C16.8164 199.917 21.6667 195.066 21.6667 189.083C21.6667 183.1 16.8164 178.25 10.8333 178.25C4.85025 178.25 0 183.1 0 189.083C0 195.066 4.85025 199.917 10.8333 199.917Z" fill="#0099C6"/>
</svg>
