<svg width="27" height="34" viewBox="0 0 27 34" fill="none" xmlns="http://www.w3.org/2000/svg">
<path fill-rule="evenodd" clip-rule="evenodd" d="M21.9375 3.4H5.0625C4.13051 3.4 3.375 4.16112 3.375 5.1V28.9C3.375 29.8389 4.13053 30.6 5.0625 30.6H21.9375C22.8695 30.6 23.625 29.8389 23.625 28.9V5.1C23.625 4.16112 22.8695 3.4 21.9375 3.4ZM5.0625 0C2.26657 0 0 2.28335 0 5.1V28.9C0 31.7167 2.26657 34 5.0625 34H21.9375C24.7335 34 27 31.7167 27 28.9V5.1C27 2.28335 24.7335 0 21.9375 0H5.0625ZM16.875 10.2C16.875 12.0778 15.364 13.6 13.5 13.6C11.636 13.6 10.125 12.0778 10.125 10.2C10.125 8.32223 11.636 6.8 13.5 6.8C15.364 6.8 16.875 8.32223 16.875 10.2ZM19.4062 18.445C19.4062 20.1819 16.7619 21.59 13.5 21.59C10.2381 21.59 7.59375 20.1819 7.59375 18.445C7.59375 16.7081 10.2381 15.3 13.5 15.3C16.7619 15.3 19.4062 16.7081 19.4062 18.445ZM6.75 25.5C6.75 24.5611 7.50553 23.8 8.4375 23.8H18.5625C19.4945 23.8 20.25 24.5611 20.25 25.5C20.25 26.4389 19.4945 27.2 18.5625 27.2H8.4375C7.50553 27.2 6.75 26.4389 6.75 25.5Z" fill="#B0B0B0"/>
</svg>
