<svg width="34" height="34" viewBox="0 0 34 34" fill="none" xmlns="http://www.w3.org/2000/svg">
<path d="M33.3457 21.2521L30.9399 19.4204C30.7048 19.2417 30.587 18.9638 30.6251 18.6779C30.6995 18.1292 30.7372 17.5646 30.7372 17C30.7372 16.4367 30.6995 15.8721 30.6251 15.3229C30.587 15.0363 30.7048 14.7583 30.9399 14.5792L33.3452 12.7483C34.0099 12.2437 34.1902 11.3354 33.7647 10.6358L31.1741 6.365C30.7424 5.65375 29.8458 5.35458 29.0419 5.65375L26.1716 6.72083C25.894 6.82417 25.574 6.78125 25.3371 6.60833C24.3976 5.92458 23.3709 5.35917 22.2842 4.9275C22.0097 4.81917 21.8114 4.57792 21.7667 4.29833L21.3035 1.40208C21.1735 0.589583 20.4533 0 19.5899 0H14.4092C13.5462 0 12.8256 0.589583 12.696 1.40167L12.2324 4.29833C12.1877 4.57792 11.9894 4.81917 11.714 4.92792C10.6282 5.35917 9.6015 5.92458 8.66238 6.60833C8.42115 6.78375 8.10898 6.82583 7.82746 6.72083L4.95757 5.65375C4.1533 5.35458 3.25664 5.65375 2.82496 6.36542L0.234824 10.6354C-0.190735 11.3346 -0.0103544 12.2429 0.653378 12.7479L3.05875 14.5792C3.2943 14.7587 3.41163 15.0363 3.3731 15.3229C3.29867 15.88 3.26102 16.4446 3.26102 17C3.26102 17.5596 3.29911 18.1242 3.37398 18.6771C3.41163 18.96 3.29123 19.245 3.05919 19.4208L0.653815 21.2517C-0.0199867 21.7642 -0.196427 22.6529 0.234386 23.3654L2.82496 27.635C3.25664 28.3463 4.15373 28.6454 4.95713 28.3463L7.82746 27.2792C8.10898 27.1746 8.42115 27.2167 8.66238 27.3917C9.6015 28.0754 10.6282 28.6408 11.7149 29.0725C11.9894 29.1808 12.1877 29.4221 12.2328 29.7017L12.696 32.5979C12.8256 33.4104 13.5462 34 14.4092 34H19.5899C20.4533 34 21.1735 33.4104 21.3035 32.5983L21.7667 29.7017C21.8114 29.4221 22.0097 29.1808 22.2851 29.0721C23.3709 28.6408 24.3976 28.0754 25.3371 27.3917C25.574 27.2188 25.894 27.1754 26.172 27.2792L29.0419 28.3463C29.8458 28.6454 30.7424 28.3463 31.1741 27.635L33.7647 23.3654C34.1968 22.6529 34.0204 21.7642 33.3457 21.2521ZM16.9998 23.2592C13.3733 23.2592 10.4228 20.4513 10.4228 17C10.4228 13.5487 13.3733 10.7408 16.9998 10.7408C20.6262 10.7408 23.5767 13.5487 23.5767 17C23.5767 20.4513 20.6262 23.2592 16.9998 23.2592Z" fill="#B0B0B0"/>
</svg>
