<svg width="20" height="34" viewBox="0 0 20 34" fill="none" xmlns="http://www.w3.org/2000/svg">
<path d="M0.229763 7.7995C0.229763 3.49874 3.55958 0 7.65269 0C11.7458 0 15.0756 3.49874 15.0756 7.7995C15.0756 10.8002 13.4523 13.406 11.0821 14.7099C10.9251 14.7154 10.7703 14.7305 10.6203 14.7608V11.3224C11.5479 10.4585 12.1368 9.20135 12.1368 7.7995C12.1368 5.20158 10.1252 3.08785 7.65269 3.08785C5.18001 3.08785 3.16833 5.20158 3.16833 7.7995C3.16833 9.20133 3.75721 10.4585 4.68493 11.3223V14.944C2.06583 13.738 0.229763 10.9914 0.229763 7.7995ZM7.65269 4.35263C5.84378 4.35263 4.37205 5.89882 4.37205 7.7995C4.37205 8.38938 4.51424 8.94483 4.76383 9.43083C4.88731 8.86769 5.1556 8.34988 5.55412 7.93114C6.11466 7.34216 6.85998 7.01783 7.65274 7.01791H7.65276C7.74817 7.01794 7.84488 7.02277 7.9403 7.03235C9.20198 7.15895 10.2312 8.16607 10.5299 9.45281C10.7866 8.96161 10.9331 8.39831 10.9331 7.7995C10.9331 5.89882 9.4614 4.35263 7.65269 4.35263ZM18.4094 17.6922C18.3511 17.6864 18.2933 17.6835 18.2362 17.6835C17.262 17.6835 16.4722 18.5132 16.4722 19.5369V18.7598C16.4722 17.7917 15.7986 16.9273 14.8815 16.8353C14.8232 16.8294 14.7653 16.8266 14.7082 16.8266C13.7339 16.8265 12.9444 17.6563 12.9444 18.6799V17.9028C12.9444 16.9347 12.2708 16.0703 11.3536 15.9785C11.2954 15.9727 11.2376 15.9698 11.1806 15.9698C10.2063 15.9698 9.41673 16.7995 9.41653 17.823V10.2159C9.41653 9.2478 8.74297 8.38341 7.82588 8.29139C7.76764 8.28557 7.70972 8.28272 7.65261 8.28269C6.67834 8.28259 5.88865 9.11242 5.88865 10.1361V23.527L3.05058 21.0551C2.69039 20.7414 2.24103 20.5783 1.79688 20.5783C1.3548 20.5782 0.917874 20.7398 0.578888 21.0753C-0.198611 21.8448 -0.183329 23.1155 0.566937 23.8655L6.16313 30.1688C6.33083 30.3578 6.45495 30.5846 6.52597 30.8319L7.09158 32.8009C7.29612 33.5127 7.92031 34 8.62806 34H16.9984C17.8004 34 18.4793 33.3781 18.5884 32.5434L19.9926 21.8143C19.9975 21.7762 20 21.7377 20 21.6994V19.6164C20 18.6484 19.3264 17.7843 18.4094 17.6922Z" fill="#B0B0B0"/>
</svg>
