<svg width="34" height="34" viewBox="0 0 34 34" fill="none" xmlns="http://www.w3.org/2000/svg">
<path d="M17 0C7.61928 0 0 7.61928 0 17C0 26.3807 7.61928 34 17 34C26.3807 34 34 26.3807 34 17C34 7.61928 26.3807 0 17 0ZM13.6819 1.63855C14.4602 1.67952 15.2795 1.76145 16.1398 1.84337C15.3205 2.04819 14.4602 2.25301 13.6 2.4988C15.6892 2.58072 17.9012 2.66265 20.1952 2.78554C20.6458 2.53976 21.0964 2.33494 21.547 2.17108C21.6699 2.33494 21.8337 2.53976 21.9566 2.70361C22.612 2.74458 23.2675 2.78554 23.9229 2.82651C25.6024 3.64578 27.0771 4.75181 28.388 6.06265C27.7325 6.10361 27.1181 6.14458 26.4627 6.18554C26.5036 6.47229 26.5446 6.8 26.5855 7.12771C25.9711 7.8241 25.3157 8.60241 24.6602 9.38072C24.5373 8.64337 24.4145 7.94699 24.2916 7.29157C24.6602 6.88193 24.988 6.51325 25.3566 6.18554C24.1687 6.26747 22.9807 6.3494 21.7518 6.47229C21.0145 6.8 20.2771 7.08675 19.5398 7.45542C19.4169 7.74217 19.294 7.98795 19.1711 8.2747C19.7036 8.15181 20.1952 8.06988 20.7277 7.94699C20.7277 8.60241 20.7277 9.25783 20.6867 9.95422C20.3181 9.99518 19.9904 10.0361 19.6217 10.0361C19.4988 10.3639 19.3759 10.7325 19.212 11.0602C18.4747 11.5108 17.7374 12.0024 16.959 12.494C17.041 12.8217 17.1639 13.1084 17.2458 13.4361C16.7542 13.7639 16.3036 14.0916 15.812 14.3783C15.6892 13.8048 15.5253 13.2723 15.4024 12.7398C15.0747 12.9036 14.747 13.0675 14.4602 13.2313C14.4602 14.3373 14.5012 15.4843 14.5422 16.5904C13.1904 17.4096 11.8795 18.188 10.6096 19.0072C10.9374 19.5398 11.306 20.0723 11.6747 20.6048C11.1012 20.9325 10.5687 21.3012 10.0361 21.6289C9.79036 21.1783 9.54458 20.7277 9.2988 20.2361C9.1759 20.2771 9.09398 20.3181 8.97108 20.3181C9.09398 20.8506 9.25783 21.3422 9.38072 21.8337C9.83133 22.1614 10.3229 22.4482 10.7735 22.7759C10.6506 22.9398 10.4867 23.1036 10.3639 23.2265C10.0771 23.1446 9.7494 23.0627 9.46265 22.9398C9.54458 23.1855 9.66747 23.3904 9.7494 23.6361C9.99518 23.6771 10.2819 23.7181 10.5277 23.759C10.7325 24.2096 10.9373 24.6602 11.1012 25.1108C11.7976 25.3566 12.494 25.6434 13.2313 25.8892C13.2723 26.094 13.3542 26.3398 13.4361 26.5446C12.6578 26.3807 11.8386 26.2578 11.0602 26.094C9.83133 24.947 8.60241 23.7181 7.45542 22.4892C7.86506 22.5301 8.31566 22.5711 8.76626 22.612C8.02892 21.1783 7.33253 19.7036 6.75904 18.2289C6.75904 17.8193 6.75904 17.4096 6.75904 17.041C6.59518 17.041 6.43132 17.041 6.26747 17.041C6.18554 17.4096 6.10361 17.7783 6.02169 18.147C5.44819 18.6386 4.8747 19.1711 4.34217 19.6627C4.34217 20.1133 4.38313 20.6048 4.4241 21.0554C4.01446 21.1783 3.56386 21.3012 3.15422 21.4241C2.82651 20.5639 2.53976 19.6627 2.25301 18.8024C2.08916 18.7205 1.88434 18.6795 1.72048 18.5976C1.76145 18.106 1.76145 17.5735 1.80241 17.041C1.55663 17 1.35181 16.9181 1.14699 16.8771C1.18795 9.58554 6.14458 3.44096 12.9036 1.67952C13.2313 1.72048 13.4361 1.67952 13.6819 1.63855ZM32.6892 15.5253C32.7301 15.853 32.7301 16.2217 32.7301 16.5494C32.6482 16.6313 32.5253 16.6723 32.4434 16.7542C32.1976 16.2217 31.9518 15.6892 31.706 15.1976C32.0337 15.2795 32.3614 15.4024 32.6892 15.5253ZM19.9494 14.1735C19.0892 14.6241 18.2289 15.0337 17.4096 15.4843C17.1639 15.1976 16.959 14.9108 16.7133 14.6241C17.5735 14.1325 18.3928 13.6819 19.253 13.1904C19.5807 12.3711 19.8675 11.5928 20.1952 10.8145C20.6458 11.1012 21.0964 11.347 21.588 11.6337C21.0145 12.494 20.4819 13.3133 19.9494 14.1735ZM21.0964 17.0819C20.8096 17.2867 20.5229 17.4916 20.2771 17.6964C20.0313 16.9181 19.7855 16.1398 19.5398 15.3614C19.7036 15.4024 19.8675 15.4434 20.0313 15.4843C20.4 16.0169 20.7277 16.5494 21.0964 17.0819ZM22.0795 25.3157C22.2434 25.8072 22.4072 26.2988 22.612 26.7904C20.9735 26.5036 19.294 26.1759 17.6554 25.8482C17.5735 25.3157 17.4506 24.7831 17.3687 24.2096C18.9253 24.5783 20.5229 24.947 22.0795 25.3157ZM22.3253 10.9783C22.1614 10.7735 21.9976 10.6096 21.8337 10.4048C22.4482 10.159 23.0626 9.87229 23.6361 9.62651C23.841 9.83133 24.0867 9.99518 24.2916 10.2C23.6361 10.4458 22.9807 10.7325 22.3253 10.9783ZM16.1807 23.9229C15.894 24.4554 15.6482 24.947 15.4024 25.4386C15.1566 25.3976 14.8699 25.3566 14.6241 25.3157C14.8289 24.7422 15.0337 24.1687 15.2795 23.5542C15.5253 23.7181 15.853 23.841 16.1807 23.9229ZM14.4193 23.5952C14.1325 24.2096 13.8867 24.7831 13.641 25.3566C13.0675 25.1928 12.494 25.0289 11.9205 24.906C11.9205 24.4554 11.9205 24.0458 11.9205 23.5952C12.3711 23.1036 12.8217 22.612 13.3133 22.1205C13.641 22.5711 14.0506 23.1036 14.4193 23.5952ZM20.6048 32.3614C19.7446 32.0747 18.8434 31.706 17.9012 31.2964C17.9012 31.4193 17.9012 31.5422 17.9012 31.6241C16.7952 31.747 15.7301 31.8699 14.706 31.9928C14.706 31.706 14.706 31.4193 14.747 31.0916C14.5012 31.0096 14.2145 30.9277 13.9687 30.8867C13.8048 30.4771 13.6819 30.0265 13.559 29.5349C14.8699 28.7976 16.3446 27.9373 17.9012 27.0361C18.7205 27.4867 19.4988 27.8964 20.2771 28.347C20.2771 28.0193 20.3181 27.6506 20.3181 27.2819C20.5639 27.241 20.7687 27.241 21.0145 27.2C22.0795 28.4699 23.1036 29.6578 24.0458 30.6C23.8 30.9277 23.5542 31.2554 23.3494 31.5422C22.4072 31.8289 21.506 32.1157 20.6048 32.3614Z" fill="#B0B0B0"/>
</svg>
